<?xml version="1.0" standalone="no"?>
<!DOCTYPE svg PUBLIC "-//W3C//DTD SVG 1.1//EN" "http://www.w3.org/Graphics/SVG/1.1/DTD/svg11.dtd" >
<svg xmlns="http://www.w3.org/2000/svg" xmlns:xlink="http://www.w3.org/1999/xlink" version="1.1">
<metadata>
Created by FontForge 20170731 at Thu Sep 30 11:36:17 2021
 By Aleksey,,,
Copyright 2014-2017 Indian Type Foundry (info@indiantypefoundry.com)
</metadata>
<defs>
<font id="SVN-PoppinsMediumItalic" horiz-adv-x="301" >
  <font-face 
    font-family="SVN-Poppins Medium"
    font-weight="500"
    font-style="italic"
    font-stretch="normal"
    units-per-em="1000"
    panose-1="0 0 6 0 0 0 0 0 0 0"
    ascent="800"
    descent="-200"
    x-height="551"
    cap-height="695"
    bbox="-538.769 -582 2603 1077"
    underline-thickness="50"
    underline-position="-150"
    slope="-10"
    unicode-range="U+0020-FB02"
  />
<missing-glyph horiz-adv-x="500" 
d="M0 700h500v-700h-500v700zM420 650h-340l170 -255zM450 95v510l-170 -255zM420 50l-170 255l-170 -255h340zM50 95l170 255l-170 255v-510z" />
    <glyph glyph-name=".notdef" horiz-adv-x="500" 
d="M0 700h500v-700h-500v700zM420 650h-340l170 -255zM450 95v510l-170 -255zM420 50l-170 255l-170 -255h340zM50 95l170 255l-170 255v-510z" />
    <glyph glyph-name=".null" horiz-adv-x="0" 
 />
    <glyph glyph-name="nonmarkingreturn" horiz-adv-x="300" 
 />
    <glyph glyph-name="space" unicode=" " horiz-adv-x="300" 
 />
    <glyph glyph-name="exclam" unicode="!" horiz-adv-x="321" 
d="M168 695h121l-99 -485h-95zM193 66q-5 -31 -30 -52t-55 -21q-31 0 -48 21t-12 52t30 52t56 21q30 0 47 -21t12 -52z" />
    <glyph glyph-name="quotedbl" unicode="&#x22;" horiz-adv-x="323" 
d="M123 797h103l-48 -205h-78zM274 797h103l-48 -205h-78z" />
    <glyph glyph-name="numbersign" unicode="#" horiz-adv-x="872" 
d="M578 458h-196l-68 -173h196zM471 185h-196l-72 -185h-109l72 185h-154l18 100h175l68 173h-154l18 100h175l71 182h109l-71 -182h196l71 182h109l-71 -182h133l-18 -100h-154l-68 -173h133l-18 -100h-154l-72 -185h-109z" />
    <glyph glyph-name="dollar" unicode="$" horiz-adv-x="650" 
d="M218 -6q-45 4 -81.5 18.5t-60.5 38.5t-33.5 58t-1.5 76h122q-3 -38 13.5 -64t58.5 -33l39 220q-36 9 -71.5 20.5t-62 32.5t-39.5 54.5t-4 86.5q7 42 28.5 77.5t54 61.5t74.5 42t90 20l14 81h65l-14 -81q85 -8 130 -54.5t37 -131.5h-122q2 30 -13.5 54.5t-48.5 34.5
l-39 -216q36 -9 71 -20.5t61 -32t38.5 -54t3.5 -85.5q-6 -36 -26 -70.5t-51.5 -62t-73.5 -46.5t-93 -24l-14 -82h-65zM411 192q8 42 -14.5 64.5t-60.5 34.5l-36 -203q46 8 75 36.5t36 67.5zM214 508q-4 -22 0.5 -38t15 -28t26.5 -20.5t35 -14.5l36 202q-42 -5 -73.5 -29
t-39.5 -72z" />
    <glyph glyph-name="percent" unicode="%" horiz-adv-x="722" 
d="M87 553q6 36 22.5 64.5t40.5 48t53.5 30t62.5 10.5q66 0 101.5 -40.5t23.5 -112.5q-6 -36 -22.5 -65t-40.5 -48.5t-53.5 -30t-62.5 -10.5q-66 0 -101.5 40.5t-23.5 113.5zM254 637q-29 0 -49.5 -19.5t-28.5 -64.5t5.5 -65t42.5 -20t49.5 20t28.5 65t-5.5 64.5t-42.5 19.5
zM575 696h112l-522 -696h-112zM352 144q6 36 22.5 64.5t40.5 48t53.5 30t62.5 10.5q32 0 58 -10.5t42.5 -30t23 -48t0.5 -64.5t-22.5 -65t-40.5 -48.5t-53.5 -30t-61.5 -10.5q-66 0 -101.5 40.5t-23.5 113.5zM518 228q-29 0 -49.5 -19.5t-28.5 -64.5t5.5 -64.5t42.5 -19.5
t49.5 19.5t28.5 64.5t-5.5 64.5t-42.5 19.5z" />
    <glyph glyph-name="ampersand" unicode="&#x26;" horiz-adv-x="775" 
d="M455 550q1 3 1 14q0 25 -16 39.5t-45 14.5q-39 0 -63.5 -25.5t-24.5 -58.5q0 -23 12.5 -47t37.5 -58l152 -183l92 117h123l-117 -154q-8 -11 -16.5 -21t-16.5 -20l140 -168h-149l-71 86q-116 -99 -258 -99q-102 0 -159.5 46.5t-57.5 131.5q0 43 15 81.5t42 70.5t65 57.5
t83 43.5q-17 26 -25 49t-8 47q0 43 16 79.5t45.5 62.5t70 40.5t90.5 14.5q39 0 68.5 -10.5t49.5 -28.5t30.5 -42.5t10.5 -51.5q0 -13 -3 -28h-114zM253 84q49 0 93 19.5t87 57.5l-152 185q-66 -24 -105.5 -65t-39.5 -98q0 -43 31 -71t86 -28z" />
    <glyph glyph-name="quotesingle" unicode="'" horiz-adv-x="172" 
d="M123 797h103l-48 -205h-78z" />
    <glyph glyph-name="parenleft" unicode="(" horiz-adv-x="492" 
d="M246 -186q-61 72 -91 169.5t-30 212.5q0 105 23 210.5t66.5 202.5t106 180.5t142.5 144.5h118l-2 -11q-78 -62 -141 -142.5t-108 -172t-69 -190.5t-24 -198q0 -112 31.5 -212.5t97.5 -182.5l-2 -11h-118z" />
    <glyph glyph-name="parenright" unicode=")" horiz-adv-x="492" 
d="M399 530q0 -100 -22 -202t-63 -196.5t-99 -176t-131 -141.5h-118l2 11q74 64 133 143.5t100.5 168t63.5 183t22 189.5q0 115 -34 222t-112 192l2 11h118q72 -76 105 -180.5t33 -223.5z" />
    <glyph glyph-name="asterisk" unicode="*" horiz-adv-x="504" 
d="M329 590l131 89l31 -80l-146 -51l128 -51l-60 -82l-99 90l-4 -145h-92l44 145l-130 -92l-33 85l145 51l-127 49l60 82l101 -90l6 146h93z" />
    <glyph glyph-name="plus" unicode="+" horiz-adv-x="714" 
d="M468 616l-36 -204h201l-18 -102h-201l-36 -204h-108l36 204h-201l18 102h201l36 204h108z" />
    <glyph glyph-name="comma" unicode="," horiz-adv-x="225" 
d="M48 137h124l-169 -276h-74z" />
    <glyph glyph-name="hyphen" unicode="-" horiz-adv-x="585" 
d="M108 410h411l-17 -96h-411z" />
    <glyph glyph-name="period" unicode="." horiz-adv-x="241" 
d="M153 66q-5 -31 -30 -52t-55 -21q-31 0 -48 21t-12 52t30 52t56 21q30 0 47 -21t12 -52z" />
    <glyph glyph-name="slash" unicode="/" horiz-adv-x="514" 
d="M447 944h113l-470 -1119h-112z" />
    <glyph glyph-name="zero" unicode="0" horiz-adv-x="641" 
d="M73 366q13 76 36.5 142.5t62 115.5t93.5 77t132 28q76 0 121.5 -28t66.5 -77t21 -115.5t-13 -142.5q-14 -77 -37.5 -143t-61.5 -115.5t-93 -77.5t-132 -28t-122 28t-66 77.5t-21.5 115.5t13.5 143zM481 366q9 50 12.5 97t-5.5 83t-34.5 57.5t-74.5 21.5
q-50 0 -83.5 -21.5t-55 -57.5t-34 -83t-21.5 -97q-9 -51 -13 -98t5 -83t34.5 -57.5t75.5 -21.5t83 21.5t55 57.5t34.5 83t21.5 98z" />
    <glyph glyph-name="one" unicode="1" horiz-adv-x="350" 
d="M193 606h-93l19 104h208l-126 -710h-115z" />
    <glyph glyph-name="two" unicode="2" horiz-adv-x="577" 
d="M16 93q74 57 146.5 110.5t132 105t99.5 102t49 102.5q4 27 1.5 49.5t-13.5 39t-32 25.5t-53 9q-60 0 -98 -37.5t-52 -100.5h-110q12 59 38.5 103t63.5 73.5t82 44t93 14.5q55 0 95.5 -16t65 -44.5t33 -68t0.5 -86.5q-11 -64 -51 -121.5t-94 -109t-114 -97t-111 -85.5h317
l-17 -95h-486z" />
    <glyph glyph-name="three" unicode="3" horiz-adv-x="594" 
d="M103 549q11 47 36.5 84t61.5 62t81 38t95 13q54 0 93.5 -15t63 -40.5t32 -60t1.5 -74.5q-6 -33 -20 -60t-33.5 -48t-42 -35.5t-45.5 -21.5v-4q54 -17 79.5 -64t12.5 -123q-8 -44 -29.5 -81t-56 -64.5t-81 -43t-103.5 -15.5q-52 0 -94.5 13.5t-71.5 40.5t-42 67t-6 94h110
q-5 -51 24 -85.5t95 -34.5q64 0 102 34.5t47 85.5q12 72 -28 100.5t-131 28.5h-26l17 94h27q78 1 126 25t59 84q8 48 -16 76.5t-84 28.5q-30 0 -53.5 -8.5t-41.5 -22t-29.5 -31.5t-17.5 -37h-111z" />
    <glyph glyph-name="four" unicode="4" horiz-adv-x="647" 
d="M383 152h-362l15 86l421 482h138l-82 -469h93l-18 -99h-93l-27 -152h-112zM406 251l62 353l-298 -353h236z" />
    <glyph glyph-name="five" unicode="5" horiz-adv-x="639" 
d="M607 731l-17 -100h-335l-35 -199q25 27 69 46.5t93 19.5q67 0 108 -22.5t62 -58t24.5 -78.5t-3.5 -84q-9 -54 -33 -101t-61.5 -81t-88.5 -53.5t-114 -19.5q-56 0 -98 14.5t-69 41t-40 62.5t-12 79h111q3 -48 35.5 -75t90.5 -27q37 0 66 12t50 33t34.5 49.5t19.5 62.5
q13 72 -15.5 110.5t-100.5 38.5q-51 0 -88 -24.5t-59 -66.5h-108l74 421h440z" />
    <glyph glyph-name="six" unicode="6" horiz-adv-x="642" 
d="M499 560q-3 45 -27 68.5t-78 23.5q-39 0 -70.5 -14t-57 -45t-44.5 -80.5t-33 -121.5q35 45 89.5 68.5t111.5 23.5q49 0 87.5 -16t62.5 -47t32.5 -75.5t-1.5 -101.5q-9 -52 -32.5 -96.5t-59.5 -77t-84 -51t-106 -18.5q-80 0 -126.5 27t-67.5 76.5t-20.5 120t15.5 157.5
q15 85 41.5 153t66 115.5t93 72.5t121.5 25q53 0 90 -15.5t60.5 -41.5t33.5 -60t8 -70h-105zM348 387q-28 0 -56 -8.5t-51.5 -26t-40.5 -44.5t-23 -63q-12 -69 19 -109.5t104 -40.5q63 0 106.5 38.5t54.5 104.5q12 66 -14.5 107.5t-98.5 41.5z" />
    <glyph glyph-name="seven" unicode="7" horiz-adv-x="560" 
d="M598 726l-15 -85l-391 -641h-125l403 631h-370l16 95h482z" />
    <glyph glyph-name="eight" unicode="8" horiz-adv-x="638" 
d="M200 391q-42 23 -64 63t-11 101q7 40 28.5 75.5t56 62.5t82.5 43t108 16t102.5 -16t67.5 -43t33.5 -63t1.5 -75q-11 -60 -48 -101t-85 -63q52 -21 77.5 -68.5t13.5 -116.5q-9 -52 -36 -93.5t-66.5 -70.5t-90 -44.5t-106.5 -15.5t-100.5 15.5t-73.5 44.5t-41 70.5t-3 93.5
q12 70 54 117.5t100 67.5zM383 657q-60 0 -100 -29.5t-50 -87.5q-9 -51 22 -82t88 -31t99 32t52 82q10 57 -20.5 86.5t-90.5 29.5zM327 341q-32 0 -60.5 -8t-51 -24t-38.5 -40.5t-22 -58.5q-11 -60 22.5 -96.5t103.5 -36.5q69 0 114.5 36.5t55.5 96.5q12 66 -23.5 98.5
t-100.5 32.5z" />
    <glyph glyph-name="nine" unicode="9" horiz-adv-x="635" 
d="M185 198q2 -49 29.5 -75.5t84.5 -26.5q34 0 62 12.5t50.5 41.5t39.5 76t29 117q-31 -35 -77.5 -53t-97.5 -18q-48 0 -87.5 14.5t-66 44t-37 73t-0.5 101.5q10 54 34.5 98.5t61 76t84.5 49t105 17.5q70 0 114 -24t65 -70.5t22 -115t-15 -158.5q-16 -92 -39.5 -162.5
t-59.5 -118t-87 -72t-123 -24.5q-57 0 -96 16t-62 43.5t-32 63t-6 74.5h105zM342 368q61 0 101.5 37t51.5 100q13 70 -17 108t-93 38q-65 0 -107 -40t-54 -103q-5 -28 -1.5 -53.5t17.5 -44.5t39 -30.5t63 -11.5z" />
    <glyph glyph-name="colon" unicode=":" horiz-adv-x="245" 
d="M153 66q-5 -31 -30 -52t-55 -21q-31 0 -48 21t-12 52t30 52t56 21q30 0 47 -21t12 -52zM153 486q-5 -31 -30 -52t-55 -21q-31 0 -48 21t-12 52t30 52t56 21q30 0 47 -21t12 -52z" />
    <glyph glyph-name="semicolon" unicode=";" horiz-adv-x="304" 
d="M265 486q-5 -31 -30 -52t-55 -21q-31 0 -48 21t-12 52t30 52t56 21q30 0 47 -21t12 -52zM75 137h124l-169 -276h-74z" />
    <glyph glyph-name="less" unicode="&#x3c;" horiz-adv-x="612" 
d="M444 134h-144l-190 227l270 227h144l-271 -227z" />
    <glyph glyph-name="equal" unicode="=" horiz-adv-x="774" 
d="M122 298h532l-18 -101h-532zM162 525h532l-18 -101h-532z" />
    <glyph glyph-name="greater" unicode="&#x3e;" horiz-adv-x="590" 
d="M355 361l-191 227h144l190 -227l-270 -227h-144z" />
    <glyph glyph-name="question" unicode="?" horiz-adv-x="538" 
d="M76 499q8 45 30.5 83t56 65.5t77.5 42.5t95 15q50 0 89 -14.5t64 -41.5t34.5 -65.5t0.5 -87.5q-9 -53 -33.5 -91.5t-60.5 -63t-81 -36.5t-95 -12l-18 -79h-99l23 157h33q42 0 79.5 5t66.5 18.5t49 38t27 63.5q9 54 -16 83.5t-79 29.5t-90 -28t-46 -82h-107zM230 66
q-5 -31 -30 -52t-55 -21q-31 0 -48 21t-12 52t30 52t56 21q30 0 47 -21t12 -52z" />
    <glyph glyph-name="at" unicode="@" horiz-adv-x="1026" 
d="M727 -7q-52 0 -80.5 23t-35.5 63q-31 -39 -77.5 -62.5t-98.5 -23.5q-78 0 -121 47t-43 126q0 57 18 108.5t51 91.5t78.5 63.5t100.5 23.5q87 0 122 -59l9 50h99l-50 -286q-6 -40 0.5 -64.5t44.5 -24.5q31 0 53.5 23.5t37 59t21.5 77t7 77.5q0 129 -73 195t-216 66
q-90 0 -165 -32.5t-130 -90t-85.5 -136t-30.5 -169.5q0 -131 76 -196.5t217 -65.5q42 0 85 8t81 27l15 -76q-48 -20 -99 -29.5t-105 -9.5q-83 0 -150 23.5t-114 67t-73 105t-26 137.5q0 108 38.5 202.5t107 164t163.5 109.5t209 40q87 0 155 -24.5t115.5 -68.5t72 -105.5
t24.5 -136.5q0 -58 -15 -115t-44 -102t-71.5 -73t-97.5 -28zM621 257q0 46 -25 77.5t-76 31.5q-34 0 -60.5 -16t-45 -42t-28 -58.5t-9.5 -66.5q0 -45 22 -73.5t71 -28.5q32 0 59.5 14.5t48 39t32 56t11.5 66.5z" />
    <glyph glyph-name="A" unicode="A" horiz-adv-x="697" 
d="M467 142h-291l-75 -142h-119l372 696h132l126 -696h-120zM395 558l-172 -327h229z" />
    <glyph glyph-name="B" unicode="B" horiz-adv-x="630" 
d="M450 199q10 52 -20.5 82t-87.5 30h-150l-39 -222h154q58 0 96 29t47 81zM486 502q8 49 -18 76.5t-83 27.5h-141l-36 -206h141q57 0 93 27t44 75zM562 187q-7 -40 -28.5 -74t-55.5 -59t-79 -39.5t-98 -14.5h-278l123 695h265q55 0 94.5 -14t64 -38.5t33 -57t1.5 -69.5
q-11 -63 -51 -102t-94 -57q27 -5 48.5 -20.5t35.5 -38.5t19.5 -51.5t-0.5 -59.5z" />
    <glyph glyph-name="C" unicode="C" horiz-adv-x="773" 
d="M47 349q14 78 53.5 143t95.5 112.5t125 73.5t143 26q54 0 101.5 -13.5t85 -40t63.5 -65.5t37 -90h-137q-19 54 -62 79.5t-106 25.5q-52 0 -98.5 -17.5t-84 -50.5t-63.5 -79.5t-36 -103.5t-0.5 -103.5t35 -79.5t66 -51t92.5 -18q63 0 115.5 25.5t89.5 79.5h137
q-29 -51 -68.5 -90t-86 -65t-99 -39.5t-106.5 -13.5q-74 0 -134 26t-99.5 73t-56 112.5t-2.5 143.5z" />
    <glyph glyph-name="D" unicode="D" horiz-adv-x="709" 
d="M373 695q84 0 147.5 -24.5t103.5 -70t55 -110t1 -145.5q-14 -80 -51.5 -144t-94 -108.5t-128.5 -68.5t-156 -24h-227l123 695h227zM266 87q62 0 112 18t87.5 51.5t62 81.5t35.5 107q21 119 -31 188.5t-175 69.5h-113l-91 -516h113z" />
    <glyph glyph-name="E" unicode="E" horiz-adv-x="524" 
d="M514 607h-270l-37 -211h240l-15 -88h-240l-39 -219h270l-16 -89h-384l123 696h384z" />
    <glyph glyph-name="F" unicode="F" horiz-adv-x="515" 
d="M146 695h409l-16 -89h-295l-37 -211h230l-16 -88h-230l-54 -307h-114z" />
    <glyph glyph-name="G" unicode="G" horiz-adv-x="773" 
d="M47 349q14 78 53.5 143t95.5 112.5t125 73.5t143 26q54 0 101.5 -13.5t85 -40t63.5 -65.5t37 -90h-137q-19 54 -62 79.5t-106 25.5q-52 0 -98.5 -17.5t-84 -50.5t-63.5 -79.5t-36 -103.5t-0.5 -103.5t35 -79.5t66 -51t92.5 -18q96 0 162.5 52.5t94.5 142.5h-261l16 89
h383l-16 -89q-19 -60 -57 -114.5t-90 -95t-116 -64.5t-134 -24q-74 0 -134 26t-99.5 73t-56 112.5t-2.5 143.5z" />
    <glyph glyph-name="H" unicode="H" horiz-adv-x="705" 
d="M518 307h-327l-54 -307h-114l123 695h114l-53 -300h327l53 300h114l-123 -695h-114z" />
    <glyph glyph-name="I" unicode="I" horiz-adv-x="264" 
d="M146 695h114l-123 -695h-114z" />
    <glyph glyph-name="J" unicode="J" horiz-adv-x="564" 
d="M410 695h115l-88 -501q-9 -47 -31 -84.5t-53.5 -63.5t-71.5 -39.5t-85 -13.5t-80.5 13.5t-58 39.5t-31 63.5t0.5 84.5h115q-8 -45 9 -72.5t63 -27.5t73 27.5t35 72.5z" />
    <glyph glyph-name="K" unicode="K" horiz-adv-x="633" 
d="M192 311l-55 -311h-114l123 695h114l-56 -317l326 317h143l-364 -348l246 -347h-149z" />
    <glyph glyph-name="L" unicode="L" horiz-adv-x="444" 
d="M260 695l-107 -608h235l-16 -87h-349l123 695h114z" />
    <glyph glyph-name="M" unicode="M" horiz-adv-x="882" 
d="M146 695h123l148 -545l339 545h122l-123 -695h-114l84 476l-296 -476h-79l-129 476l-84 -476h-114z" />
    <glyph glyph-name="N" unicode="N" horiz-adv-x="721" 
d="M717 696l-123 -696h-114l-251 519l-92 -519h-114l123 696h114l252 -518l91 518h114z" />
    <glyph glyph-name="O" unicode="O" horiz-adv-x="784" 
d="M757 412q0 -91 -31 -167.5t-86.5 -132.5t-131 -87.5t-165.5 -31.5q-67 0 -121.5 21.5t-93.5 60.5t-60 92.5t-21 118.5q0 90 31 167t86.5 132.5t131 87t164.5 31.5q67 0 122 -21.5t94 -60.5t60 -92.5t21 -117.5zM165 293q0 -91 50.5 -144t143.5 -53q63 0 114.5 25t88.5 67
t57 98t20 118q0 91 -50.5 143.5t-144.5 52.5q-63 0 -114.5 -24.5t-88 -66.5t-56.5 -97.5t-20 -118.5z" />
    <glyph glyph-name="P" unicode="P" horiz-adv-x="595" 
d="M329 371q67 0 103.5 31.5t45.5 85.5q10 54 -15.5 86t-92.5 32h-126l-41 -235h126zM595 488q-6 -37 -25.5 -74t-54 -66t-85 -47.5t-117.5 -18.5h-126l-50 -282h-114l123 695h240q62 0 105 -16.5t68.5 -44.5t34 -66t1.5 -80z" />
    <glyph glyph-name="Q" unicode="Q" horiz-adv-x="787" 
d="M165 293q0 -91 50.5 -144t143.5 -53q63 0 114.5 25t88.5 67t57 98t20 118q0 91 -50.5 143.5t-144.5 52.5q-63 0 -114.5 -24.5t-88 -66.5t-56.5 -97.5t-20 -118.5zM757 412q0 -124 -55.5 -218.5t-149.5 -148.5l132 -171h-145l-97 130q-52 -11 -99 -11q-67 0 -121.5 21.5
t-93.5 60.5t-60 92.5t-21 118.5q0 90 31 167t86.5 132.5t131 87t164.5 31.5q67 0 122 -21.5t94 -60.5t60 -92.5t21 -117.5z" />
    <glyph glyph-name="R" unicode="R" horiz-adv-x="632" 
d="M478 487q10 54 -15.5 86.5t-92.5 32.5h-126l-42 -238h126q67 0 104 32.5t46 86.5zM386 695q62 0 105 -16.5t68.5 -45t34 -66.5t1.5 -80q-5 -30 -19 -61t-38.5 -58t-59 -48t-79.5 -32l121 -288h-136l-110 278h-88l-49 -278h-114l123 695h240z" />
    <glyph glyph-name="S" unicode="S" horiz-adv-x="599" 
d="M530 193q0 -44 -18.5 -80.5t-52 -63t-80.5 -41.5t-104 -15q-51 0 -94.5 13t-74 38.5t-46 62.5t-9.5 85h113q-4 -45 26 -76t90 -31t96 24t36 75q0 34 -23.5 56t-59.5 39t-77.5 33t-77.5 38.5t-60.5 56.5t-25.5 87q-1 49 17.5 88t51.5 66t79 41.5t100 14.5t96.5 -13.5
t71.5 -38.5t43.5 -59.5t12.5 -77.5h-120q4 39 -24 67.5t-85 28.5t-92 -26t-35 -72q0 -33 24 -55t60.5 -40t78.5 -35.5t78.5 -42t60.5 -59.5t24 -88z" />
    <glyph glyph-name="T" unicode="T" horiz-adv-x="564" 
d="M110 695h485l-16 -89h-185l-107 -606h-114l107 606h-186z" />
    <glyph glyph-name="U" unicode="U" horiz-adv-x="690" 
d="M145 695h114l-78 -441q-14 -81 21.5 -120t107.5 -39q73 0 122.5 39t63.5 120l78 441h114l-78 -441q-12 -66 -43 -115.5t-74 -81.5t-95 -48t-107 -16q-54 0 -100.5 16t-78 48t-44.5 81.5t-1 115.5z" />
    <glyph glyph-name="V" unicode="V" horiz-adv-x="694" 
d="M90 695h122l103 -577l309 577h121l-384 -695h-132z" />
    <glyph glyph-name="W" unicode="W" horiz-adv-x="999" 
d="M90 695h121l44 -566l256 566h128l46 -563l244 563h122l-329 -695h-129l-54 526l-247 -526l-128 -1z" />
    <glyph glyph-name="X" unicode="X" horiz-adv-x="660" 
d="M318 253l-192 -253h-128l278 347l-155 348h128l113 -253l192 253h128l-278 -348l154 -347h-128z" />
    <glyph glyph-name="Y" unicode="Y" horiz-adv-x="605" 
d="M86 695h127l100 -339l220 339h128l-308 -443l-45 -252h-114l45 252z" />
    <glyph glyph-name="Z" unicode="Z" horiz-adv-x="558" 
d="M563 606l-412 -507h323l-18 -99h-458l16 89l411 507h-322l18 99h458z" />
    <glyph glyph-name="bracketleft" unicode="[" horiz-adv-x="485" 
d="M263 944h208l-17 -94h-101l-164 -931h101l-17 -95h-208z" />
    <glyph glyph-name="backslash" unicode="\" horiz-adv-x="532" 
d="M369 -175h-112l-62 1119h112z" />
    <glyph glyph-name="bracketright" unicode="]" horiz-adv-x="484" 
d="M452 934l-197 -1120h-208l16 95h101l165 931h-101l16 94h208z" />
    <glyph glyph-name="asciicircum" unicode="^" horiz-adv-x="654" 
d="M375 558l-243 -390h-118l330 528h108l145 -528h-119z" />
    <glyph glyph-name="underscore" unicode="_" horiz-adv-x="798" 
d="M67 -40h558l-18 -106h-558z" />
    <glyph glyph-name="grave" unicode="`" horiz-adv-x="254" 
d="M99 796l199 -122l-15 -84l-201 109z" />
    <glyph glyph-name="a" unicode="a" horiz-adv-x="678" 
d="M34 278q11 64 40.5 116t71.5 89t93 57t105 20q35 0 63 -7.5t49.5 -20t37 -28.5t25.5 -33l14 80h115l-97 -551h-115l15 82q-16 -18 -38 -34t-48.5 -29t-57.5 -20.5t-65 -7.5q-54 0 -97 21t-71.5 59t-39.5 90.5t0 116.5zM485 276q8 44 0 78.5t-27 58t-47 36t-60 12.5
t-64 -12t-60 -35t-48 -57t-28 -79t0 -80t27 -59t47 -36.5t60 -12.5t64.5 12.5t60 36t47.5 58t28 79.5z" />
    <glyph glyph-name="b" unicode="b" horiz-adv-x="678" 
d="M220 469q34 38 88 64.5t120 26.5q55 0 98.5 -20t72 -57t39 -89t-0.5 -116t-40.5 -116.5t-71 -90.5t-92.5 -59t-105 -21q-69 0 -112.5 26.5t-64.5 62.5l-14 -80h-114l131 740h114zM521 278q8 45 0 79t-27.5 57t-47.5 35t-60 12t-64 -12.5t-60 -36t-48 -58t-28 -78.5
q-8 -45 0 -79.5t27 -58t47 -36t60 -12.5t64.5 12.5t60.5 36.5t48 59t28 80z" />
    <glyph glyph-name="c" unicode="c" horiz-adv-x="600" 
d="M34 276q11 64 40 116.5t71.5 90t96 57.5t112.5 20q103 0 158.5 -47.5t63.5 -135.5h-123q-8 40 -36.5 63.5t-79.5 23.5q-69 0 -119.5 -48.5t-66.5 -139.5t17.5 -140t102.5 -49q51 0 87 22t59 65h123q-19 -41 -47 -74.5t-64 -57.5t-80 -37.5t-95 -13.5q-59 0 -105.5 20
t-76 57.5t-40 90t1.5 117.5z" />
    <glyph glyph-name="d" unicode="d" horiz-adv-x="678" 
d="M34 278q11 64 40.5 116t71.5 89t93 57t106 20q54 0 102 -23.5t73 -62.5l47 266h115l-131 -740h-115l15 83q-33 -38 -85.5 -65t-121.5 -27q-54 0 -98 21t-72.5 59t-39.5 90.5t0 116.5zM485 276q8 44 0 78.5t-27 58t-47 36t-60 12.5t-64 -12t-60 -35t-48 -57t-28 -79t0 -80
t27 -59t47 -36.5t60 -12.5t64.5 12.5t60 36t47.5 58t28 79.5z" />
    <glyph glyph-name="e" unicode="e" horiz-adv-x="617" 
d="M337 464q-60 0 -109 -38t-68 -107h306q5 34 -2.5 61t-25 45.5t-43.5 28.5t-58 10zM542 164q-18 -36 -45.5 -67.5t-63.5 -55t-79.5 -37t-94.5 -13.5q-59 0 -106 20t-77.5 57.5t-42 90t0.5 117.5t41.5 117.5t72 89.5t96.5 57t115 20q59 0 105 -19.5t75 -55t40 -85t1 -109.5
q-2 -13 -5.5 -26.5t-8.5 -27.5h-421q-8 -70 29.5 -110t101.5 -40q54 0 88 22.5t55 54.5h123z" />
    <glyph glyph-name="f" unicode="f" horiz-adv-x="332" 
d="M118 458h-65l16 93h65l7 39q17 95 75 138.5t166 43.5l-16 -95q-53 0 -77.5 -19.5t-32.5 -67.5l-7 -39h102l-16 -93h-102l-81 -458h-115z" />
    <glyph glyph-name="g" unicode="g" horiz-adv-x="678" 
d="M34 278q11 64 40.5 116t71.5 89t93 57t105 20q69 0 112.5 -27t62.5 -62l14 80h115l-98 -560q-10 -56 -36.5 -104.5t-67 -83.5t-94.5 -55t-118 -20q-56 0 -100.5 13.5t-75.5 38.5t-46.5 61t-12.5 82h113q5 -43 42.5 -69.5t97.5 -26.5q66 0 117 40.5t66 123.5l16 92
q-32 -36 -85.5 -64t-121.5 -28q-54 0 -98 21t-72.5 59t-39.5 90.5t0 116.5zM485 276q8 44 0 78.5t-27 58t-47 36t-60 12.5t-64 -12t-60 -35t-48 -57t-28 -79t0 -80t27 -59t47 -36.5t60 -12.5t64.5 12.5t60 36t47.5 58t28 79.5z" />
    <glyph glyph-name="h" unicode="h" horiz-adv-x="649" 
d="M154 740h114l-45 -253q35 35 82.5 54t101.5 19q46 0 83.5 -15t62 -44.5t33.5 -73.5t-1 -102l-58 -325h-113l55 308q13 76 -17.5 114.5t-93.5 38.5t-108 -38.5t-58 -114.5v2l-55 -310h-114z" />
    <glyph glyph-name="i" unicode="i" horiz-adv-x="264" 
d="M120 551h114l-97 -551h-114zM204 637q-29 0 -48.5 19t-19.5 48q0 28 19.5 46.5t48.5 18.5q28 0 47 -18.5t19 -46.5q0 -29 -19 -48t-47 -19z" />
    <glyph glyph-name="j" unicode="j" horiz-adv-x="264" 
d="M234 551l-116 -659q-14 -84 -63 -119t-122 -35h-59l17 96h39q36 0 52.5 13.5t21.5 44.5l116 659h114zM204 637q-29 0 -48.5 19t-19.5 48q0 28 19.5 46.5t48.5 18.5q28 0 47 -18.5t19 -46.5q0 -29 -19 -48t-47 -19z" />
    <glyph glyph-name="k" unicode="k" horiz-adv-x="554" 
d="M154 740h114l-76 -429l242 240h158l-303 -276l206 -275h-154l-162 237l-42 -237h-114z" />
    <glyph glyph-name="l" unicode="l" horiz-adv-x="264" 
d="M154 740h114l-131 -740h-114z" />
    <glyph glyph-name="m" unicode="m" horiz-adv-x="1039" 
d="M859 308q13 76 -17.5 114.5t-93.5 38.5t-108 -38.5t-58 -114.5l-55 -308h-113l55 308q13 76 -17.5 114.5t-93.5 38.5t-108 -38.5t-58 -114.5v3l-55 -311h-114l97 551h114l-11 -64q33 35 79 54t97 19q66 0 113 -27.5t67 -81.5q34 51 91.5 80t118.5 29q48 0 87 -15
t64.5 -44.5t35 -73.5t-0.5 -102l-58 -325h-113z" />
    <glyph glyph-name="n" unicode="n" horiz-adv-x="649" 
d="M469 308q13 76 -17.5 114.5t-93.5 38.5t-108 -38.5t-58 -114.5v3l-55 -311h-114l97 551h114l-11 -64q34 35 80 54t97 19q48 0 87 -15t64 -44.5t34.5 -73.5t-0.5 -102l-58 -325h-113z" />
    <glyph glyph-name="o" unicode="o" horiz-adv-x="638" 
d="M602 327q0 -71 -26 -132.5t-71.5 -106.5t-107.5 -71t-133 -26q-53 0 -96.5 17t-74 47.5t-47.5 73t-17 94.5q0 70 25 131.5t70 107t106 72t133 26.5q53 0 97 -17t75.5 -47.5t49 -73.5t17.5 -95zM147 228q0 -70 37 -105.5t94 -35.5q44 0 82 19t65.5 51.5t43 74.5t15.5 88
q0 36 -11 63t-30 45t-43.5 27t-52.5 9q-45 0 -82 -19.5t-63 -52t-40.5 -75.5t-14.5 -89z" />
    <glyph glyph-name="p" unicode="p" horiz-adv-x="678" 
d="M220 470q16 17 38 33.5t48.5 29t57 20t64.5 7.5q55 0 98.5 -20t71.5 -57t39 -89t0 -116t-40.5 -116.5t-71 -90.5t-92.5 -59t-105 -21q-35 0 -62.5 8t-49.5 20.5t-38 28.5t-27 32l-60 -342h-114l143 813h114zM521 278q8 45 0 79t-27.5 57t-47.5 35t-60 12t-64 -12.5
t-60 -36t-48 -58t-28 -78.5q-8 -45 0 -79.5t27 -58t47 -36t60 -12.5t64.5 12.5t60.5 36.5t48 59t28 80z" />
    <glyph glyph-name="q" unicode="q" horiz-adv-x="678" 
d="M34 278q11 64 40.5 116t71.5 89t93 57t106 20q34 0 62 -7.5t50 -20t37.5 -28.5t24.5 -33l14 80h115l-143 -813h-115l60 342q-15 -16 -36.5 -32t-48 -28.5t-58 -20.5t-66.5 -8q-54 0 -97 21t-71 59t-39 90.5t0 116.5zM485 276q8 44 0 78.5t-27 58t-47 36t-60 12.5t-64 -12
t-60 -35t-48 -57t-28 -79t0 -80t27 -59t47 -36.5t60 -12.5t64.5 12.5t60 36t47.5 58t28 79.5z" />
    <glyph glyph-name="r" unicode="r" horiz-adv-x="384" 
d="M23 0l97 551h114l-17 -97q32 48 78 77t106 29l-21 -118h-29q-31 0 -57.5 -7t-47.5 -24.5t-35.5 -46t-21.5 -70.5l-52 -294h-114z" />
    <glyph glyph-name="s" unicode="s" horiz-adv-x="534" 
d="M455 152q0 -38 -17.5 -67.5t-48 -50.5t-72.5 -32t-91 -11q-46 0 -86 13t-68 36.5t-41.5 56.5t-7.5 72h111q-4 -38 22 -63t77 -25q45 0 77.5 16t32.5 51q0 25 -20.5 40.5t-50.5 28.5t-66 26t-66 32.5t-50.5 48.5t-20.5 74q0 36 16 66t44.5 51.5t69 33t88.5 11.5
q46 0 85 -13t66 -36t40 -55.5t8 -72.5h-108q4 39 -21.5 63t-76.5 24q-43 0 -69.5 -18t-26.5 -49q0 -26 20 -43t50 -30.5t65.5 -27t65.5 -32.5t50 -47t20 -71z" />
    <glyph glyph-name="t" unicode="t" horiz-adv-x="372" 
d="M122 458h-65l16 93h66l24 137h115l-24 -137h133l-16 -93h-134l-54 -305q-5 -31 6.5 -44.5t47.5 -13.5h70l-17 -95h-90q-74 0 -110 34.5t-22 118.5z" />
    <glyph glyph-name="u" unicode="u" horiz-adv-x="649" 
d="M522 0h-114l11 65q-33 -35 -79.5 -54t-95.5 -19q-48 0 -87 15t-64.5 44.5t-35 73.5t0.5 102l57 324h113l-54 -307q-13 -76 17.5 -114.5t93.5 -38.5t107 37t58 109l55 314h114z" />
    <glyph glyph-name="v" unicode="v" horiz-adv-x="576" 
d="M177 551l77 -449l235 449h123l-307 -551h-138l-112 551h122z" />
    <glyph glyph-name="w" unicode="w" horiz-adv-x="825" 
d="M55 551h116l38 -443l194 443h119l35 -441l191 441h112l-268 -551h-120l-38 407l-184 -407h-120z" />
    <glyph glyph-name="x" unicode="x" horiz-adv-x="499" 
d="M222 187l-145 -187h-119l226 271l-129 280h129l86 -187l145 187h119l-225 -271l128 -280h-129z" />
    <glyph glyph-name="y" unicode="y" horiz-adv-x="582" 
d="M55 551h127l81 -420l235 420h118l-480 -810h-118l159 268z" />
    <glyph glyph-name="z" unicode="z" horiz-adv-x="471" 
d="M455 458l-314 -365h250l-17 -93h-382l17 93l315 365h-251l16 93h382z" />
    <glyph glyph-name="braceleft" unicode="{" horiz-adv-x="516" 
d="M221 262q0 32 -21.5 48t-63.5 21l15 86q49 5 78.5 29t36.5 63q5 28 8.5 63.5t6.5 72t7 73t10 67.5q13 73 62 112t115 39h67l-17 -99h-44q-32 0 -50 -14.5t-24 -46.5q-5 -26 -8.5 -59.5t-6.5 -69.5t-7 -73t-10 -69q-8 -51 -38.5 -85t-87.5 -45l-1 -2q45 -9 64.5 -31
t19.5 -59q0 -16 -5 -44t-12.5 -61.5t-16.5 -69t-16.5 -67.5t-12.5 -56.5t-5 -35.5q0 -38 54 -38h44l-18 -99h-67q-58 0 -92.5 30t-34.5 87q0 27 11 75t24.5 99t24.5 95.5t11 63.5z" />
    <glyph glyph-name="bar" unicode="|" horiz-adv-x="324" 
d="M309 801l-162 -914h-114l162 914h114z" />
    <glyph glyph-name="braceright" unicode="}" horiz-adv-x="516" 
d="M400 331q-49 -5 -78.5 -29t-36.5 -63q-5 -29 -8.5 -64t-6.5 -72t-7 -73t-10 -67q-13 -73 -62.5 -112t-115.5 -39h-67l18 99h44q32 0 50 14.5t23 46.5q5 26 8.5 59.5t6.5 69.5t7 73t10 69q9 51 39.5 85t87.5 45l1 2q-54 11 -72 45t-10 85q6 32 15 69t18 73t17.5 69.5
t13.5 59.5q6 32 -7 46.5t-45 14.5h-44l17 99h67q66 0 102 -39t23 -112q-6 -31 -15 -67.5t-18.5 -73t-18.5 -72t-14 -63.5q-7 -39 14 -63t69 -29z" />
    <glyph glyph-name="asciitilde" unicode="~" horiz-adv-x="553" 
d="M26 238q31 88 79.5 126.5t108.5 38.5q30 0 50.5 -10t37.5 -22.5t33.5 -22.5t38.5 -10q24 0 46.5 15.5t32.5 47.5h83q-30 -87 -79.5 -126t-109.5 -39q-30 0 -50 10t-37 22.5t-33.5 22.5t-38.5 10q-25 0 -47 -16t-33 -47h-82z" />
    <glyph glyph-name="uni00A0" unicode="&#xa0;" horiz-adv-x="300" 
 />
    <glyph glyph-name="exclamdown" unicode="&#xa1;" horiz-adv-x="361" 
d="M168 -135h-121l99 485h95zM143 494q5 31 30 52t55 21q31 0 48 -21t12 -52t-30 -52t-56 -21q-30 0 -47 21t-12 52z" />
    <glyph glyph-name="cent" unicode="&#xa2;" horiz-adv-x="690" 
d="M544 174q-10 -35 -31.5 -65t-52 -53t-69 -37.5t-82.5 -18.5l-15 -88h-65l15 87q-56 5 -95 27t-62 57t-29.5 80t2.5 96t31.5 96t57 80t81.5 57.5t106 27.5l15 87h65l-15 -87q43 -4 76 -19t55 -38t33 -53t9 -65h-106q-5 37 -31.5 59.5t-83.5 22.5q-72 0 -121.5 -44.5
t-63.5 -123.5t20 -123t106 -44q57 0 91.5 22.5t52.5 59.5h106z" />
    <glyph glyph-name="sterling" unicode="&#xa3;" horiz-adv-x="646" 
d="M143 503q9 51 33 91.5t59 68.5t79 43t94 15q57 0 95 -17.5t59.5 -46.5t28 -67.5t-0.5 -81.5h-104q4 25 2 46.5t-13 37t-31 24.5t-52 9q-25 0 -48 -7t-42 -22.5t-32.5 -40t-19.5 -58.5q-5 -32 -3.5 -60.5t5.5 -55.5h195l-14 -79h-171q0 -21 -3 -43q-16 -96 -97 -168h360
l-16 -93h-463l-9 62q23 21 42 41.5t33.5 44t25 51.5t16.5 63q4 22 3 42h-110l14 79h85q-4 25 -5.5 54t5.5 68z" />
    <glyph glyph-name="currency" unicode="&#xa4;" horiz-adv-x="548" 
d="M384 377q5 28 0.5 49t-15 35t-26.5 21t-35 7q-38 0 -71 -27.5t-43 -84.5q-5 -28 -1 -48.5t14 -34.5t25.5 -21t34.5 -7q18 0 37 7t35 21t28 34.5t17 48.5zM364 225q-50 -26 -109 -26q-58 0 -96 25l-71 -60l-42 51l69 59q-22 42 -11 103q5 31 18 57.5t31 47.5l-49 59l60 51
l51 -62q47 25 105 25t98 -25l73 62l41 -51l-70 -60q23 -45 13 -104q-5 -30 -18 -56t-31 -47l48 -59l-59 -51z" />
    <glyph glyph-name="yen" unicode="&#xa5;" horiz-adv-x="605" 
d="M218 311l-168 2l14 82h126l-104 300h127l100 -339l220 339h128l-209 -300h126l-14 -82l-170 -2l-41 -59l-5 -30h199l-14 -82h-200l-25 -140h-114l25 140h-200l14 82h201l5 30z" />
    <glyph glyph-name="brokenbar" unicode="&#xa6;" horiz-adv-x="324" 
d="M216 275l-69 -388h-114l69 388h114zM126 413l69 388h114l-69 -388h-114z" />
    <glyph glyph-name="section" unicode="&#xa7;" horiz-adv-x="578" 
d="M116 534q6 34 26 64t51.5 52.5t74 36t92.5 13.5q45 0 81.5 -11t61 -32t35 -51.5t3.5 -70.5h-114q4 38 -14.5 62t-66.5 24t-77.5 -19.5t-36.5 -57.5q-3 -18 1.5 -31t20 -25.5t44 -25.5t72.5 -30q43 -17 75.5 -35.5t53 -40.5t28 -49t1.5 -63q-9 -52 -46 -93t-104 -67
q36 -23 55 -52.5t11 -77.5q-6 -34 -26 -64t-51.5 -52.5t-73.5 -36t-92 -13.5q-45 0 -81.5 11t-61 32t-35 51.5t-3.5 70.5h114q-4 -38 14.5 -62t66.5 -24t77 19.5t36 57.5q3 17 -1.5 30.5t-20 26t-43.5 25.5t-72 30q-87 33 -129 75.5t-30 112.5q10 54 47.5 95.5t103.5 64.5
q-36 23 -55.5 53t-11.5 77zM411 244q8 45 -22.5 74.5t-90.5 29.5q-62 0 -101.5 -31t-47.5 -73t22.5 -73t92.5 -31q30 0 55.5 8.5t44.5 22.5t31 33t16 40z" />
    <glyph glyph-name="dieresis" unicode="&#xa8;" horiz-adv-x="312" 
d="M128 620q-23 0 -37 14t-14 35q0 29 21.5 50t50.5 21q22 0 36 -14t14 -35q0 -15 -6 -27.5t-16 -22.5t-23 -15.5t-26 -5.5zM300 620q-23 0 -37 14t-14 35q0 29 21.5 50t50.5 21q22 0 36 -14t14 -35q0 -15 -6 -27.5t-16 -22.5t-23 -15.5t-26 -5.5z" />
    <glyph glyph-name="copyright" unicode="&#xa9;" horiz-adv-x="789" 
d="M467 704q77 0 136.5 -26t97.5 -73.5t52 -113t0 -143.5t-51 -144t-91 -113t-122.5 -73.5t-146.5 -26.5t-137.5 26.5t-97.5 73.5t-51.5 113t0.5 144t51 143.5t91 113t122.5 73.5t146.5 26zM460 659q-69 0 -128.5 -22t-105.5 -62.5t-77 -98t-43 -128.5q-12 -70 -1.5 -127.5
t42 -98.5t83 -63.5t120.5 -22.5t128 22.5t105 63.5t77 98.5t43 127.5q12 71 1.5 128.5t-42 98t-82.5 62.5t-120 22zM442 578q78 0 125.5 -38.5t53.5 -108.5h-104q-11 66 -89 66q-52 0 -91 -36.5t-52 -111.5t13 -112t78 -37q42 0 68.5 17.5t43.5 48.5h104q-15 -32 -38.5 -59
t-53 -46.5t-65 -30.5t-74.5 -11q-47 0 -83.5 16t-60.5 46t-33 72.5t0 95.5q9 52 33.5 94.5t59 72.5t77 46t88.5 16z" />
    <glyph glyph-name="ordfeminine" unicode="&#xaa;" horiz-adv-x="456" 
d="M73 530q7 40 26 73t45.5 56.5t59.5 36.5t68 13q48 0 76 -19t39 -48l10 61h89l-61 -350h-89l10 61q-20 -29 -54.5 -48t-82.5 -19q-35 0 -63 13.5t-47 38t-26 58t0 73.5zM366 528q5 27 0.5 48t-16 35t-28.5 21.5t-37 7.5t-39.5 -7t-36 -21.5t-28.5 -35t-16 -47.5
q-5 -27 0 -48t16.5 -35.5t28.5 -22t36 -7.5q41 0 75.5 29t44.5 83z" />
    <glyph glyph-name="guillemotleft" unicode="&#xab;" horiz-adv-x="489" 
d="M216 120h-110l-61 175l123 175h110l-127 -175zM408 120h-110l-61 175l123 175h110l-127 -175z" />
    <glyph glyph-name="logicalnot" unicode="&#xac;" horiz-adv-x="748" 
d="M66 435h653l-40 -227h-114l24 138h-539z" />
    <glyph glyph-name="uni00AD" unicode="&#xad;" horiz-adv-x="585" 
d="M108 410h411l-17 -96h-411z" />
    <glyph glyph-name="registered" unicode="&#xae;" horiz-adv-x="517" 
d="M327 659q-75 0 -125 -45t-63 -118t21 -118t109 -45q36 0 67.5 12t56.5 33.5t41.5 51.5t22.5 66q13 73 -22 118t-108 45zM261 287q-46 0 -81.5 15.5t-58.5 43t-31.5 66t-0.5 84.5t30 84t55 66t74 43.5t87 15.5q45 0 80.5 -15.5t58 -43.5t31.5 -66t1 -84t-30.5 -84.5
t-55 -66t-73.5 -43t-86 -15.5zM397 536q-4 -23 -18 -39t-34 -24l38 -82h-76l-30 75h-7l-14 -75h-63l38 215h101q35 0 52.5 -19t12.5 -51zM284 548l-5 -29h33q17 0 20 15q2 14 -15 14h-33z" />
    <glyph glyph-name="macron" unicode="&#xaf;" horiz-adv-x="386" 
d="M85 720h366l-15 -85h-366z" />
    <glyph glyph-name="degree" unicode="&#xb0;" horiz-adv-x="427" 
d="M69 525q7 40 27 73t48.5 56t65 35.5t76.5 12.5t72 -12.5t52.5 -35.5t28.5 -56t1 -73q-7 -41 -27 -73.5t-49.5 -56t-66 -36t-76.5 -12.5q-41 0 -72 12.5t-51 36t-28 56t-1 73.5zM349 525q5 28 0.5 49t-15 35t-26.5 21t-35 7q-37 0 -70.5 -27.5t-43.5 -84.5t12.5 -84
t60.5 -27q37 0 72 27.5t45 83.5z" />
    <glyph glyph-name="plusminus" unicode="&#xb1;" horiz-adv-x="717" 
d="M471 621l-26 -150h199l-18 -102h-199l-26 -144h200l-18 -101h-509l18 101h200l26 144h-201l18 102h201l26 150h109z" />
    <glyph glyph-name="twosuperior" unicode="&#xb2;" horiz-adv-x="340" 
d="M82 605q11 48 51 77t103 29q32 0 55.5 -9.5t38 -25.5t20 -36.5t1.5 -42.5q-7 -38 -34.5 -65.5t-82.5 -60.5l-81 -47h168l-13 -72h-269l12 66l122 79q34 23 56 45.5t27 50.5q4 23 -6 36.5t-29 13.5t-31.5 -10.5t-17.5 -27.5h-90z" />
    <glyph glyph-name="threesuperior" unicode="&#xb3;" horiz-adv-x="342" 
d="M78 609q11 45 55.5 73.5t106.5 28.5q29 0 53 -8.5t40.5 -22.5t24 -33t3.5 -41q-5 -32 -26.5 -50.5t-47.5 -26.5l-1 -2q24 -9 39.5 -29t10.5 -52q-4 -21 -18 -39t-35.5 -31.5t-49.5 -21t-61 -7.5q-63 0 -97.5 29t-27.5 81h88q0 -44 47 -44q23 0 39.5 12t20.5 33
q4 20 -9 31.5t-37 11.5h-37l10 58h34q24 0 40.5 10.5t20.5 31.5q4 20 -7.5 31.5t-35.5 11.5q-23 0 -37 -9.5t-21 -25.5h-85z" />
    <glyph glyph-name="acute" unicode="&#xb4;" horiz-adv-x="241" 
d="M320 796l-17 -97l-241 -109l15 84z" />
    <glyph glyph-name="uni00B5" unicode="&#xb5;" horiz-adv-x="654" 
d="M527 0h-114l15 86q-35 -48 -85 -71t-107 -23q-29 0 -53.5 7.5t-42.5 24.5l-50 -286h-113l143 813h113l-54 -308q-14 -76 17 -114.5t94 -38.5q61 0 105 35.5t59 107.5l56 318h114z" />
    <glyph glyph-name="paragraph" unicode="&#xb6;" horiz-adv-x="630" 
d="M626 695l-123 -695h-101l107 606h-67l-107 -606h-101l50 282h-14q-62 0 -104 16.5t-66 44.5t-31.5 65.5t0.5 79.5q7 42 27.5 80t55 66t82 44.5t109.5 16.5h283z" />
    <glyph glyph-name="periodcentered" unicode="&#xb7;" horiz-adv-x="244" 
d="M157 335q-5 -31 -30 -52t-55 -21q-31 0 -48 21t-12 52t30 52t56 21q30 0 47 -21t12 -52z" />
    <glyph glyph-name="cedilla" unicode="&#xb8;" horiz-adv-x="279" 
d="M79 -48q28 0 50.5 -6.5t37.5 -20t21.5 -33t1.5 -45.5q-10 -51 -50.5 -80t-95.5 -29h-132l13 72h109q26 0 42 7t20 30q5 23 -9 30t-40 7h-55l22 123h75z" />
    <glyph glyph-name="onesuperior" unicode="&#xb9;" horiz-adv-x="209" 
d="M134 636h-54l12 68h143l-62 -352h-89z" />
    <glyph glyph-name="ordmasculine" unicode="&#xba;" horiz-adv-x="444" 
d="M72 528q7 42 27 75.5t49.5 57t66 36t77.5 12.5t74 -12.5t55 -36t31 -57t2 -75.5q-7 -41 -27.5 -74.5t-50 -57t-66.5 -36.5t-77 -13q-41 0 -74 13t-54.5 36.5t-30.5 57t-2 74.5zM362 527q5 29 0.5 51t-16.5 36.5t-29 21.5t-36 7t-38 -7t-34.5 -21.5t-27.5 -36.5t-17 -51
q-5 -28 -0.5 -49t16 -35.5t28 -21.5t36.5 -7q19 0 38 7t35 21.5t28 35.5t17 49z" />
    <glyph glyph-name="guillemotright" unicode="&#xbb;" horiz-adv-x="489" 
d="M211 120l126 175l-64 175h109l62 -175l-124 -175h-109zM19 120l126 175l-64 175h109l62 -175l-124 -175h-109z" />
    <glyph glyph-name="onequarter" unicode="&#xbc;" horiz-adv-x="682" 
d="M517 696h107l-505 -696h-108zM613 123l-10 -56h-45l-12 -67h-89l12 67h-186l9 50l193 236h124l-41 -230h45zM481 123l29 162l-128 -162h99zM148 636h-54l12 68h143l-62 -352h-89z" />
    <glyph glyph-name="onehalf" unicode="&#xbd;" horiz-adv-x="701" 
d="M505 696h108l-494 -696h-108zM148 636h-54l12 68h143l-62 -352h-89zM441 252q11 48 51 77t103 29q32 0 55.5 -9.5t38 -25.5t20 -36.5t1.5 -42.5q-7 -38 -34.5 -65.5t-82.5 -60.5l-81 -47h168l-13 -72h-269l12 66l122 79q34 23 56 45.5t27 50.5q4 23 -6 36.5t-29 13.5
t-31.5 -10.5t-17.5 -27.5h-90z" />
    <glyph glyph-name="threequarters" unicode="&#xbe;" horiz-adv-x="742" 
d="M612 696h107l-525 -696h-107zM686 123l-10 -56h-45l-12 -67h-89l12 67h-186l9 50l193 236h124l-41 -230h45zM554 123l29 162l-128 -162h99zM93 609q11 45 55.5 73.5t106.5 28.5q29 0 53 -8.5t40.5 -22.5t24 -33t3.5 -41q-5 -32 -26.5 -50.5t-47.5 -26.5l-1 -2
q24 -9 39.5 -29t10.5 -52q-4 -21 -18 -39t-35.5 -31.5t-49.5 -21t-61 -7.5q-63 0 -97.5 29t-27.5 81h88q0 -44 47 -44q23 0 39.5 12t20.5 33q4 20 -9 31.5t-37 11.5h-37l10 58h34q24 0 40.5 10.5t20.5 31.5q4 20 -7.5 31.5t-35.5 11.5q-23 0 -37 -9.5t-21 -25.5h-85z" />
    <glyph glyph-name="questiondown" unicode="&#xbf;" horiz-adv-x="538" 
d="M462 55q-8 -45 -30.5 -83t-56.5 -65.5t-77.5 -42.5t-94.5 -15q-50 0 -89 14.5t-64 41.5t-34.5 65.5t-0.5 87.5q9 53 33.5 91.5t60.5 63t81 36.5t95 12l18 79h99l-23 -157h-33q-42 0 -79.5 -5t-67 -18.5t-49 -38t-26.5 -63.5q-9 -54 16 -83.5t79 -29.5t90 28t46 82h107z
M308 488q5 31 30 52t55 21q31 0 48 -21t12 -52t-30 -52t-56 -21q-30 0 -47 21t-12 52z" />
    <glyph glyph-name="Agrave" unicode="&#xc0;" horiz-adv-x="697" 
d="M467 142h-291l-75 -142h-119l372 696h132l126 -696h-120zM395 558l-172 -327h229zM382 928l145 -112l-55 -64l-150 106z" />
    <glyph glyph-name="Aacute" unicode="&#xc1;" horiz-adv-x="697" 
d="M467 142h-291l-75 -142h-119l372 696h132l126 -696h-120zM395 558l-172 -327h229zM553 854l-178 -102l-42 70l178 105z" />
    <glyph glyph-name="Acircumflex" unicode="&#xc2;" horiz-adv-x="697" 
d="M467 142h-291l-75 -142h-119l372 696h132l126 -696h-120zM395 558l-172 -327h229zM581 801l-55 -59l-85 63l-117 -63l-43 59l172 98z" />
    <glyph glyph-name="Atilde" unicode="&#xc3;" horiz-adv-x="697" 
d="M467 142h-291l-75 -142h-119l372 696h132l126 -696h-120zM395 558l-172 -327h229zM286 764q10 54 40 83.5t70 29.5q19 0 33.5 -7t26.5 -15q8 -5 17 -9.5t20 -4.5q23 0 30 34h70q-11 -57 -40 -85t-71 -28q-20 0 -34 7.5t-26 15.5q-9 5 -18 9.5t-19 4.5q-23 0 -29 -35h-70z
" />
    <glyph glyph-name="Adieresis" unicode="&#xc4;" horiz-adv-x="697" 
d="M467 142h-291l-75 -142h-119l372 696h132l126 -696h-120zM347 765q-23 0 -37 14t-14 35q0 29 21.5 50t50.5 21q22 0 36 -14t14 -35q0 -15 -6 -27.5t-16 -22.5t-23 -15.5t-26 -5.5zM519 765q-23 0 -37 14t-14 35q0 29 21.5 50t50.5 21q22 0 36 -14t14 -35q0 -15 -6 -27.5
t-16 -22.5t-23 -15.5t-26 -5.5zM395 558l-172 -327h229z" />
    <glyph glyph-name="Aring" unicode="&#xc5;" horiz-adv-x="697" 
d="M467 142h-291l-75 -142h-119l372 696h132l126 -696h-120zM501 860q5 23 -8 37t-35 14q-21 0 -38 -14t-22 -37q-4 -23 8.5 -37t33.5 -14q22 0 39.5 14t21.5 37zM340 859q9 51 46.5 80.5t82.5 29.5q46 0 72 -29.5t17 -80.5t-45.5 -80t-82.5 -29q-45 0 -72 29t-18 80z
M395 558l-172 -327h229z" />
    <glyph glyph-name="AE" unicode="&#xc6;" horiz-adv-x="921" 
d="M251 231h210l68 386zM641 607l-37 -211h239l-15 -88h-239l-39 -219h269l-16 -89h-383l25 142h-259l-102 -142h-124l506 696h460l-16 -89h-269z" />
    <glyph glyph-name="Ccedilla" unicode="&#xc7;" horiz-adv-x="773" 
d="M47 349q14 78 53.5 143t95.5 112.5t125 73.5t143 26q54 0 101.5 -13.5t85 -40t63.5 -65.5t37 -90h-137q-19 54 -62 79.5t-106 25.5q-52 0 -98.5 -17.5t-84 -50.5t-63.5 -79.5t-36 -103.5t-0.5 -103.5t35 -79.5t66 -51t92.5 -18q63 0 115.5 25.5t89.5 79.5h137
q-54 -94 -139 -146.5t-185 -60.5l-8 -43q28 0 50.5 -6.5t37.5 -20t21.5 -33t1.5 -45.5q-10 -51 -50.5 -80t-95.5 -29h-132l13 72h109q26 0 42 7t20 30q5 23 -9 30t-40 7h-55l20 112q-65 7 -117.5 35.5t-87 74.5t-48 107.5t-0.5 135.5z" />
    <glyph glyph-name="Egrave" unicode="&#xc8;" horiz-adv-x="524" 
d="M514 607h-270l-37 -211h240l-15 -88h-240l-39 -219h270l-16 -89h-384l123 696h384zM291 928l145 -112l-55 -64l-150 106z" />
    <glyph glyph-name="Eacute" unicode="&#xc9;" horiz-adv-x="524" 
d="M514 607h-270l-37 -211h240l-15 -88h-240l-39 -219h270l-16 -89h-384l123 696h384zM495 854l-178 -102l-42 70l178 105z" />
    <glyph glyph-name="Ecircumflex" unicode="&#xca;" horiz-adv-x="524" 
d="M514 607h-270l-37 -211h240l-15 -88h-240l-39 -219h270l-16 -89h-384l123 696h384zM498 801l-55 -59l-85 63l-117 -63l-43 59l172 98z" />
    <glyph glyph-name="Edieresis" unicode="&#xcb;" horiz-adv-x="524" 
d="M514 607h-270l-37 -211h240l-15 -88h-240l-39 -219h270l-16 -89h-384l123 696h384zM260 765q-23 0 -37 14t-14 35q0 29 21.5 50t50.5 21q22 0 36 -14t14 -35q0 -15 -6 -27.5t-16 -22.5t-23 -15.5t-26 -5.5zM432 765q-23 0 -37 14t-14 35q0 29 21.5 50t50.5 21
q22 0 36 -14t14 -35q0 -15 -6 -27.5t-16 -22.5t-23 -15.5t-26 -5.5z" />
    <glyph glyph-name="Igrave" unicode="&#xcc;" horiz-adv-x="264" 
d="M146 695h114l-123 -695h-114zM161 928l145 -112l-55 -64l-150 106z" />
    <glyph glyph-name="Iacute" unicode="&#xcd;" horiz-adv-x="264" 
d="M146 695h114l-123 -695h-114zM352 854l-178 -102l-42 70l178 105z" />
    <glyph glyph-name="Icircumflex" unicode="&#xce;" horiz-adv-x="264" 
d="M146 695h114l-123 -695h-114zM354 741l-127 86l-159 -86l16 89l158 83l128 -83z" />
    <glyph glyph-name="Idieresis" unicode="&#xcf;" horiz-adv-x="264" 
d="M146 695h114l-123 -695h-114zM130 765q-23 0 -37 14t-14 35q0 29 21.5 50t50.5 21q22 0 36 -14t14 -35q0 -15 -6 -27.5t-16 -22.5t-23 -15.5t-26 -5.5zM302 765q-23 0 -37 14t-14 35q0 29 21.5 50t50.5 21q22 0 36 -14t14 -35q0 -15 -6 -27.5t-16 -22.5t-23 -15.5
t-26 -5.5z" />
    <glyph glyph-name="Eth" unicode="&#xd0;" horiz-adv-x="720" 
d="M385 695q84 0 147.5 -24.5t103.5 -70t54.5 -110t0.5 -145.5q-14 -80 -51.5 -144t-93.5 -108.5t-128 -68.5t-156 -24h-228l52 293h-77l19 105h76l53 297h228zM278 87q61 0 111 18t87.5 51.5t62 81.5t35.5 107q21 119 -31 188.5t-174 69.5h-113l-36 -205h178l-19 -105h-178
l-36 -206h113z" />
    <glyph glyph-name="Ntilde" unicode="&#xd1;" horiz-adv-x="721" 
d="M717 696l-123 -696h-114l-251 519l-92 -519h-114l123 696h114l252 -518l91 518h114zM280 753q18 60 53 88.5t80 28.5q20 0 34 -7t25.5 -15t22.5 -15t26 -7q17 0 30.5 10t20.5 32h64q-19 -60 -54 -88.5t-80 -28.5q-20 0 -34 7t-25.5 15.5t-22.5 15.5t-26 7q-37 0 -50 -43
h-64z" />
    <glyph glyph-name="Ograve" unicode="&#xd2;" horiz-adv-x="784" 
d="M757 412q0 -91 -31 -167.5t-86.5 -132.5t-131 -87.5t-165.5 -31.5q-67 0 -121.5 21.5t-93.5 60.5t-60 92.5t-21 118.5q0 90 31 167t86.5 132.5t131 87t164.5 31.5q67 0 122 -21.5t94 -60.5t60 -92.5t21 -117.5zM165 293q0 -91 50.5 -144t143.5 -53q63 0 114.5 25t88.5 67
t57 98t20 118q0 91 -50.5 143.5t-144.5 52.5q-63 0 -114.5 -24.5t-88 -66.5t-56.5 -97.5t-20 -118.5zM407 928l145 -112l-55 -64l-150 106z" />
    <glyph glyph-name="Oacute" unicode="&#xd3;" horiz-adv-x="784" 
d="M757 412q0 -91 -31 -167.5t-86.5 -132.5t-131 -87.5t-165.5 -31.5q-67 0 -121.5 21.5t-93.5 60.5t-60 92.5t-21 118.5q0 90 31 167t86.5 132.5t131 87t164.5 31.5q67 0 122 -21.5t94 -60.5t60 -92.5t21 -117.5zM165 293q0 -91 50.5 -144t143.5 -53q63 0 114.5 25t88.5 67
t57 98t20 118q0 91 -50.5 143.5t-144.5 52.5q-63 0 -114.5 -24.5t-88 -66.5t-56.5 -97.5t-20 -118.5zM638 854l-178 -102l-42 70l178 105z" />
    <glyph glyph-name="Ocircumflex" unicode="&#xd4;" horiz-adv-x="784" 
d="M757 412q0 -91 -31 -167.5t-86.5 -132.5t-131 -87.5t-165.5 -31.5q-67 0 -121.5 21.5t-93.5 60.5t-60 92.5t-21 118.5q0 90 31 167t86.5 132.5t131 87t164.5 31.5q67 0 122 -21.5t94 -60.5t60 -92.5t21 -117.5zM165 293q0 -91 50.5 -144t143.5 -53q63 0 114.5 25t88.5 67
t57 98t20 118q0 91 -50.5 143.5t-144.5 52.5q-63 0 -114.5 -24.5t-88 -66.5t-56.5 -97.5t-20 -118.5zM634 801l-55 -59l-85 63l-117 -63l-43 59l172 98z" />
    <glyph glyph-name="Otilde" unicode="&#xd5;" horiz-adv-x="784" 
d="M757 412q0 -91 -31 -167.5t-86.5 -132.5t-131 -87.5t-165.5 -31.5q-67 0 -121.5 21.5t-93.5 60.5t-60 92.5t-21 118.5q0 90 31 167t86.5 132.5t131 87t164.5 31.5q67 0 122 -21.5t94 -60.5t60 -92.5t21 -117.5zM165 293q0 -91 50.5 -144t143.5 -53q63 0 114.5 25t88.5 67
t57 98t20 118q0 91 -50.5 143.5t-144.5 52.5q-63 0 -114.5 -24.5t-88 -66.5t-56.5 -97.5t-20 -118.5zM333 764q10 54 40 83.5t70 29.5q19 0 33.5 -7t26.5 -15q8 -5 17 -9.5t20 -4.5q23 0 30 34h70q-11 -57 -40 -85t-71 -28q-20 0 -34 7.5t-26 15.5q-9 5 -18 9.5t-19 4.5
q-23 0 -29 -35h-70z" />
    <glyph glyph-name="Odieresis" unicode="&#xd6;" horiz-adv-x="784" 
d="M757 412q0 -91 -31 -167.5t-86.5 -132.5t-131 -87.5t-165.5 -31.5q-67 0 -121.5 21.5t-93.5 60.5t-60 92.5t-21 118.5q0 90 31 167t86.5 132.5t131 87t164.5 31.5q67 0 122 -21.5t94 -60.5t60 -92.5t21 -117.5zM165 293q0 -91 50.5 -144t143.5 -53q63 0 114.5 25t88.5 67
t57 98t20 118q0 91 -50.5 143.5t-144.5 52.5q-63 0 -114.5 -24.5t-88 -66.5t-56.5 -97.5t-20 -118.5zM387 773q-23 0 -37 14t-14 35q0 29 21.5 50t50.5 21q22 0 36 -14t14 -35q0 -15 -6 -27.5t-16 -22.5t-23 -15.5t-26 -5.5zM559 773q-23 0 -37 14t-14 35q0 29 21.5 50
t50.5 21q22 0 36 -14t14 -35q0 -15 -6 -27.5t-16 -22.5t-23 -15.5t-26 -5.5z" />
    <glyph glyph-name="multiply" unicode="&#xd7;" horiz-adv-x="699" 
d="M109 213l179 152l-122 149l86 73l122 -149l176 149l62 -75l-176 -149l125 -152l-86 -73l-125 152l-179 -152z" />
    <glyph glyph-name="Oslash" unicode="&#xd8;" horiz-adv-x="784" 
d="M757 412q0 -91 -31 -167.5t-86.5 -132.5t-131 -87.5t-165.5 -31.5q-63 0 -115 19t-90 54l-73 -66h-91l123 112q-24 36 -37 79.5t-13 94.5q0 90 31 167t86.5 132.5t131 87t164.5 31.5q64 0 116 -19t91 -54l71 65h91l-122 -111q24 -35 37 -78.5t13 -94.5zM165 293
q0 -58 21 -100l395 360q-50 47 -137 47q-63 0 -114.5 -24.5t-88 -66.5t-56.5 -97.5t-20 -118.5zM359 96q63 0 114.5 25t88.5 67t57 98t20 118q0 58 -21 100l-396 -361q50 -47 137 -47z" />
    <glyph glyph-name="Ugrave" unicode="&#xd9;" horiz-adv-x="690" 
d="M145 695h114l-78 -441q-14 -81 21.5 -120t107.5 -39q73 0 122.5 39t63.5 120l78 441h114l-78 -441q-12 -66 -43 -115.5t-74 -81.5t-95 -48t-107 -16q-54 0 -100.5 16t-78 48t-44.5 81.5t-1 115.5zM358 928l145 -112l-55 -64l-150 106z" />
    <glyph glyph-name="Uacute" unicode="&#xda;" horiz-adv-x="690" 
d="M145 695h114l-78 -441q-14 -81 21.5 -120t107.5 -39q73 0 122.5 39t63.5 120l78 441h114l-78 -441q-12 -66 -43 -115.5t-74 -81.5t-95 -48t-107 -16q-54 0 -100.5 16t-78 48t-44.5 81.5t-1 115.5zM593 854l-178 -102l-42 70l178 105z" />
    <glyph glyph-name="Ucircumflex" unicode="&#xdb;" horiz-adv-x="690" 
d="M145 695h114l-78 -441q-14 -81 21.5 -120t107.5 -39q73 0 122.5 39t63.5 120l78 441h114l-78 -441q-12 -66 -43 -115.5t-74 -81.5t-95 -48t-107 -16q-54 0 -100.5 16t-78 48t-44.5 81.5t-1 115.5zM567 741l-127 86l-159 -86l16 89l158 83l128 -83z" />
    <glyph glyph-name="Udieresis" unicode="&#xdc;" horiz-adv-x="690" 
d="M145 695h114l-78 -441q-14 -81 21.5 -120t107.5 -39q73 0 122.5 39t63.5 120l78 441h114l-78 -441q-12 -66 -43 -115.5t-74 -81.5t-95 -48t-107 -16q-54 0 -100.5 16t-78 48t-44.5 81.5t-1 115.5zM343 765q-23 0 -37 14t-14 35q0 29 21.5 50t50.5 21q22 0 36 -14t14 -35
q0 -15 -6 -27.5t-16 -22.5t-23 -15.5t-26 -5.5zM515 765q-23 0 -37 14t-14 35q0 29 21.5 50t50.5 21q22 0 36 -14t14 -35q0 -15 -6 -27.5t-16 -22.5t-23 -15.5t-26 -5.5z" />
    <glyph glyph-name="Yacute" unicode="&#xdd;" horiz-adv-x="605" 
d="M86 695h127l100 -339l220 339h128l-308 -443l-45 -252h-114l45 252zM533 854l-178 -102l-42 70l178 105z" />
    <glyph glyph-name="Thorn" unicode="&#xde;" horiz-adv-x="595" 
d="M304 231q67 0 103.5 31.5t46.5 85.5q9 54 -16 86t-92 32h-126l-42 -235h126zM571 348q-7 -37 -26.5 -74t-54 -66t-84.5 -47.5t-118 -18.5h-126l-25 -142h-114l123 696h113l-25 -141h127q62 0 105.5 -16.5t69 -44.5t34 -66t1.5 -80z" />
    <glyph glyph-name="germandbls" unicode="&#xdf;" horiz-adv-x="682" 
d="M105 562q7 43 28 81t56 67t85 46t115 17q52 0 90 -12t63 -32.5t37.5 -47t12.5 -55.5q0 -35 -13 -63.5t-32 -51.5t-42 -41t-42 -33.5t-32 -29t-13 -25.5q0 -7 3 -13t13 -13t28.5 -15t48.5 -19q63 -22 89.5 -55t26.5 -90q0 -42 -17.5 -76t-48.5 -59t-73.5 -38.5
t-91.5 -13.5q-94 0 -143 49.5t-39 133.5h116q-6 -43 14 -67.5t65 -24.5q46 0 72 20t26 62q0 24 -17 40.5t-60 31.5q-66 23 -99 50.5t-33 70.5q0 28 13 51t33 43.5t42.5 38.5t42.5 36.5t33 38.5t13 44q0 34 -27.5 52t-76.5 18q-74 0 -109 -34.5t-46 -96.5l-96 -547h-114z" />
    <glyph glyph-name="agrave" unicode="&#xe0;" horiz-adv-x="678" 
d="M34 278q11 64 40.5 116t71.5 89t93 57t105 20q35 0 63 -7.5t49.5 -20t37 -28.5t25.5 -33l14 80h115l-97 -551h-115l15 82q-16 -18 -38 -34t-48.5 -29t-57.5 -20.5t-65 -7.5q-54 0 -97 21t-71.5 59t-39.5 90.5t0 116.5zM485 276q8 44 0 78.5t-27 58t-47 36t-60 12.5
t-64 -12t-60 -35t-48 -57t-28 -79t0 -80t27 -59t47 -36.5t60 -12.5t64.5 12.5t60 36t47.5 58t28 79.5zM341 799l145 -112l-55 -64l-150 106z" />
    <glyph glyph-name="aacute" unicode="&#xe1;" horiz-adv-x="678" 
d="M34 278q11 64 40.5 116t71.5 89t93 57t105 20q35 0 63 -7.5t49.5 -20t37 -28.5t25.5 -33l14 80h115l-97 -551h-115l15 82q-16 -18 -38 -34t-48.5 -29t-57.5 -20.5t-65 -7.5q-54 0 -97 21t-71.5 59t-39.5 90.5t0 116.5zM485 276q8 44 0 78.5t-27 58t-47 36t-60 12.5
t-64 -12t-60 -35t-48 -57t-28 -79t0 -80t27 -59t47 -36.5t60 -12.5t64.5 12.5t60 36t47.5 58t28 79.5zM561 725l-178 -102l-42 70l178 105z" />
    <glyph glyph-name="acircumflex" unicode="&#xe2;" horiz-adv-x="678" 
d="M34 278q11 64 40.5 116t71.5 89t93 57t105 20q35 0 63 -7.5t49.5 -20t37 -28.5t25.5 -33l14 80h115l-97 -551h-115l15 82q-16 -18 -38 -34t-48.5 -29t-57.5 -20.5t-65 -7.5q-54 0 -97 21t-71.5 59t-39.5 90.5t0 116.5zM485 276q8 44 0 78.5t-27 58t-47 36t-60 12.5
t-64 -12t-60 -35t-48 -57t-28 -79t0 -80t27 -59t47 -36.5t60 -12.5t64.5 12.5t60 36t47.5 58t28 79.5zM553 672l-55 -59l-85 63l-117 -63l-43 59l172 98z" />
    <glyph glyph-name="atilde" unicode="&#xe3;" horiz-adv-x="678" 
d="M34 278q11 64 40.5 116t71.5 89t93 57t105 20q35 0 63 -7.5t49.5 -20t37 -28.5t25.5 -33l14 80h115l-97 -551h-115l15 82q-16 -18 -38 -34t-48.5 -29t-57.5 -20.5t-65 -7.5q-54 0 -97 21t-71.5 59t-39.5 90.5t0 116.5zM485 276q8 44 0 78.5t-27 58t-47 36t-60 12.5
t-64 -12t-60 -35t-48 -57t-28 -79t0 -80t27 -59t47 -36.5t60 -12.5t64.5 12.5t60 36t47.5 58t28 79.5zM264 635q10 54 40 83.5t70 29.5q19 0 33.5 -7t26.5 -15q8 -5 17 -9.5t20 -4.5q23 0 30 34h70q-11 -57 -40 -85t-71 -28q-20 0 -34 7.5t-26 15.5q-9 5 -18 9.5t-19 4.5
q-23 0 -29 -35h-70z" />
    <glyph glyph-name="adieresis" unicode="&#xe4;" horiz-adv-x="678" 
d="M34 278q11 64 40.5 116t71.5 89t93 57t105 20q35 0 63 -7.5t49.5 -20t37 -28.5t25.5 -33l14 80h115l-97 -551h-115l15 82q-16 -18 -38 -34t-48.5 -29t-57.5 -20.5t-65 -7.5q-54 0 -97 21t-71.5 59t-39.5 90.5t0 116.5zM485 276q8 44 0 78.5t-27 58t-47 36t-60 12.5
t-64 -12t-60 -35t-48 -57t-28 -79t0 -80t27 -59t47 -36.5t60 -12.5t64.5 12.5t60 36t47.5 58t28 79.5zM311 620q-23 0 -37 14t-14 35q0 29 21.5 50t50.5 21q22 0 36 -14t14 -35q0 -15 -6 -27.5t-16 -22.5t-23 -15.5t-26 -5.5zM483 620q-23 0 -37 14t-14 35q0 29 21.5 50
t50.5 21q22 0 36 -14t14 -35q0 -15 -6 -27.5t-16 -22.5t-23 -15.5t-26 -5.5z" />
    <glyph glyph-name="aring" unicode="&#xe5;" horiz-adv-x="678" 
d="M34 278q11 64 40.5 116t71.5 89t93 57t105 20q35 0 63 -7.5t49.5 -20t37 -28.5t25.5 -33l14 80h115l-97 -551h-115l15 82q-16 -18 -38 -34t-48.5 -29t-57.5 -20.5t-65 -7.5q-54 0 -97 21t-71.5 59t-39.5 90.5t0 116.5zM485 276q8 44 0 78.5t-27 58t-47 36t-60 12.5
t-64 -12t-60 -35t-48 -57t-28 -79t0 -80t27 -59t47 -36.5t60 -12.5t64.5 12.5t60 36t47.5 58t28 79.5zM304 714q9 51 46.5 80.5t82.5 29.5q46 0 72 -29.5t17 -80.5t-45.5 -80t-82.5 -29q-45 0 -72 29t-18 80zM465 715q5 23 -8 37t-35 14q-21 0 -38 -14t-22 -37
q-4 -23 8.5 -37t33.5 -14q22 0 39.5 14t21.5 37z" />
    <glyph glyph-name="ae" unicode="&#xe6;" horiz-adv-x="1085" 
d="M800 464q-31 0 -60.5 -10.5t-55 -29t-45 -45.5t-30.5 -60h326q5 33 -3 60t-26 45.5t-45 29t-61 10.5zM1010 164q-18 -36 -45 -67.5t-62 -55t-77 -37t-90 -13.5q-63 0 -109 26t-68 66l-15 -83h-107l15 83q-38 -38 -91.5 -65t-116.5 -27q-54 0 -98 21t-72.5 59t-39.5 90.5
t0 116.5t40.5 116t72 89t94.5 57t109 20q118 0 171 -87l13 78h107l-13 -78q48 48 98 67.5t110 19.5q57 0 101.5 -20t72 -56t38 -85.5t0.5 -107.5q-2 -13 -5.5 -26.5t-8.5 -27.5h-439q-2 -37 9 -65t30.5 -47t45.5 -28.5t53 -9.5q57 0 95 22t58 55h124zM151 278q-8 -45 0 -80
t27 -59t47 -36.5t60 -12.5t64.5 12.5t60 36t47.5 58t28 79.5q8 44 0 78.5t-27 58t-47 36t-60 12.5t-64 -12t-60 -35t-48 -57t-28 -79z" />
    <glyph glyph-name="ccedilla" unicode="&#xe7;" horiz-adv-x="600" 
d="M34 276q11 64 40 116.5t71.5 90t96 57.5t112.5 20q103 0 158.5 -47.5t63.5 -135.5h-123q-8 40 -36.5 63.5t-79.5 23.5q-69 0 -119.5 -48.5t-66.5 -139.5t17.5 -140t102.5 -49q51 0 87 22t59 65h123q-35 -75 -98.5 -124t-153.5 -57l-7 -41q28 0 50.5 -6.5t37.5 -20
t21.5 -33t1.5 -45.5q-10 -51 -50.5 -80t-95.5 -29h-132l13 72h109q26 0 42 7t20 30q5 23 -9 30t-40 7h-55l20 110q-50 6 -88 29t-62 59.5t-32.5 85.5t2.5 108z" />
    <glyph glyph-name="egrave" unicode="&#xe8;" horiz-adv-x="617" 
d="M337 464q-60 0 -109 -38t-68 -107h306q5 34 -2.5 61t-25 45.5t-43.5 28.5t-58 10zM542 164q-18 -36 -45.5 -67.5t-63.5 -55t-79.5 -37t-94.5 -13.5q-59 0 -106 20t-77.5 57.5t-42 90t0.5 117.5t41.5 117.5t72 89.5t96.5 57t115 20q59 0 105 -19.5t75 -55t40 -85t1 -109.5
q-2 -13 -5.5 -26.5t-8.5 -27.5h-421q-8 -70 29.5 -110t101.5 -40q54 0 88 22.5t55 54.5h123zM317 799l145 -112l-55 -64l-150 106z" />
    <glyph glyph-name="eacute" unicode="&#xe9;" horiz-adv-x="617" 
d="M337 464q-60 0 -109 -38t-68 -107h306q5 34 -2.5 61t-25 45.5t-43.5 28.5t-58 10zM542 164q-18 -36 -45.5 -67.5t-63.5 -55t-79.5 -37t-94.5 -13.5q-59 0 -106 20t-77.5 57.5t-42 90t0.5 117.5t41.5 117.5t72 89.5t96.5 57t115 20q59 0 105 -19.5t75 -55t40 -85t1 -109.5
q-2 -13 -5.5 -26.5t-8.5 -27.5h-421q-8 -70 29.5 -110t101.5 -40q54 0 88 22.5t55 54.5h123zM531 725l-178 -102l-42 70l178 105z" />
    <glyph glyph-name="ecircumflex" unicode="&#xea;" horiz-adv-x="617" 
d="M337 464q-60 0 -109 -38t-68 -107h306q5 34 -2.5 61t-25 45.5t-43.5 28.5t-58 10zM542 164q-18 -36 -45.5 -67.5t-63.5 -55t-79.5 -37t-94.5 -13.5q-59 0 -106 20t-77.5 57.5t-42 90t0.5 117.5t41.5 117.5t72 89.5t96.5 57t115 20q59 0 105 -19.5t75 -55t40 -85t1 -109.5
q-2 -13 -5.5 -26.5t-8.5 -27.5h-421q-8 -70 29.5 -110t101.5 -40q54 0 88 22.5t55 54.5h123zM529 672l-55 -59l-85 63l-117 -63l-43 59l172 98z" />
    <glyph glyph-name="edieresis" unicode="&#xeb;" horiz-adv-x="617" 
d="M337 464q-60 0 -109 -38t-68 -107h306q5 34 -2.5 61t-25 45.5t-43.5 28.5t-58 10zM542 164q-18 -36 -45.5 -67.5t-63.5 -55t-79.5 -37t-94.5 -13.5q-59 0 -106 20t-77.5 57.5t-42 90t0.5 117.5t41.5 117.5t72 89.5t96.5 57t115 20q59 0 105 -19.5t75 -55t40 -85t1 -109.5
q-2 -13 -5.5 -26.5t-8.5 -27.5h-421q-8 -70 29.5 -110t101.5 -40q54 0 88 22.5t55 54.5h123zM281 620q-23 0 -37 14t-14 35q0 29 21.5 50t50.5 21q22 0 36 -14t14 -35q0 -15 -6 -27.5t-16 -22.5t-23 -15.5t-26 -5.5zM453 620q-23 0 -37 14t-14 35q0 29 21.5 50t50.5 21
q22 0 36 -14t14 -35q0 -15 -6 -27.5t-16 -22.5t-23 -15.5t-26 -5.5z" />
    <glyph glyph-name="igrave" unicode="&#xec;" horiz-adv-x="264" 
d="M120 551h114l-97 -551h-114zM139 799l145 -112l-55 -64l-150 106z" />
    <glyph glyph-name="iacute" unicode="&#xed;" horiz-adv-x="264" 
d="M120 551h114l-97 -551h-114zM322 725l-178 -102l-42 70l178 105z" />
    <glyph glyph-name="icircumflex" unicode="&#xee;" horiz-adv-x="264" 
d="M120 551h114l-97 -551h-114zM328 596l-127 86l-159 -86l16 89l158 83l128 -83z" />
    <glyph glyph-name="idieresis" unicode="&#xef;" horiz-adv-x="264" 
d="M120 551h114l-97 -551h-114zM104 620q-23 0 -37 14t-14 35q0 29 21.5 50t50.5 21q22 0 36 -14t14 -35q0 -15 -6 -27.5t-16 -22.5t-23 -15.5t-26 -5.5zM276 620q-23 0 -37 14t-14 35q0 29 21.5 50t50.5 21q22 0 36 -14t14 -35q0 -15 -6 -27.5t-16 -22.5t-23 -15.5
t-26 -5.5z" />
    <glyph glyph-name="eth" unicode="&#xf0;" horiz-adv-x="636" 
d="M410 675q-27 32 -62 65h116q9 -9 17.5 -18.5t16.5 -19.5l132 41l-10 -61l-86 -27q51 -75 68.5 -158.5t0.5 -179.5q-14 -81 -46.5 -142t-78 -102t-101 -61.5t-116.5 -20.5q-59 0 -106.5 20t-78 57.5t-42.5 90t0 117.5t42.5 117.5t73.5 89.5t95.5 57t108.5 20
q51 0 86 -14.5t63 -42.5q-16 63 -57 125l-130 -40l11 61zM151 276q-8 -47 -1 -82.5t24.5 -59t44.5 -35.5t59 -12q31 0 63.5 12t60.5 35.5t48.5 59t28.5 82.5q8 46 0 81.5t-26.5 59t-46.5 35.5t-60 12t-63.5 -12t-58 -35.5t-46 -59t-27.5 -81.5z" />
    <glyph glyph-name="ntilde" unicode="&#xf1;" horiz-adv-x="649" 
d="M469 308q13 76 -17.5 114.5t-93.5 38.5t-108 -38.5t-58 -114.5v3l-55 -311h-114l97 551h114l-11 -64q34 35 80 54t97 19q48 0 87 -15t64 -44.5t34.5 -73.5t-0.5 -102l-58 -325h-113zM228 608q18 60 53 88.5t80 28.5q20 0 34 -7t25.5 -15t22.5 -15t26 -7q17 0 30.5 10
t20.5 32h64q-19 -60 -54 -88.5t-80 -28.5q-20 0 -34 7t-25.5 15.5t-22.5 15.5t-26 7q-37 0 -50 -43h-64z" />
    <glyph glyph-name="ograve" unicode="&#xf2;" horiz-adv-x="638" 
d="M602 327q0 -71 -26 -132.5t-71.5 -106.5t-107.5 -71t-133 -26q-53 0 -96.5 17t-74 47.5t-47.5 73t-17 94.5q0 70 25 131.5t70 107t106 72t133 26.5q53 0 97 -17t75.5 -47.5t49 -73.5t17.5 -95zM147 228q0 -70 37 -105.5t94 -35.5q44 0 82 19t65.5 51.5t43 74.5t15.5 88
q0 36 -11 63t-30 45t-43.5 27t-52.5 9q-45 0 -82 -19.5t-63 -52t-40.5 -75.5t-14.5 -89zM330 799l145 -112l-55 -64l-150 106z" />
    <glyph glyph-name="oacute" unicode="&#xf3;" horiz-adv-x="638" 
d="M602 327q0 -71 -26 -132.5t-71.5 -106.5t-107.5 -71t-133 -26q-53 0 -96.5 17t-74 47.5t-47.5 73t-17 94.5q0 70 25 131.5t70 107t106 72t133 26.5q53 0 97 -17t75.5 -47.5t49 -73.5t17.5 -95zM147 228q0 -70 37 -105.5t94 -35.5q44 0 82 19t65.5 51.5t43 74.5t15.5 88
q0 36 -11 63t-30 45t-43.5 27t-52.5 9q-45 0 -82 -19.5t-63 -52t-40.5 -75.5t-14.5 -89zM539 725l-178 -102l-42 70l178 105z" />
    <glyph glyph-name="ocircumflex" unicode="&#xf4;" horiz-adv-x="638" 
d="M602 327q0 -71 -26 -132.5t-71.5 -106.5t-107.5 -71t-133 -26q-53 0 -96.5 17t-74 47.5t-47.5 73t-17 94.5q0 70 25 131.5t70 107t106 72t133 26.5q53 0 97 -17t75.5 -47.5t49 -73.5t17.5 -95zM147 228q0 -70 37 -105.5t94 -35.5q44 0 82 19t65.5 51.5t43 74.5t15.5 88
q0 36 -11 63t-30 45t-43.5 27t-52.5 9q-45 0 -82 -19.5t-63 -52t-40.5 -75.5t-14.5 -89zM544 672l-55 -59l-85 63l-117 -63l-43 59l172 98z" />
    <glyph glyph-name="otilde" unicode="&#xf5;" horiz-adv-x="638" 
d="M602 327q0 -71 -26 -132.5t-71.5 -106.5t-107.5 -71t-133 -26q-53 0 -96.5 17t-74 47.5t-47.5 73t-17 94.5q0 70 25 131.5t70 107t106 72t133 26.5q53 0 97 -17t75.5 -47.5t49 -73.5t17.5 -95zM147 228q0 -70 37 -105.5t94 -35.5q44 0 82 19t65.5 51.5t43 74.5t15.5 88
q0 36 -11 63t-30 45t-43.5 27t-52.5 9q-45 0 -82 -19.5t-63 -52t-40.5 -75.5t-14.5 -89zM252 635q10 54 40 83.5t70 29.5q19 0 33.5 -7t26.5 -15q8 -5 17 -9.5t20 -4.5q23 0 30 34h70q-11 -57 -40 -85t-71 -28q-20 0 -34 7.5t-26 15.5q-9 5 -18 9.5t-19 4.5q-23 0 -29 -35
h-70z" />
    <glyph glyph-name="odieresis" unicode="&#xf6;" horiz-adv-x="638" 
d="M602 327q0 -71 -26 -132.5t-71.5 -106.5t-107.5 -71t-133 -26q-53 0 -96.5 17t-74 47.5t-47.5 73t-17 94.5q0 70 25 131.5t70 107t106 72t133 26.5q53 0 97 -17t75.5 -47.5t49 -73.5t17.5 -95zM147 228q0 -70 37 -105.5t94 -35.5q44 0 82 19t65.5 51.5t43 74.5t15.5 88
q0 36 -11 63t-30 45t-43.5 27t-52.5 9q-45 0 -82 -19.5t-63 -52t-40.5 -75.5t-14.5 -89zM290 629q-23 0 -37 14t-14 35q0 29 21.5 50t50.5 21q22 0 36 -14t14 -35q0 -15 -6 -27.5t-16 -22.5t-23 -15.5t-26 -5.5zM462 629q-23 0 -37 14t-14 35q0 29 21.5 50t50.5 21
q22 0 36 -14t14 -35q0 -15 -6 -27.5t-16 -22.5t-23 -15.5t-26 -5.5z" />
    <glyph glyph-name="divide" unicode="&#xf7;" horiz-adv-x="679" 
d="M111 412h510l-18 -101h-510zM379 148q-5 -31 -30 -52t-55 -21q-31 0 -48 21t-12 52t30 52t56 21q30 0 47 -21t12 -52zM459 578q-5 -31 -30 -52t-55 -21q-31 0 -48 21t-12 52t30 52t56 21q30 0 47 -21t12 -52z" />
    <glyph glyph-name="oslash" unicode="&#xf8;" horiz-adv-x="638" 
d="M602 327q0 -71 -26 -132.5t-71.5 -106.5t-107.5 -71t-133 -26q-97 0 -160 54l-49 -45h-79l93 85q-40 58 -40 138q0 70 25 131.5t70 107t106 72t133 26.5q49 0 90 -14.5t72 -40.5l51 46h79l-94 -86q41 -56 41 -138zM147 228q0 -35 10 -62l286 263q-38 35 -96 35
q-45 0 -82 -19.5t-63 -52t-40.5 -75.5t-14.5 -89zM278 87q44 0 82 19t65.5 51.5t43 74.5t15.5 88q0 34 -11 64l-286 -263q17 -17 40.5 -25.5t50.5 -8.5z" />
    <glyph glyph-name="ugrave" unicode="&#xf9;" horiz-adv-x="649" 
d="M522 0h-114l11 65q-33 -35 -79.5 -54t-95.5 -19q-48 0 -87 15t-64.5 44.5t-35 73.5t0.5 102l57 324h113l-54 -307q-13 -76 17.5 -114.5t93.5 -38.5t107 37t58 109l55 314h114zM310 799l145 -112l-55 -64l-150 106z" />
    <glyph glyph-name="uacute" unicode="&#xfa;" horiz-adv-x="649" 
d="M522 0h-114l11 65q-33 -35 -79.5 -54t-95.5 -19q-48 0 -87 15t-64.5 44.5t-35 73.5t0.5 102l57 324h113l-54 -307q-13 -76 17.5 -114.5t93.5 -38.5t107 37t58 109l55 314h114zM550 725l-178 -102l-42 70l178 105z" />
    <glyph glyph-name="ucircumflex" unicode="&#xfb;" horiz-adv-x="649" 
d="M522 0h-114l11 65q-33 -35 -79.5 -54t-95.5 -19q-48 0 -87 15t-64.5 44.5t-35 73.5t0.5 102l57 324h113l-54 -307q-13 -76 17.5 -114.5t93.5 -38.5t107 37t58 109l55 314h114zM521 596l-127 86l-159 -86l16 89l158 83l128 -83z" />
    <glyph glyph-name="udieresis" unicode="&#xfc;" horiz-adv-x="649" 
d="M522 0h-114l11 65q-33 -35 -79.5 -54t-95.5 -19q-48 0 -87 15t-64.5 44.5t-35 73.5t0.5 102l57 324h113l-54 -307q-13 -76 17.5 -114.5t93.5 -38.5t107 37t58 109l55 314h114zM297 620q-23 0 -37 14t-14 35q0 29 21.5 50t50.5 21q22 0 36 -14t14 -35q0 -15 -6 -27.5
t-16 -22.5t-23 -15.5t-26 -5.5zM469 620q-23 0 -37 14t-14 35q0 29 21.5 50t50.5 21q22 0 36 -14t14 -35q0 -15 -6 -27.5t-16 -22.5t-23 -15.5t-26 -5.5z" />
    <glyph glyph-name="yacute" unicode="&#xfd;" horiz-adv-x="582" 
d="M55 551h127l81 -420l235 420h118l-480 -810h-118l159 268zM513 725l-178 -102l-42 70l178 105z" />
    <glyph glyph-name="thorn" unicode="&#xfe;" horiz-adv-x="678" 
d="M217 453q35 46 88.5 76.5t122.5 30.5q55 0 98.5 -20t71.5 -57t39 -89t0 -116t-40.5 -116.5t-71 -90.5t-92.5 -59t-105 -21q-69 0 -111.5 32t-61.5 80l-64 -365h-114l177 1002h114zM521 278q8 45 0 79t-27.5 57t-47.5 35t-60 12t-64 -12.5t-60 -36t-48 -58t-28 -78.5
q-8 -45 0 -79.5t27 -58t47 -36t60 -12.5t64.5 12.5t60.5 36.5t48 59t28 80z" />
    <glyph glyph-name="ydieresis" unicode="&#xff;" horiz-adv-x="582" 
d="M55 551h127l81 -420l235 420h118l-480 -810h-118l159 268zM263 620q-23 0 -37 14t-14 35q0 29 21.5 50t50.5 21q22 0 36 -14t14 -35q0 -15 -6 -27.5t-16 -22.5t-23 -15.5t-26 -5.5zM435 620q-23 0 -37 14t-14 35q0 29 21.5 50t50.5 21q22 0 36 -14t14 -35q0 -15 -6 -27.5
t-16 -22.5t-23 -15.5t-26 -5.5z" />
    <glyph glyph-name="Amacron" unicode="&#x100;" horiz-adv-x="697" 
d="M467 142h-291l-75 -142h-119l372 696h132l126 -696h-120zM267 865h366l-15 -85h-366zM395 558l-172 -327h229z" />
    <glyph glyph-name="amacron" unicode="&#x101;" horiz-adv-x="678" 
d="M34 278q11 64 40.5 116t71.5 89t93 57t105 20q35 0 63 -7.5t49.5 -20t37 -28.5t25.5 -33l14 80h115l-97 -551h-115l15 82q-16 -18 -38 -34t-48.5 -29t-57.5 -20.5t-65 -7.5q-54 0 -97 21t-71.5 59t-39.5 90.5t0 116.5zM485 276q8 44 0 78.5t-27 58t-47 36t-60 12.5
t-64 -12t-60 -35t-48 -57t-28 -79t0 -80t27 -59t47 -36.5t60 -12.5t64.5 12.5t60 36t47.5 58t28 79.5zM231 720h366l-15 -85h-366z" />
    <glyph glyph-name="Abreve" unicode="&#x102;" horiz-adv-x="697" 
d="M467 142h-291l-75 -142h-119l372 696h132l126 -696h-120zM395 558l-172 -327h229zM393 869q-2 -11 -2.5 -21t4 -17.5t15 -12t31.5 -4.5q37 0 54 16.5t22 38.5h82q-12 -57 -56 -94.5t-116 -37.5q-71 0 -97.5 37.5t-14.5 94.5h78z" />
    <glyph glyph-name="abreve" unicode="&#x103;" horiz-adv-x="678" 
d="M34 278q11 64 40.5 116t71.5 89t93 57t105 20q35 0 63 -7.5t49.5 -20t37 -28.5t25.5 -33l14 80h115l-97 -551h-115l15 82q-16 -18 -38 -34t-48.5 -29t-57.5 -20.5t-65 -7.5q-54 0 -97 21t-71.5 59t-39.5 90.5t0 116.5zM485 276q8 44 0 78.5t-27 58t-47 36t-60 12.5
t-64 -12t-60 -35t-48 -57t-28 -79t0 -80t27 -59t47 -36.5t60 -12.5t64.5 12.5t60 36t47.5 58t28 79.5zM365 744q-2 -11 -2.5 -21t4 -17.5t15 -12t31.5 -4.5q37 0 54 16.5t22 38.5h82q-12 -57 -56 -94.5t-116 -37.5q-71 0 -97.5 37.5t-14.5 94.5h78z" />
    <glyph glyph-name="Aogonek" unicode="&#x104;" horiz-adv-x="697" 
d="M486 696l126 -696l-53 -25q-35 -17 -50 -32.5t-19 -33.5q-4 -21 8.5 -33.5t38.5 -12.5q29 0 69 14l-13 -73q-19 -7 -40.5 -11t-43.5 -4q-24 0 -46.5 5.5t-39.5 18.5t-25.5 34t-3.5 51t27 61.5t68 60.5l-22 122h-291l-75 -142h-119l372 696h132zM395 558l-172 -327h229z
" />
    <glyph glyph-name="aogonek" unicode="&#x105;" horiz-adv-x="678" 
d="M34 278q11 64 40.5 116t71.5 89t93 57t105 20q35 0 63 -7.5t49.5 -20t37 -28.5t25.5 -33l14 80h115l-97 -551l-53 -25q-35 -17 -50 -32.5t-19 -33.5q-4 -21 8.5 -33.5t38.5 -12.5q29 0 69 14l-13 -73q-19 -7 -40.5 -11t-43.5 -4q-24 0 -46.5 5.5t-39 18.5t-25 33.5
t-3.5 50.5q5 32 29.5 61.5t75.5 57.5l12 66q-16 -18 -38 -34t-48.5 -29t-57.5 -20.5t-65 -7.5q-54 0 -97 21t-71.5 59t-39.5 90.5t0 116.5zM485 276q8 44 0 78.5t-27 58t-47 36t-60 12.5t-64 -12t-60 -35t-48 -57t-28 -79t0 -80t27 -59t47 -36.5t60 -12.5t64.5 12.5t60 36
t47.5 58t28 79.5z" />
    <glyph glyph-name="Cacute" unicode="&#x106;" horiz-adv-x="773" 
d="M47 349q14 78 53.5 143t95.5 112.5t125 73.5t143 26q54 0 101.5 -13.5t85 -40t63.5 -65.5t37 -90h-137q-19 54 -62 79.5t-106 25.5q-52 0 -98.5 -17.5t-84 -50.5t-63.5 -79.5t-36 -103.5t-0.5 -103.5t35 -79.5t66 -51t92.5 -18q63 0 115.5 25.5t89.5 79.5h137
q-29 -51 -68.5 -90t-86 -65t-99 -39.5t-106.5 -13.5q-74 0 -134 26t-99.5 73t-56 112.5t-2.5 143.5zM604 941l-17 -97l-241 -109l15 84z" />
    <glyph glyph-name="cacute" unicode="&#x107;" horiz-adv-x="600" 
d="M34 276q11 64 40 116.5t71.5 90t96 57.5t112.5 20q103 0 158.5 -47.5t63.5 -135.5h-123q-8 40 -36.5 63.5t-79.5 23.5q-69 0 -119.5 -48.5t-66.5 -139.5t17.5 -140t102.5 -49q51 0 87 22t59 65h123q-19 -41 -47 -74.5t-64 -57.5t-80 -37.5t-95 -13.5q-59 0 -105.5 20
t-76 57.5t-40 90t1.5 117.5zM492 796l-17 -97l-241 -109l15 84z" />
    <glyph glyph-name="Cdotaccent" unicode="&#x10a;" horiz-adv-x="773" 
d="M47 349q14 78 53.5 143t95.5 112.5t125 73.5t143 26q54 0 101.5 -13.5t85 -40t63.5 -65.5t37 -90h-137q-19 54 -62 79.5t-106 25.5q-52 0 -98.5 -17.5t-84 -50.5t-63.5 -79.5t-36 -103.5t-0.5 -103.5t35 -79.5t66 -51t92.5 -18q63 0 115.5 25.5t89.5 79.5h137
q-29 -51 -68.5 -90t-86 -65t-99 -39.5t-106.5 -13.5q-74 0 -134 26t-99.5 73t-56 112.5t-2.5 143.5zM470 765q-26 0 -40.5 17t-9.5 43q5 25 25 42.5t46 17.5q25 0 39.5 -17.5t9.5 -42.5q-5 -26 -25 -43t-45 -17z" />
    <glyph glyph-name="cdotaccent" unicode="&#x10b;" horiz-adv-x="600" 
d="M34 276q11 64 40 116.5t71.5 90t96 57.5t112.5 20q103 0 158.5 -47.5t63.5 -135.5h-123q-8 40 -36.5 63.5t-79.5 23.5q-69 0 -119.5 -48.5t-66.5 -139.5t17.5 -140t102.5 -49q51 0 87 22t59 65h123q-19 -41 -47 -74.5t-64 -57.5t-80 -37.5t-95 -13.5q-59 0 -105.5 20
t-76 57.5t-40 90t1.5 117.5zM358 620q-26 0 -40.5 17t-9.5 43q5 25 25 42.5t46 17.5q25 0 39.5 -17.5t9.5 -42.5q-5 -26 -25 -43t-45 -17z" />
    <glyph glyph-name="Ccaron" unicode="&#x10c;" horiz-adv-x="773" 
d="M47 349q14 78 53.5 143t95.5 112.5t125 73.5t143 26q54 0 101.5 -13.5t85 -40t63.5 -65.5t37 -90h-137q-19 54 -62 79.5t-106 25.5q-52 0 -98.5 -17.5t-84 -50.5t-63.5 -79.5t-36 -103.5t-0.5 -103.5t35 -79.5t66 -51t92.5 -18q63 0 115.5 25.5t89.5 79.5h137
q-29 -51 -68.5 -90t-86 -65t-99 -39.5t-106.5 -13.5q-74 0 -134 26t-99.5 73t-56 112.5t-2.5 143.5zM639 913l-16 -89l-158 -83l-128 83l16 89l128 -86z" />
    <glyph glyph-name="ccaron" unicode="&#x10d;" horiz-adv-x="600" 
d="M34 276q11 64 40 116.5t71.5 90t96 57.5t112.5 20q103 0 158.5 -47.5t63.5 -135.5h-123q-8 40 -36.5 63.5t-79.5 23.5q-69 0 -119.5 -48.5t-66.5 -139.5t17.5 -140t102.5 -49q51 0 87 22t59 65h123q-19 -41 -47 -74.5t-64 -57.5t-80 -37.5t-95 -13.5q-59 0 -105.5 20
t-76 57.5t-40 90t1.5 117.5zM527 768l-16 -89l-158 -83l-128 83l16 89l128 -86z" />
    <glyph glyph-name="Dcaron" unicode="&#x10e;" horiz-adv-x="709" 
d="M373 695q84 0 147.5 -24.5t103.5 -70t55 -110t1 -145.5q-14 -80 -51.5 -144t-94 -108.5t-128.5 -68.5t-156 -24h-227l123 695h227zM266 87q62 0 112 18t87.5 51.5t62 81.5t35.5 107q21 119 -31 188.5t-175 69.5h-113l-91 -516h113zM608 913l-16 -89l-158 -83l-128 83
l16 89l128 -86z" />
    <glyph glyph-name="dcaron" unicode="&#x10f;" horiz-adv-x="781" 
d="M836 740q3 -59 -4 -100q-21 -124 -135 -124l9 50q26 0 40 14t19 42l4 21h-53l17 97h103zM34 278q11 64 40.5 116t71.5 89t93 57t106 20q54 0 102 -23.5t73 -62.5l47 266h115l-131 -740h-115l15 83q-33 -38 -85.5 -65t-121.5 -27q-54 0 -98 21t-72.5 59t-39.5 90.5
t0 116.5zM485 276q8 44 0 78.5t-27 58t-47 36t-60 12.5t-64 -12t-60 -35t-48 -57t-28 -79t0 -80t27 -59t47 -36.5t60 -12.5t64.5 12.5t60 36t47.5 58t28 79.5z" />
    <glyph glyph-name="Dcroat" unicode="&#x110;" horiz-adv-x="720" 
d="M34 385h68l55 310h228q84 0 147.5 -24.5t103.5 -70t54.5 -110t0.5 -145.5q-14 -80 -51.5 -144t-93.5 -108.5t-128 -68.5t-156 -24h-228l52 296h-67zM278 87q61 0 111 18t87.5 51.5t62 81.5t35.5 107q21 119 -31 188.5t-174 69.5h-113l-39 -218h167l-15 -89h-167l-37 -209
h113z" />
    <glyph glyph-name="dcroat" unicode="&#x111;" horiz-adv-x="678" 
d="M420 680h136l11 60h115l-11 -60h68l-14 -80h-68l-106 -600h-115l15 83q-33 -38 -85.5 -65t-121.5 -27q-54 0 -98 21t-72.5 59t-39.5 90.5t0 116.5t40.5 116t71.5 89t93 57t106 20q54 0 102 -23.5t73 -62.5l22 126h-136zM485 276q8 44 0 78.5t-27 58t-47 36t-60 12.5
t-64 -12t-60 -35t-48 -57t-28 -79t0 -80t27 -59t47 -36.5t60 -12.5t64.5 12.5t60 36t47.5 58t28 79.5z" />
    <glyph glyph-name="Emacron" unicode="&#x112;" horiz-adv-x="524" 
d="M514 607h-270l-37 -211h240l-15 -88h-240l-39 -219h270l-16 -89h-384l123 696h384zM180 865h366l-15 -85h-366z" />
    <glyph glyph-name="emacron" unicode="&#x113;" horiz-adv-x="617" 
d="M337 464q-60 0 -109 -38t-68 -107h306q5 34 -2.5 61t-25 45.5t-43.5 28.5t-58 10zM542 164q-18 -36 -45.5 -67.5t-63.5 -55t-79.5 -37t-94.5 -13.5q-59 0 -106 20t-77.5 57.5t-42 90t0.5 117.5t41.5 117.5t72 89.5t96.5 57t115 20q59 0 105 -19.5t75 -55t40 -85t1 -109.5
q-2 -13 -5.5 -26.5t-8.5 -27.5h-421q-8 -70 29.5 -110t101.5 -40q54 0 88 22.5t55 54.5h123zM201 720h366l-15 -85h-366z" />
    <glyph glyph-name="Ebreve" unicode="&#x114;" horiz-adv-x="524" 
d="M514 607h-270l-37 -211h240l-15 -88h-240l-39 -219h270l-16 -89h-384l123 696h384zM519 892q-11 -63 -57 -101t-118 -38t-104.5 38.5t-21.5 101.5l4 21h65q-6 -34 8.5 -53t63.5 -19t70.5 19t27.5 53h66z" />
    <glyph glyph-name="ebreve" unicode="&#x115;" horiz-adv-x="617" 
d="M337 464q-60 0 -109 -38t-68 -107h306q5 34 -2.5 61t-25 45.5t-43.5 28.5t-58 10zM542 164q-18 -36 -45.5 -67.5t-63.5 -55t-79.5 -37t-94.5 -13.5q-59 0 -106 20t-77.5 57.5t-42 90t0.5 117.5t41.5 117.5t72 89.5t96.5 57t115 20q59 0 105 -19.5t75 -55t40 -85t1 -109.5
q-2 -13 -5.5 -26.5t-8.5 -27.5h-421q-8 -70 29.5 -110t101.5 -40q54 0 88 22.5t55 54.5h123zM540 747q-11 -63 -57 -101t-118 -38t-104.5 38.5t-21.5 101.5l4 21h65q-6 -34 8.5 -53t63.5 -19t70.5 19t27.5 53h66z" />
    <glyph glyph-name="Edotaccent" unicode="&#x116;" horiz-adv-x="524" 
d="M514 607h-270l-37 -211h240l-15 -88h-240l-39 -219h270l-16 -89h-384l123 696h384zM346 765q-26 0 -40.5 17t-9.5 43q5 25 25 42.5t46 17.5q25 0 39.5 -17.5t9.5 -42.5q-5 -26 -25 -43t-45 -17z" />
    <glyph glyph-name="edotaccent" unicode="&#x117;" horiz-adv-x="617" 
d="M337 464q-60 0 -109 -38t-68 -107h306q5 34 -2.5 61t-25 45.5t-43.5 28.5t-58 10zM542 164q-18 -36 -45.5 -67.5t-63.5 -55t-79.5 -37t-94.5 -13.5q-59 0 -106 20t-77.5 57.5t-42 90t0.5 117.5t41.5 117.5t72 89.5t96.5 57t115 20q59 0 105 -19.5t75 -55t40 -85t1 -109.5
q-2 -13 -5.5 -26.5t-8.5 -27.5h-421q-8 -70 29.5 -110t101.5 -40q54 0 88 22.5t55 54.5h123zM367 620q-26 0 -40.5 17t-9.5 43q5 25 25 42.5t46 17.5q25 0 39.5 -17.5t9.5 -42.5q-5 -26 -25 -43t-45 -17z" />
    <glyph glyph-name="Eogonek" unicode="&#x118;" horiz-adv-x="524" 
d="M514 607h-270l-37 -211h240l-15 -88h-240l-39 -219h270l-16 -89l-53 -25q-35 -17 -50 -32.5t-19 -33.5q-4 -21 8.5 -33.5t38.5 -12.5q29 0 69 14l-13 -73q-19 -7 -40.5 -11t-43.5 -4q-24 0 -46.5 5.5t-39 18.5t-25 33.5t-3.5 50.5q5 27 23 53t55 50h-245l123 696h384z
" />
    <glyph glyph-name="eogonek" unicode="&#x119;" horiz-adv-x="617" 
d="M337 464q-60 0 -109 -38t-68 -107h306q5 34 -2.5 61t-25 45.5t-43.5 28.5t-58 10zM350 -182q-19 -7 -40.5 -11t-43.5 -4q-24 0 -46.5 5.5t-39 18.5t-25 33.5t-3.5 50.5q4 22 16.5 43.5t36.5 41.5q-47 9 -83.5 32.5t-59 59.5t-30.5 83.5t2 104.5q12 65 41.5 117.5t72 89.5
t96.5 57t115 20q59 0 105 -19.5t75 -55t40 -85t1 -109.5q-2 -13 -5.5 -26.5t-8.5 -27.5h-421q-8 -70 29.5 -110t101.5 -40q54 0 88 22.5t55 54.5h123q-28 -57 -79 -100.5t-121 -62.5l-26 -12q-35 -17 -50 -32.5t-19 -33.5q-4 -21 8.5 -33.5t38.5 -12.5q29 0 69 14z" />
    <glyph glyph-name="Ecaron" unicode="&#x11a;" horiz-adv-x="524" 
d="M514 607h-270l-37 -211h240l-15 -88h-240l-39 -219h270l-16 -89h-384l123 696h384zM515 913l-16 -89l-158 -83l-128 83l16 89l128 -86z" />
    <glyph glyph-name="ecaron" unicode="&#x11b;" horiz-adv-x="617" 
d="M337 464q-60 0 -109 -38t-68 -107h306q5 34 -2.5 61t-25 45.5t-43.5 28.5t-58 10zM542 164q-18 -36 -45.5 -67.5t-63.5 -55t-79.5 -37t-94.5 -13.5q-59 0 -106 20t-77.5 57.5t-42 90t0.5 117.5t41.5 117.5t72 89.5t96.5 57t115 20q59 0 105 -19.5t75 -55t40 -85t1 -109.5
q-2 -13 -5.5 -26.5t-8.5 -27.5h-421q-8 -70 29.5 -110t101.5 -40q54 0 88 22.5t55 54.5h123zM536 768l-16 -89l-158 -83l-128 83l16 89l128 -86z" />
    <glyph glyph-name="Gbreve" unicode="&#x11e;" horiz-adv-x="773" 
d="M47 349q14 78 53.5 143t95.5 112.5t125 73.5t143 26q54 0 101.5 -13.5t85 -40t63.5 -65.5t37 -90h-137q-19 54 -62 79.5t-106 25.5q-52 0 -98.5 -17.5t-84 -50.5t-63.5 -79.5t-36 -103.5t-0.5 -103.5t35 -79.5t66 -51t92.5 -18q96 0 162.5 52.5t94.5 142.5h-261l16 89
h383l-16 -89q-19 -60 -57 -114.5t-90 -95t-116 -64.5t-134 -24q-74 0 -134 26t-99.5 73t-56 112.5t-2.5 143.5zM643 892q-11 -63 -57 -101t-118 -38t-104.5 38.5t-21.5 101.5l4 21h65q-6 -34 8.5 -53t63.5 -19t70.5 19t27.5 53h66z" />
    <glyph glyph-name="gbreve" unicode="&#x11f;" horiz-adv-x="678" 
d="M34 278q11 64 40.5 116t71.5 89t93 57t105 20q69 0 112.5 -27t62.5 -62l14 80h115l-98 -560q-10 -56 -36.5 -104.5t-67 -83.5t-94.5 -55t-118 -20q-56 0 -100.5 13.5t-75.5 38.5t-46.5 61t-12.5 82h113q5 -43 42.5 -69.5t97.5 -26.5q66 0 117 40.5t66 123.5l16 92
q-32 -36 -85.5 -64t-121.5 -28q-54 0 -98 21t-72.5 59t-39.5 90.5t0 116.5zM485 276q8 44 0 78.5t-27 58t-47 36t-60 12.5t-64 -12t-60 -35t-48 -57t-28 -79t0 -80t27 -59t47 -36.5t60 -12.5t64.5 12.5t60 36t47.5 58t28 79.5zM570 747q-11 -63 -57 -101t-118 -38
t-104.5 38.5t-21.5 101.5l4 21h65q-6 -34 8.5 -53t63.5 -19t70.5 19t27.5 53h66z" />
    <glyph glyph-name="Gdotaccent" unicode="&#x120;" horiz-adv-x="773" 
d="M47 349q14 78 53.5 143t95.5 112.5t125 73.5t143 26q54 0 101.5 -13.5t85 -40t63.5 -65.5t37 -90h-137q-19 54 -62 79.5t-106 25.5q-52 0 -98.5 -17.5t-84 -50.5t-63.5 -79.5t-36 -103.5t-0.5 -103.5t35 -79.5t66 -51t92.5 -18q96 0 162.5 52.5t94.5 142.5h-261l16 89
h383l-16 -89q-19 -60 -57 -114.5t-90 -95t-116 -64.5t-134 -24q-74 0 -134 26t-99.5 73t-56 112.5t-2.5 143.5zM470 765q-26 0 -40.5 17t-9.5 43q5 25 25 42.5t46 17.5q25 0 39.5 -17.5t9.5 -42.5q-5 -26 -25 -43t-45 -17z" />
    <glyph glyph-name="gdotaccent" unicode="&#x121;" horiz-adv-x="678" 
d="M34 278q11 64 40.5 116t71.5 89t93 57t105 20q69 0 112.5 -27t62.5 -62l14 80h115l-98 -560q-10 -56 -36.5 -104.5t-67 -83.5t-94.5 -55t-118 -20q-56 0 -100.5 13.5t-75.5 38.5t-46.5 61t-12.5 82h113q5 -43 42.5 -69.5t97.5 -26.5q66 0 117 40.5t66 123.5l16 92
q-32 -36 -85.5 -64t-121.5 -28q-54 0 -98 21t-72.5 59t-39.5 90.5t0 116.5zM485 276q8 44 0 78.5t-27 58t-47 36t-60 12.5t-64 -12t-60 -35t-48 -57t-28 -79t0 -80t27 -59t47 -36.5t60 -12.5t64.5 12.5t60 36t47.5 58t28 79.5zM397 620q-26 0 -40.5 17t-9.5 43q5 25 25 42.5
t46 17.5q25 0 39.5 -17.5t9.5 -42.5q-5 -26 -25 -43t-45 -17z" />
    <glyph glyph-name="uni0122" unicode="&#x122;" horiz-adv-x="773" 
d="M375 -46q4 -56 -3 -99q-23 -125 -135 -125l9 50q26 0 40 14t19 43l3 21h-53l17 96h103zM47 349q14 78 53.5 143t95.5 112.5t125 73.5t143 26q54 0 101.5 -13.5t85 -40t63.5 -65.5t37 -90h-137q-19 54 -62 79.5t-106 25.5q-52 0 -98.5 -17.5t-84 -50.5t-63.5 -79.5
t-36 -103.5t-0.5 -103.5t35 -79.5t66 -51t92.5 -18q96 0 162.5 52.5t94.5 142.5h-261l16 89h383l-16 -89q-19 -60 -57 -114.5t-90 -95t-116 -64.5t-134 -24q-74 0 -134 26t-99.5 73t-56 112.5t-2.5 143.5z" />
    <glyph glyph-name="uni0123" unicode="&#x123;" horiz-adv-x="678" 
d="M344 597q-2 28 -1 52.5t5 46.5q23 125 134 125l-9 -50q-47 0 -58 -56l-3 -21h52l-17 -97h-103zM34 278q11 64 40.5 116t71.5 89t93 57t105 20q69 0 112.5 -27t62.5 -62l14 80h115l-98 -560q-10 -56 -36.5 -104.5t-67 -83.5t-94.5 -55t-118 -20q-56 0 -100.5 13.5
t-75.5 38.5t-46.5 61t-12.5 82h113q5 -43 42.5 -69.5t97.5 -26.5q66 0 117 40.5t66 123.5l16 92q-32 -36 -85.5 -64t-121.5 -28q-54 0 -98 21t-72.5 59t-39.5 90.5t0 116.5zM485 276q8 44 0 78.5t-27 58t-47 36t-60 12.5t-64 -12t-60 -35t-48 -57t-28 -79t0 -80t27 -59
t47 -36.5t60 -12.5t64.5 12.5t60 36t47.5 58t28 79.5z" />
    <glyph glyph-name="Itilde" unicode="&#x128;" horiz-adv-x="264" 
d="M146 695h114l-123 -695h-114zM70 764q10 54 40 83.5t70 29.5q19 0 33.5 -7t26.5 -15q8 -5 17 -9.5t20 -4.5q23 0 30 34h70q-11 -57 -40 -85t-71 -28q-20 0 -34 7.5t-26 15.5q-9 5 -18 9.5t-19 4.5q-23 0 -29 -35h-70z" />
    <glyph glyph-name="itilde" unicode="&#x129;" horiz-adv-x="264" 
d="M120 551h114l-97 -551h-114zM46 635q10 54 40 83.5t70 29.5q19 0 33.5 -7t26.5 -15q8 -5 17 -9.5t20 -4.5q23 0 30 34h70q-11 -57 -40 -85t-71 -28q-20 0 -34 7.5t-26 15.5q-9 5 -18 9.5t-19 4.5q-23 0 -29 -35h-70z" />
    <glyph glyph-name="Imacron" unicode="&#x12a;" horiz-adv-x="264" 
d="M146 695h114l-123 -695h-114zM50 865h366l-15 -85h-366z" />
    <glyph glyph-name="imacron" unicode="&#x12b;" horiz-adv-x="264" 
d="M120 551h114l-97 -551h-114zM24 720h366l-15 -85h-366z" />
    <glyph glyph-name="uni012C" unicode="&#x12c;" horiz-adv-x="264" 
d="M146 695h114l-123 -695h-114zM389 892q-11 -63 -57 -101t-118 -38t-104.5 38.5t-21.5 101.5l4 21h65q-6 -34 8.5 -53t63.5 -19t70.5 19t27.5 53h66z" />
    <glyph glyph-name="uni012D" unicode="&#x12d;" horiz-adv-x="264" 
d="M120 551h114l-97 -551h-114zM363 747q-11 -63 -57 -101t-118 -38t-104.5 38.5t-21.5 101.5l4 21h65q-6 -34 8.5 -53t63.5 -19t70.5 19t27.5 53h66z" />
    <glyph glyph-name="Iogonek" unicode="&#x12e;" horiz-adv-x="264" 
d="M119 -195q-19 -7 -40.5 -11t-43.5 -4q-24 0 -46.5 5.5t-39 18.5t-25 33.5t-3.5 50.5q5 32 29.5 61.5t75.5 57.5l120 678h114l-123 -692l1 -2h-1v-1h-1l-51 -24q-35 -17 -50 -32.5t-19 -33.5q-4 -21 8.5 -33.5t38.5 -12.5q29 0 69 14z" />
    <glyph glyph-name="iogonek" unicode="&#x12f;" horiz-adv-x="264" 
d="M119 -195q-19 -7 -40.5 -11t-43.5 -4q-24 0 -46.5 5.5t-39 18.5t-25 33.5t-3.5 50.5q5 32 29.5 61.5t75.5 57.5l94 534h114l-97 -548l1 -2h-1v-1h-1l-51 -24q-35 -17 -50 -32.5t-19 -33.5q-4 -21 8.5 -33.5t38.5 -12.5q29 0 69 14zM191 624q-31 0 -48 21t-12 52t30 52
t56 21q30 0 47 -21t12 -52t-30 -52t-55 -21z" />
    <glyph glyph-name="Idotaccent" unicode="&#x130;" horiz-adv-x="264" 
d="M146 695h114l-123 -695h-114zM216 765q-26 0 -40.5 17t-9.5 43q5 25 25 42.5t46 17.5q25 0 39.5 -17.5t9.5 -42.5q-5 -26 -25 -43t-45 -17z" />
    <glyph glyph-name="dotlessi" unicode="&#x131;" horiz-adv-x="264" 
d="M120 551h114l-97 -551h-114z" />
    <glyph glyph-name="uni0136" unicode="&#x136;" horiz-adv-x="633" 
d="M305 -46q3 -28 2 -52.5t-5 -46.5q-23 -125 -134 -125l9 50q47 0 58 57l3 21h-53l17 96h103zM192 311l-55 -311h-114l123 695h114l-56 -317l326 317h143l-364 -348l246 -347h-149z" />
    <glyph glyph-name="uni0137" unicode="&#x137;" horiz-adv-x="554" 
d="M266 -46q2 -28 1 -52.5t-5 -46.5q-23 -125 -134 -125l9 50q48 0 59 57l3 21h-53l17 96h103zM154 740h114l-76 -429l242 240h158l-303 -276l206 -275h-154l-162 237l-42 -237h-114z" />
    <glyph glyph-name="Lacute" unicode="&#x139;" horiz-adv-x="444" 
d="M260 695l-107 -608h235l-16 -87h-349l123 695h114zM440 941l-17 -97l-241 -109l15 84z" />
    <glyph glyph-name="lacute" unicode="&#x13a;" horiz-adv-x="264" 
d="M154 740h114l-131 -740h-114zM358 985l-17 -97l-241 -109l15 84z" />
    <glyph glyph-name="uni013B" unicode="&#x13b;" horiz-adv-x="444" 
d="M236 -46q3 -28 2 -52.5t-5 -46.5q-23 -125 -135 -125l9 50q26 0 40 14t19 43l3 21h-53l17 96h103zM260 695l-107 -608h235l-16 -87h-349l123 695h114z" />
    <glyph glyph-name="uni013C" unicode="&#x13c;" horiz-adv-x="264" 
d="M121 -46q4 -56 -3 -99q-23 -125 -135 -125l9 50q26 0 40 14t19 43l3 21h-53l17 96h103zM154 740h114l-131 -740h-114z" />
    <glyph glyph-name="Lcaron" unicode="&#x13d;" horiz-adv-x="463" 
d="M471 695q5 -59 -4 -99q-21 -125 -134 -125l9 50q49 0 58 57l4 21h-53l17 96h103zM260 695l-107 -608h235l-16 -87h-349l123 695h114z" />
    <glyph glyph-name="lcaron" unicode="&#x13e;" horiz-adv-x="427" 
d="M449 740q2 -28 1 -52.5t-5 -47.5q-21 -124 -134 -124l9 50q47 0 58 56l4 21h-53l17 97h103zM154 740h114l-131 -740h-114z" />
    <glyph glyph-name="Ldot" unicode="&#x13f;" horiz-adv-x="444" 
d="M260 695l-107 -608h235l-16 -87h-349l123 695h114zM306 765q-26 0 -40.5 17t-9.5 43q5 25 25 42.5t46 17.5q25 0 39.5 -17.5t9.5 -42.5q-5 -26 -25 -43t-45 -17z" />
    <glyph glyph-name="ldot" unicode="&#x140;" horiz-adv-x="264" 
d="M215 765q-26 0 -40 17t-9 43q5 25 24.5 42.5t45.5 17.5q25 0 40 -17.5t10 -42.5q-5 -26 -25.5 -43t-45.5 -17zM154 740h114l-131 -740h-114z" />
    <glyph glyph-name="Lslash" unicode="&#x141;" horiz-adv-x="444" 
d="M272 695l-46 -264l97 30l-19 -106l-97 -30l-42 -238h234l-16 -87h-349l51 288l-81 -25l18 105l82 25l53 302h115z" />
    <glyph glyph-name="lslash" unicode="&#x142;" horiz-adv-x="264" 
d="M73 282l-70 -23l19 106l70 22l62 353h114l-56 -314l72 23l-19 -105l-71 -23l-57 -321h-114z" />
    <glyph glyph-name="Nacute" unicode="&#x143;" horiz-adv-x="721" 
d="M717 696l-123 -696h-114l-251 519l-92 -519h-114l123 696h114l252 -518l91 518h114zM579 941l-17 -97l-241 -109l15 84z" />
    <glyph glyph-name="nacute" unicode="&#x144;" horiz-adv-x="649" 
d="M527 796l-17 -97l-241 -109l15 84zM469 308q13 76 -17.5 114.5t-93.5 38.5t-108 -38.5t-58 -114.5v3l-55 -311h-114l97 551h114l-11 -64q34 35 80 54t97 19q48 0 87 -15t64 -44.5t34.5 -73.5t-0.5 -102l-58 -325h-113z" />
    <glyph glyph-name="uni0145" unicode="&#x145;" horiz-adv-x="721" 
d="M349 -46q3 -28 2 -52.5t-5 -46.5q-23 -125 -134 -125l9 50q47 0 58 57l3 21h-53l17 96h103zM717 696l-123 -696h-114l-251 519l-92 -519h-114l123 696h114l252 -518l91 518h114z" />
    <glyph glyph-name="uni0146" unicode="&#x146;" horiz-adv-x="649" 
d="M313 -46q3 -28 2 -52.5t-5 -46.5q-23 -125 -134 -125l9 50q47 0 58 57l3 21h-53l17 96h103zM469 308q13 76 -17.5 114.5t-93.5 38.5t-108 -38.5t-58 -114.5v3l-55 -311h-114l97 551h114l-11 -64q34 35 80 54t97 19q48 0 87 -15t64 -44.5t34.5 -73.5t-0.5 -102l-58 -325
h-113z" />
    <glyph glyph-name="Ncaron" unicode="&#x147;" horiz-adv-x="721" 
d="M717 696l-123 -696h-114l-251 519l-92 -519h-114l123 696h114l252 -518l91 518h114zM614 913l-16 -89l-158 -83l-128 83l16 89l128 -86z" />
    <glyph glyph-name="ncaron" unicode="&#x148;" horiz-adv-x="649" 
d="M469 308q13 76 -17.5 114.5t-93.5 38.5t-108 -38.5t-58 -114.5v3l-55 -311h-114l97 551h114l-11 -64q34 35 80 54t97 19q48 0 87 -15t64 -44.5t34.5 -73.5t-0.5 -102l-58 -325h-113zM562 768l-16 -89l-158 -83l-128 83l16 89l128 -86z" />
    <glyph glyph-name="Omacron" unicode="&#x14c;" horiz-adv-x="784" 
d="M757 412q0 -91 -31 -167.5t-86.5 -132.5t-131 -87.5t-165.5 -31.5q-67 0 -121.5 21.5t-93.5 60.5t-60 92.5t-21 118.5q0 90 31 167t86.5 132.5t131 87t164.5 31.5q67 0 122 -21.5t94 -60.5t60 -92.5t21 -117.5zM165 293q0 -91 50.5 -144t143.5 -53q63 0 114.5 25t88.5 67
t57 98t20 118q0 91 -50.5 143.5t-144.5 52.5q-63 0 -114.5 -24.5t-88 -66.5t-56.5 -97.5t-20 -118.5zM307 873h366l-15 -85h-366z" />
    <glyph glyph-name="omacron" unicode="&#x14d;" horiz-adv-x="638" 
d="M602 327q0 -71 -26 -132.5t-71.5 -106.5t-107.5 -71t-133 -26q-53 0 -96.5 17t-74 47.5t-47.5 73t-17 94.5q0 70 25 131.5t70 107t106 72t133 26.5q53 0 97 -17t75.5 -47.5t49 -73.5t17.5 -95zM147 228q0 -70 37 -105.5t94 -35.5q44 0 82 19t65.5 51.5t43 74.5t15.5 88
q0 36 -11 63t-30 45t-43.5 27t-52.5 9q-45 0 -82 -19.5t-63 -52t-40.5 -75.5t-14.5 -89zM210 729h366l-15 -85h-366z" />
    <glyph glyph-name="uni014E" unicode="&#x14e;" horiz-adv-x="784" 
d="M757 412q0 -91 -31 -167.5t-86.5 -132.5t-131 -87.5t-165.5 -31.5q-67 0 -121.5 21.5t-93.5 60.5t-60 92.5t-21 118.5q0 90 31 167t86.5 132.5t131 87t164.5 31.5q67 0 122 -21.5t94 -60.5t60 -92.5t21 -117.5zM165 293q0 -91 50.5 -144t143.5 -53q63 0 114.5 25t88.5 67
t57 98t20 118q0 91 -50.5 143.5t-144.5 52.5q-63 0 -114.5 -24.5t-88 -66.5t-56.5 -97.5t-20 -118.5zM646 900q-11 -63 -57 -101t-118 -38t-104.5 38.5t-21.5 101.5l4 21h65q-6 -34 8.5 -53t63.5 -19t70.5 19t27.5 53h66z" />
    <glyph glyph-name="uni014F" unicode="&#x14f;" horiz-adv-x="638" 
d="M602 327q0 -71 -26 -132.5t-71.5 -106.5t-107.5 -71t-133 -26q-53 0 -96.5 17t-74 47.5t-47.5 73t-17 94.5q0 70 25 131.5t70 107t106 72t133 26.5q53 0 97 -17t75.5 -47.5t49 -73.5t17.5 -95zM147 228q0 -70 37 -105.5t94 -35.5q44 0 82 19t65.5 51.5t43 74.5t15.5 88
q0 36 -11 63t-30 45t-43.5 27t-52.5 9q-45 0 -82 -19.5t-63 -52t-40.5 -75.5t-14.5 -89zM549 756q-11 -63 -57 -101t-118 -38t-104.5 38.5t-21.5 101.5l4 21h65q-6 -34 8.5 -53t63.5 -19t70.5 19t27.5 53h66z" />
    <glyph glyph-name="Ohungarumlaut" unicode="&#x150;" horiz-adv-x="784" 
d="M757 412q0 -91 -31 -167.5t-86.5 -132.5t-131 -87.5t-165.5 -31.5q-67 0 -121.5 21.5t-93.5 60.5t-60 92.5t-21 118.5q0 90 31 167t86.5 132.5t131 87t164.5 31.5q67 0 122 -21.5t94 -60.5t60 -92.5t21 -117.5zM165 293q0 -91 50.5 -144t143.5 -53q63 0 114.5 25t88.5 67
t57 98t20 118q0 91 -50.5 143.5t-144.5 52.5q-63 0 -114.5 -24.5t-88 -66.5t-56.5 -97.5t-20 -118.5zM716 924l-138 -170h-74l114 170h98zM539 924l-124 -170h-74l99 170h99z" />
    <glyph glyph-name="ohungarumlaut" unicode="&#x151;" horiz-adv-x="638" 
d="M602 327q0 -71 -26 -132.5t-71.5 -106.5t-107.5 -71t-133 -26q-53 0 -96.5 17t-74 47.5t-47.5 73t-17 94.5q0 70 25 131.5t70 107t106 72t133 26.5q53 0 97 -17t75.5 -47.5t49 -73.5t17.5 -95zM147 228q0 -70 37 -105.5t94 -35.5q44 0 82 19t65.5 51.5t43 74.5t15.5 88
q0 36 -11 63t-30 45t-43.5 27t-52.5 9q-45 0 -82 -19.5t-63 -52t-40.5 -75.5t-14.5 -89zM619 780l-138 -170h-74l114 170h98zM442 780l-124 -170h-74l99 170h99z" />
    <glyph glyph-name="OE" unicode="&#x152;" horiz-adv-x="1083" 
d="M803 606l-37 -211h240l-16 -88h-240l-38 -218h270l-16 -89h-384l20 111q-54 -60 -122 -89t-146 -29q-71 0 -129 26t-97 73.5t-55 113t-2 143.5q14 79 53 144t94.5 112t122.5 73t137 26q79 0 137 -29t91 -86l19 106h384l-16 -89h-270zM450 600q-52 0 -98.5 -17.5
t-84 -50.5t-63.5 -79.5t-36 -103.5t-0.5 -104t35 -80t66 -51t92.5 -18t99 18t84.5 51t63.5 80t36 104t0.5 103.5t-35.5 79.5t-66.5 50.5t-92.5 17.5z" />
    <glyph glyph-name="oe" unicode="&#x153;" horiz-adv-x="1062" 
d="M479 276q8 46 0 81.5t-26.5 59t-46.5 35.5t-60 12t-63.5 -12t-58 -35.5t-46 -59t-27.5 -81.5q-8 -47 -1 -82.5t24.5 -59t44.5 -35.5t59 -12q31 0 63.5 12t60.5 35.5t48.5 59t28.5 82.5zM782 464q-30 0 -58 -10t-51.5 -29.5t-41.5 -47t-27 -62.5h306q5 34 -2.5 62t-25 47
t-43 29.5t-57.5 10.5zM34 276q12 65 43 117.5t75.5 89.5t99.5 57t114 20q69 0 121 -30t79 -84q45 54 105.5 84t132.5 30q59 0 105 -19.5t75 -55t40 -85t1 -109.5q-2 -13 -5.5 -26.5t-8.5 -27.5h-420q-8 -70 26.5 -110t98.5 -40q54 0 88.5 22.5t55.5 54.5h123
q-18 -36 -45.5 -67.5t-63.5 -55t-80 -37t-95 -13.5q-69 0 -119 29.5t-75 86.5q-48 -57 -111.5 -86.5t-132.5 -29.5q-59 0 -106.5 20t-78 57.5t-42.5 90t0 117.5z" />
    <glyph glyph-name="Racute" unicode="&#x154;" horiz-adv-x="632" 
d="M478 487q10 54 -15.5 86.5t-92.5 32.5h-126l-42 -238h126q67 0 104 32.5t46 86.5zM386 695q62 0 105 -16.5t68.5 -45t34 -66.5t1.5 -80q-5 -30 -19 -61t-38.5 -58t-59 -48t-79.5 -32l121 -288h-136l-110 278h-88l-49 -278h-114l123 695h240zM534 941l-17 -97l-241 -109
l15 84z" />
    <glyph glyph-name="racute" unicode="&#x155;" horiz-adv-x="384" 
d="M23 0l97 551h114l-17 -97q32 48 78 77t106 29l-21 -118h-29q-31 0 -57.5 -7t-47.5 -24.5t-35.5 -46t-21.5 -70.5l-52 -294h-114zM433 796l-17 -97l-241 -109l15 84z" />
    <glyph glyph-name="uni0156" unicode="&#x156;" horiz-adv-x="632" 
d="M305 -46q2 -28 1 -52.5t-5 -46.5q-23 -125 -134 -125l9 50q47 0 58 57l3 21h-52l17 96h103zM23 0l123 695h240q62 0 105 -16.5t68.5 -45t34 -66.5t1.5 -80q-5 -30 -19 -61t-38.5 -58t-59 -48t-79.5 -32l121 -288h-136l-110 278h-88l-49 -278h-114zM478 487
q10 54 -15.5 86.5t-92.5 32.5h-126l-42 -238h126q67 0 104 32.5t46 86.5z" />
    <glyph glyph-name="uni0157" unicode="&#x157;" horiz-adv-x="384" 
d="M120 -46q3 -28 2 -52.5t-5 -46.5q-23 -125 -134 -125l9 50q47 0 58 57l3 21h-53l17 96h103zM23 0l97 551h114l-17 -97q32 48 78 77t106 29l-21 -118h-29q-31 0 -57.5 -7t-47.5 -24.5t-35.5 -46t-21.5 -70.5l-52 -294h-114z" />
    <glyph glyph-name="Rcaron" unicode="&#x158;" horiz-adv-x="632" 
d="M478 487q10 54 -15.5 86.5t-92.5 32.5h-126l-42 -238h126q67 0 104 32.5t46 86.5zM386 695q62 0 105 -16.5t68.5 -45t34 -66.5t1.5 -80q-5 -30 -19 -61t-38.5 -58t-59 -48t-79.5 -32l121 -288h-136l-110 278h-88l-49 -278h-114l123 695h240zM569 913l-16 -89l-158 -83
l-128 83l16 89l128 -86z" />
    <glyph glyph-name="rcaron" unicode="&#x159;" horiz-adv-x="384" 
d="M23 0l97 551h114l-17 -97q32 48 78 77t106 29l-21 -118h-29q-31 0 -57.5 -7t-47.5 -24.5t-35.5 -46t-21.5 -70.5l-52 -294h-114zM468 768l-16 -89l-158 -83l-128 83l16 89l128 -86z" />
    <glyph glyph-name="Sacute" unicode="&#x15a;" horiz-adv-x="599" 
d="M530 193q0 -44 -18.5 -80.5t-52 -63t-80.5 -41.5t-104 -15q-51 0 -94.5 13t-74 38.5t-46 62.5t-9.5 85h113q-4 -45 26 -76t90 -31t96 24t36 75q0 34 -23.5 56t-59.5 39t-77.5 33t-77.5 38.5t-60.5 56.5t-25.5 87q-1 49 17.5 88t51.5 66t79 41.5t100 14.5t96.5 -13.5
t71.5 -38.5t43.5 -59.5t12.5 -77.5h-120q4 39 -24 67.5t-85 28.5t-92 -26t-35 -72q0 -33 24 -55t60.5 -40t78.5 -35.5t78.5 -42t60.5 -59.5t24 -88zM521 941l-17 -97l-241 -109l15 84z" />
    <glyph glyph-name="sacute" unicode="&#x15b;" horiz-adv-x="534" 
d="M455 152q0 -38 -17.5 -67.5t-48 -50.5t-72.5 -32t-91 -11q-46 0 -86 13t-68 36.5t-41.5 56.5t-7.5 72h111q-4 -38 22 -63t77 -25q45 0 77.5 16t32.5 51q0 25 -20.5 40.5t-50.5 28.5t-66 26t-66 32.5t-50.5 48.5t-20.5 74q0 36 16 66t44.5 51.5t69 33t88.5 11.5
q46 0 85 -13t66 -36t40 -55.5t8 -72.5h-108q4 39 -21.5 63t-76.5 24q-43 0 -69.5 -18t-26.5 -49q0 -26 20 -43t50 -30.5t65.5 -27t65.5 -32.5t50 -47t20 -71zM459 796l-17 -97l-241 -109l15 84z" />
    <glyph glyph-name="uni015E" unicode="&#x15e;" horiz-adv-x="599" 
d="M530 193q0 -42 -17 -78t-48.5 -62.5t-75 -42t-97.5 -17.5l-8 -41q28 0 50.5 -6.5t37.5 -20t21.5 -33t1.5 -45.5q-10 -51 -50.5 -80t-95.5 -29h-132l13 72h109q26 0 42 7t20 30q5 23 -9 30t-40 7h-55l20 114q-39 7 -72 23t-55.5 40.5t-33 57t-5.5 73.5h113q-4 -45 26 -76
t90 -31t96 24t36 75q0 34 -23.5 56t-59.5 39t-77.5 33t-77.5 38.5t-60.5 56.5t-25.5 87q-1 49 17.5 88t51.5 66t79 41.5t100 14.5t96.5 -13.5t71.5 -38.5t43.5 -59.5t12.5 -77.5h-120q4 39 -24 67.5t-85 28.5t-92 -26t-35 -72q0 -33 24 -55t60.5 -40t78.5 -35.5t78.5 -42
t60.5 -59.5t24 -88z" />
    <glyph glyph-name="uni015F" unicode="&#x15f;" horiz-adv-x="534" 
d="M455 152q0 -35 -15 -63t-41.5 -48.5t-63.5 -33t-80 -15.5l-7 -40q28 0 50.5 -6.5t37.5 -20t21.5 -33t1.5 -45.5q-10 -51 -50.5 -80t-95.5 -29h-132l13 72h109q26 0 42 7t20 30q5 23 -9 30t-40 7h-55l20 110q-38 6 -69 21t-52.5 38t-31.5 52t-5 64h111q-4 -38 22 -63
t77 -25q45 0 77.5 16t32.5 51q0 25 -20.5 40.5t-50.5 28.5t-66 26t-66 32.5t-50.5 48.5t-20.5 74q0 36 16 66t44.5 51.5t69 33t88.5 11.5q46 0 85 -13t66 -36t40 -55.5t8 -72.5h-108q4 39 -21.5 63t-76.5 24q-43 0 -69.5 -18t-26.5 -49q0 -26 20 -43t50 -30.5t65.5 -27
t65.5 -32.5t50 -47t20 -71z" />
    <glyph glyph-name="Scaron" unicode="&#x160;" horiz-adv-x="599" 
d="M530 193q0 -44 -18.5 -80.5t-52 -63t-80.5 -41.5t-104 -15q-51 0 -94.5 13t-74 38.5t-46 62.5t-9.5 85h113q-4 -45 26 -76t90 -31t96 24t36 75q0 34 -23.5 56t-59.5 39t-77.5 33t-77.5 38.5t-60.5 56.5t-25.5 87q-1 49 17.5 88t51.5 66t79 41.5t100 14.5t96.5 -13.5
t71.5 -38.5t43.5 -59.5t12.5 -77.5h-120q4 39 -24 67.5t-85 28.5t-92 -26t-35 -72q0 -33 24 -55t60.5 -40t78.5 -35.5t78.5 -42t60.5 -59.5t24 -88zM556 913l-16 -89l-158 -83l-128 83l16 89l128 -86z" />
    <glyph glyph-name="scaron" unicode="&#x161;" horiz-adv-x="534" 
d="M455 152q0 -38 -17.5 -67.5t-48 -50.5t-72.5 -32t-91 -11q-46 0 -86 13t-68 36.5t-41.5 56.5t-7.5 72h111q-4 -38 22 -63t77 -25q45 0 77.5 16t32.5 51q0 25 -20.5 40.5t-50.5 28.5t-66 26t-66 32.5t-50.5 48.5t-20.5 74q0 36 16 66t44.5 51.5t69 33t88.5 11.5
q46 0 85 -13t66 -36t40 -55.5t8 -72.5h-108q4 39 -21.5 63t-76.5 24q-43 0 -69.5 -18t-26.5 -49q0 -26 20 -43t50 -30.5t65.5 -27t65.5 -32.5t50 -47t20 -71zM494 768l-16 -89l-158 -83l-128 83l16 89l128 -86z" />
    <glyph glyph-name="uni0162" unicode="&#x162;" horiz-adv-x="564" 
d="M110 695h485l-16 -89h-185l-107 -606h-17l-9 -48q28 0 50.5 -6.5t37.5 -20t21.5 -33t1.5 -45.5q-10 -51 -50.5 -80t-95.5 -29h-132l13 72h109q26 0 42 7t20 30q5 23 -9 30t-40 7h-55l21 116h-22l107 606h-186z" />
    <glyph glyph-name="uni0163" unicode="&#x163;" horiz-adv-x="372" 
d="M122 458h-65l16 93h66l24 137h115l-24 -137h133l-16 -93h-134l-54 -305q-5 -31 6.5 -44.5t47.5 -13.5h70l-17 -95h-90h-12t-11 1l-9 -49q28 0 50.5 -6.5t37.5 -20t21.5 -33t1.5 -45.5q-10 -51 -50.5 -80t-95.5 -29h-132l13 72h109q26 0 42 7t20 30q5 23 -9 30t-40 7h-55
l24 138q-26 17 -35.5 48.5t-1.5 82.5z" />
    <glyph glyph-name="Tcaron" unicode="&#x164;" horiz-adv-x="564" 
d="M110 695h485l-16 -89h-185l-107 -606h-114l107 606h-186zM535 913l-16 -89l-158 -83l-128 83l16 89l128 -86z" />
    <glyph glyph-name="tcaron" unicode="&#x165;" horiz-adv-x="377" 
d="M471 784q2 -28 2 -47.5t-4 -42.5q-20 -104 -132 -104l9 50q49 0 55 32l2 15h-53l18 97h103zM122 458h-65l16 93h66l24 137h115l-24 -137h133l-16 -93h-134l-54 -305q-5 -31 6.5 -44.5t47.5 -13.5h70l-17 -95h-90q-74 0 -110 34.5t-22 118.5z" />
    <glyph glyph-name="Utilde" unicode="&#x168;" horiz-adv-x="690" 
d="M145 695h114l-78 -441q-14 -81 21.5 -120t107.5 -39q73 0 122.5 39t63.5 120l78 441h114l-78 -441q-12 -66 -43 -115.5t-74 -81.5t-95 -48t-107 -16q-54 0 -100.5 16t-78 48t-44.5 81.5t-1 115.5zM287 764q10 54 40 83.5t70 29.5q19 0 33.5 -7t26.5 -15q8 -5 17 -9.5
t20 -4.5q23 0 30 34h70q-11 -57 -40 -85t-71 -28q-20 0 -34 7.5t-26 15.5q-9 5 -18 9.5t-19 4.5q-23 0 -29 -35h-70z" />
    <glyph glyph-name="utilde" unicode="&#x169;" horiz-adv-x="649" 
d="M419 65q-33 -35 -79.5 -54t-95.5 -19q-48 0 -87 15t-64.5 44.5t-35 73.5t0.5 102l57 324h113l-54 -307q-13 -76 17.5 -114.5t93.5 -38.5t107 37t58 109l55 314h114l-97 -551h-114zM231 635q10 54 40 83.5t70 29.5q19 0 33.5 -7t26.5 -15q8 -5 17 -9.5t20 -4.5q23 0 30 34
h70q-11 -57 -40 -85t-71 -28q-20 0 -34 7.5t-26 15.5q-9 5 -18 9.5t-19 4.5q-23 0 -29 -35h-70z" />
    <glyph glyph-name="Umacron" unicode="&#x16a;" horiz-adv-x="690" 
d="M145 695h114l-78 -441q-14 -81 21.5 -120t107.5 -39q73 0 122.5 39t63.5 120l78 441h114l-78 -441q-12 -66 -43 -115.5t-74 -81.5t-95 -48t-107 -16q-54 0 -100.5 16t-78 48t-44.5 81.5t-1 115.5zM263 865h366l-15 -85h-366z" />
    <glyph glyph-name="umacron" unicode="&#x16b;" horiz-adv-x="649" 
d="M522 0h-114l11 65q-33 -35 -79.5 -54t-95.5 -19q-48 0 -87 15t-64.5 44.5t-35 73.5t0.5 102l57 324h113l-54 -307q-13 -76 17.5 -114.5t93.5 -38.5t107 37t58 109l55 314h114zM217 720h366l-15 -85h-366z" />
    <glyph glyph-name="Ubreve" unicode="&#x16c;" horiz-adv-x="690" 
d="M145 695h114l-78 -441q-14 -81 21.5 -120t107.5 -39q73 0 122.5 39t63.5 120l78 441h114l-78 -441q-12 -66 -43 -115.5t-74 -81.5t-95 -48t-107 -16q-54 0 -100.5 16t-78 48t-44.5 81.5t-1 115.5zM602 892q-11 -63 -57 -101t-118 -38t-104.5 38.5t-21.5 101.5l4 21h65
q-6 -34 8.5 -53t63.5 -19t70.5 19t27.5 53h66z" />
    <glyph glyph-name="ubreve" unicode="&#x16d;" horiz-adv-x="649" 
d="M522 0h-114l11 65q-33 -35 -79.5 -54t-95.5 -19q-48 0 -87 15t-64.5 44.5t-35 73.5t0.5 102l57 324h113l-54 -307q-13 -76 17.5 -114.5t93.5 -38.5t107 37t58 109l55 314h114zM556 747q-11 -63 -57 -101t-118 -38t-104.5 38.5t-21.5 101.5l4 21h65q-6 -34 8.5 -53
t63.5 -19t70.5 19t27.5 53h66z" />
    <glyph glyph-name="Uring" unicode="&#x16e;" horiz-adv-x="690" 
d="M145 695h114l-78 -441q-14 -81 21.5 -120t107.5 -39q73 0 122.5 39t63.5 120l78 441h114l-78 -441q-12 -66 -43 -115.5t-74 -81.5t-95 -48t-107 -16q-54 0 -100.5 16t-78 48t-44.5 81.5t-1 115.5zM336 859q9 51 46.5 80.5t82.5 29.5q46 0 72 -29.5t17 -80.5t-45.5 -80
t-82.5 -29q-45 0 -72 29t-18 80zM497 860q5 23 -8 37t-35 14q-21 0 -38 -14t-22 -37q-4 -23 8.5 -37t33.5 -14q22 0 39.5 14t21.5 37z" />
    <glyph glyph-name="uring" unicode="&#x16f;" horiz-adv-x="649" 
d="M522 0h-114l11 65q-33 -35 -79.5 -54t-95.5 -19q-48 0 -87 15t-64.5 44.5t-35 73.5t0.5 102l57 324h113l-54 -307q-13 -76 17.5 -114.5t93.5 -38.5t107 37t58 109l55 314h114zM451 715q5 23 -8 37t-35 14q-21 0 -38 -14t-22 -37q-4 -23 8.5 -37t33.5 -14q22 0 39.5 14
t21.5 37zM290 714q9 51 46.5 80.5t82.5 29.5q46 0 72 -29.5t17 -80.5t-45.5 -80t-82.5 -29q-45 0 -72 29t-18 80z" />
    <glyph glyph-name="Uhungarumlaut" unicode="&#x170;" horiz-adv-x="690" 
d="M145 695h114l-78 -441q-14 -81 21.5 -120t107.5 -39q73 0 122.5 39t63.5 120l78 441h114l-78 -441q-12 -66 -43 -115.5t-74 -81.5t-95 -48t-107 -16q-54 0 -100.5 16t-78 48t-44.5 81.5t-1 115.5zM672 916l-138 -170h-74l114 170h98zM495 916l-124 -170h-74l99 170h99z
" />
    <glyph glyph-name="uhungarumlaut" unicode="&#x171;" horiz-adv-x="649" 
d="M522 0h-114l11 65q-33 -35 -79.5 -54t-95.5 -19q-48 0 -87 15t-64.5 44.5t-35 73.5t0.5 102l57 324h113l-54 -307q-13 -76 17.5 -114.5t93.5 -38.5t107 37t58 109l55 314h114zM449 771l-124 -170h-74l99 170h99zM626 771l-138 -170h-74l114 170h98z" />
    <glyph glyph-name="Uogonek" unicode="&#x172;" horiz-adv-x="690" 
d="M145 695h114l-78 -441q-14 -81 21.5 -120t107.5 -39q73 0 122.5 39t63.5 120l78 441h114l-78 -441q-10 -55 -33 -98t-55.5 -74.5t-72.5 -51.5t-83 -29v-1l-53 -25q-35 -17 -50 -32.5t-19 -33.5q-4 -21 8.5 -33.5t38.5 -12.5q29 0 69 14l-13 -73q-19 -7 -40.5 -11
t-43.5 -4q-24 0 -46.5 5.5t-39 18.5t-25 33.5t-3.5 50.5q5 27 23 52.5t54 49.5q-42 9 -76 29t-55.5 51.5t-29.5 75t2 99.5z" />
    <glyph glyph-name="uogonek" unicode="&#x173;" horiz-adv-x="649" 
d="M522 0v-1l-53 -25q-35 -17 -50 -32.5t-19 -33.5q-4 -21 8.5 -33.5t38.5 -12.5q29 0 69 14l-13 -73q-19 -7 -40.5 -11t-43.5 -4q-24 0 -46.5 5.5t-39 18.5t-25 33.5t-3.5 50.5q5 32 30 62t76 58l8 49q-33 -35 -79.5 -54t-95.5 -19q-48 0 -87 15t-64.5 44.5t-35 73.5
t0.5 102l57 324h113l-54 -307q-13 -76 17.5 -114.5t93.5 -38.5t107 37t58 109l55 314h114z" />
    <glyph glyph-name="Wcircumflex" unicode="&#x174;" horiz-adv-x="999" 
d="M90 695h121l44 -566l256 566h128l46 -563l244 563h122l-329 -695h-129l-54 526l-247 -526l-128 -1zM691 746l-127 86l-159 -86l16 89l158 83l128 -83z" />
    <glyph glyph-name="wcircumflex" unicode="&#x175;" horiz-adv-x="825" 
d="M55 551h116l38 -443l194 443h119l35 -441l191 441h112l-268 -551h-120l-38 407l-184 -407h-120zM609 596l-127 86l-159 -86l16 89l158 83l128 -83z" />
    <glyph glyph-name="Ycircumflex" unicode="&#x176;" horiz-adv-x="605" 
d="M86 695h127l100 -339l220 339h128l-308 -443l-45 -252h-114l45 252zM525 741l-127 86l-159 -86l16 89l158 83l128 -83z" />
    <glyph glyph-name="ycircumflex" unicode="&#x177;" horiz-adv-x="582" 
d="M55 551h127l81 -420l235 420h118l-480 -810h-118l159 268zM487 596l-127 86l-159 -86l16 89l158 83l128 -83z" />
    <glyph glyph-name="Ydieresis" unicode="&#x178;" horiz-adv-x="605" 
d="M86 695h127l100 -339l220 339h128l-308 -443l-45 -252h-114l45 252zM301 765q-23 0 -37 14t-14 35q0 29 21.5 50t50.5 21q22 0 36 -14t14 -35q0 -15 -6 -27.5t-16 -22.5t-23 -15.5t-26 -5.5zM473 765q-23 0 -37 14t-14 35q0 29 21.5 50t50.5 21q22 0 36 -14t14 -35
q0 -15 -6 -27.5t-16 -22.5t-23 -15.5t-26 -5.5z" />
    <glyph glyph-name="Zacute" unicode="&#x179;" horiz-adv-x="558" 
d="M563 606l-412 -507h323l-18 -99h-458l16 89l411 507h-322l18 99h458zM497 941l-17 -97l-241 -109l15 84z" />
    <glyph glyph-name="zacute" unicode="&#x17a;" horiz-adv-x="471" 
d="M455 458l-314 -365h250l-17 -93h-382l17 93l315 365h-251l16 93h382zM428 796l-17 -97l-241 -109l15 84z" />
    <glyph glyph-name="Zdotaccent" unicode="&#x17b;" horiz-adv-x="558" 
d="M563 606l-412 -507h323l-18 -99h-458l16 89l411 507h-322l18 99h458zM363 765q-26 0 -40.5 17t-9.5 43q5 25 25 42.5t46 17.5q25 0 39.5 -17.5t9.5 -42.5q-5 -26 -25 -43t-45 -17z" />
    <glyph glyph-name="zdotaccent" unicode="&#x17c;" horiz-adv-x="471" 
d="M455 458l-314 -365h250l-17 -93h-382l17 93l315 365h-251l16 93h382zM294 620q-26 0 -40.5 17t-9.5 43q5 25 25 42.5t46 17.5q25 0 39.5 -17.5t9.5 -42.5q-5 -26 -25 -43t-45 -17z" />
    <glyph glyph-name="Zcaron" unicode="&#x17d;" horiz-adv-x="558" 
d="M563 606l-412 -507h323l-18 -99h-458l16 89l411 507h-322l18 99h458zM532 913l-16 -89l-158 -83l-128 83l16 89l128 -86z" />
    <glyph glyph-name="zcaron" unicode="&#x17e;" horiz-adv-x="471" 
d="M455 458l-314 -365h250l-17 -93h-382l17 93l315 365h-251l16 93h382zM463 768l-16 -89l-158 -83l-128 83l16 89l128 -86z" />
    <glyph glyph-name="uni018F" unicode="&#x18f;" horiz-adv-x="738" 
d="M327 96q44 0 84 13t73 37t56.5 59t34.5 79h-421q-6 -46 4 -81t33.5 -59t58 -36t77.5 -12zM314 -7q-60 0 -111 18t-88 51.5t-58 82.5t-21 112q0 31 6 66t16 68h536q5 47 -5 85.5t-33 66t-57.5 42.5t-79.5 15q-69 0 -123 -30.5t-85 -84.5h-132q25 51 61.5 91.5t82.5 69
t100 43.5t114 15q63 0 115 -20t88.5 -56.5t57 -87t20.5 -110.5q0 -89 -29.5 -168t-82.5 -139t-127.5 -95t-164.5 -35z" />
    <glyph glyph-name="florin" unicode="&#x192;" horiz-adv-x="332" 
d="M143 590q28 95 90 138.5t170 43.5l-26 -95q-53 0 -79.5 -19.5t-39.5 -67.5l-11 -39h101l-25 -93h-102l-148 -522q-23 -85 -72.5 -119t-124.5 -34h-22l27 94h16q24 0 39 13.5t23 45.5l147 522h-65l25 93h66z" />
    <glyph glyph-name="Ohorn" unicode="&#x1a0;" horiz-adv-x="784" 
d="M757 412q0 -91 -31 -167.5t-86.5 -132.5t-131 -87.5t-165.5 -31.5q-67 0 -121.5 21.5t-93.5 60.5t-60 92.5t-21 118.5q0 90 31 167t86.5 132.5t131 87t164.5 31.5q19 0 36.5 -2t34.5 -5q8 -1 17.5 -2t18 -1.5t14.5 -0.5h7q58 2 81.5 25t31.5 63h90q-22 -121 -124 -151
q43 -39 66.5 -94t23.5 -124zM165 293q0 -91 50.5 -144t143.5 -53q63 0 114.5 25t88.5 67t57 98t20 118q0 91 -50.5 143.5t-144.5 52.5q-63 0 -114.5 -24.5t-88 -66.5t-56.5 -97.5t-20 -118.5z" />
    <glyph glyph-name="ohorn" unicode="&#x1a1;" horiz-adv-x="638" 
d="M602 327q0 -71 -26 -132.5t-71.5 -106.5t-107.5 -71t-133 -26q-53 0 -96.5 17t-74 47.5t-47.5 73t-17 94.5q0 70 25 131.5t70 107t106 72t133 26.5q29 0 66 -8q11 -1 19.5 -1.5t10.5 -0.5q29 1 48.5 7.5t32 17.5t19.5 27t11 36h90q-22 -118 -118 -149q60 -63 60 -162z
M147 228q0 -70 37 -105.5t94 -35.5q44 0 82 19t65.5 51.5t43 74.5t15.5 88q0 36 -11 63t-30 45t-43.5 27t-52.5 9q-45 0 -82 -19.5t-63 -52t-40.5 -75.5t-14.5 -89z" />
    <glyph glyph-name="Uhorn" unicode="&#x1af;" horiz-adv-x="690" 
d="M145 695h114l-78 -441q-14 -81 21.5 -120t107.5 -39q73 0 122.5 39t63.5 120l78 441h56q43 6 61 28.5t25 57.5h90q-23 -125 -130 -153l-66 -374q-12 -66 -43 -115.5t-74 -81.5t-95 -48t-107 -16q-54 0 -100.5 16t-78 48t-44.5 81.5t-1 115.5z" />
    <glyph glyph-name="uhorn" unicode="&#x1b0;" horiz-adv-x="649" 
d="M747 638q-12 -66 -47 -104t-93 -52l-85 -482h-114l11 65q-33 -35 -79.5 -54t-95.5 -19q-48 0 -87 15t-64.5 44.5t-35 73.5t0.5 102l57 324h113l-54 -307q-13 -76 17.5 -114.5t93.5 -38.5t107 37t58 109l55 314h55q50 5 70 27t27 60h90z" />
    <glyph glyph-name="uni01FC" unicode="&#x1fc;" horiz-adv-x="921" 
d="M750 943l-17 -97l-241 -109l15 84zM251 231h210l68 386zM641 607l-37 -211h239l-15 -88h-239l-39 -219h269l-16 -89h-383l25 142h-259l-102 -142h-124l506 696h460l-16 -89h-269z" />
    <glyph glyph-name="uni01FD" unicode="&#x1fd;" horiz-adv-x="1088" 
d="M800 464q-31 0 -60.5 -10.5t-55 -29t-45 -45.5t-30.5 -60h326q5 33 -3 60t-26 45.5t-45 29t-61 10.5zM1010 164q-18 -36 -45 -67.5t-62 -55t-77 -37t-90 -13.5q-63 0 -109 26t-68 66l-15 -83h-107l15 83q-38 -38 -91.5 -65t-116.5 -27q-54 0 -98 21t-72.5 59t-39.5 90.5
t0 116.5t40.5 116t72 89t94.5 57t109 20q118 0 171 -87l13 78h107l-13 -78q48 48 98 67.5t110 19.5q57 0 101.5 -20t72 -56t38 -85.5t0.5 -107.5q-2 -13 -5.5 -26.5t-8.5 -27.5h-439q-2 -37 9 -65t30.5 -47t45.5 -28.5t53 -9.5q57 0 95 22t58 55h124zM151 278q-8 -45 0 -80
t27 -59t47 -36.5t60 -12.5t64.5 12.5t60 36t47.5 58t28 79.5q8 44 0 78.5t-27 58t-47 36t-60 12.5t-64 -12t-60 -35t-48 -57t-28 -79zM800 796l-17 -97l-241 -109l15 84z" />
    <glyph glyph-name="uni0218" unicode="&#x218;" horiz-adv-x="604" 
d="M291 -46q3 -28 2 -52.5t-5 -46.5q-23 -125 -135 -125l9 50q26 0 40 14t19 43l3 21h-53l17 96h103zM530 193q0 -44 -18.5 -80.5t-52 -63t-80.5 -41.5t-104 -15q-51 0 -94.5 13t-74 38.5t-46 62.5t-9.5 85h113q-4 -45 26 -76t90 -31t96 24t36 75q0 34 -23.5 56t-59.5 39
t-77.5 33t-77.5 38.5t-60.5 56.5t-25.5 87q-1 49 17.5 88t51.5 66t79 41.5t100 14.5t96.5 -13.5t71.5 -38.5t43.5 -59.5t12.5 -77.5h-120q4 39 -24 67.5t-85 28.5t-92 -26t-35 -72q0 -33 24 -55t60.5 -40t78.5 -35.5t78.5 -42t60.5 -59.5t24 -88z" />
    <glyph glyph-name="uni0219" unicode="&#x219;" horiz-adv-x="534" 
d="M256 -46q4 -56 -3 -99q-23 -125 -135 -125l9 50q26 0 40 14t19 43l3 21h-53l17 96h103zM455 152q0 -38 -17.5 -67.5t-48 -50.5t-72.5 -32t-91 -11q-46 0 -86 13t-68 36.5t-41.5 56.5t-7.5 72h111q-4 -38 22 -63t77 -25q45 0 77.5 16t32.5 51q0 25 -20.5 40.5t-50.5 28.5
t-66 26t-66 32.5t-50.5 48.5t-20.5 74q0 36 16 66t44.5 51.5t69 33t88.5 11.5q46 0 85 -13t66 -36t40 -55.5t8 -72.5h-108q4 39 -21.5 63t-76.5 24q-43 0 -69.5 -18t-26.5 -49q0 -26 20 -43t50 -30.5t65.5 -27t65.5 -32.5t50 -47t20 -71z" />
    <glyph glyph-name="uni021A" unicode="&#x21a;" horiz-adv-x="564" 
d="M271 -46q2 -28 1 -52.5t-5 -46.5q-23 -125 -134 -125l9 50q48 0 59 57l3 21h-53l17 96h103zM110 695h485l-16 -89h-185l-107 -606h-114l107 606h-186z" />
    <glyph glyph-name="uni021B" unicode="&#x21b;" horiz-adv-x="372" 
d="M175 -46q3 -28 2 -52.5t-5 -46.5q-23 -125 -135 -125l9 50q26 0 40 14t19 43l3 21h-53l17 96h103zM122 458h-65l16 93h66l24 137h115l-24 -137h133l-16 -93h-134l-54 -305q-5 -31 6.5 -44.5t47.5 -13.5h70l-17 -95h-90q-74 0 -110 34.5t-22 118.5z" />
    <glyph glyph-name="uni0259" unicode="&#x259;" horiz-adv-x="617" 
d="M280 87q60 0 109 38t68 107h-306q-5 -34 2.5 -61t25 -45.5t43.5 -28.5t58 -10zM258 -9q-59 0 -105 19.5t-75.5 55t-40.5 85t0 109.5q2 13 5.5 26.5t8.5 27.5h421q8 70 -29.5 110t-101.5 40q-54 0 -88 -22.5t-55 -54.5h-123q18 36 45.5 67.5t63.5 55t79.5 37t94.5 13.5
q59 0 106 -20t77.5 -57.5t42 -90t-0.5 -117.5t-41.5 -117.5t-72 -89.5t-96.5 -57t-115 -20z" />
    <glyph glyph-name="uni02BC" unicode="&#x2bc;" horiz-adv-x="242" 
d="M81 457l103 238h124l-147 -238h-80z" />
    <glyph glyph-name="circumflex" unicode="&#x2c6;" horiz-adv-x="306" 
d="M349 596l-127 86l-159 -86l16 89l158 83l128 -83z" />
    <glyph glyph-name="caron" unicode="&#x2c7;" horiz-adv-x="306" 
d="M380 768l-16 -89l-158 -83l-128 83l16 89l128 -86z" />
    <glyph glyph-name="uni02C9" unicode="&#x2c9;" horiz-adv-x="386" 
d="M85 720h366l-15 -85h-366z" />
    <glyph glyph-name="breve" unicode="&#x2d8;" horiz-adv-x="321" 
d="M391 747q-11 -63 -57 -101t-118 -38t-104.5 38.5t-21.5 101.5l4 21h65q-6 -34 8.5 -53t63.5 -19t70.5 19t27.5 53h66z" />
    <glyph glyph-name="dotaccent" unicode="&#x2d9;" horiz-adv-x="140" 
d="M128 620q-26 0 -40.5 17t-9.5 43q5 25 25 42.5t46 17.5q25 0 39.5 -17.5t9.5 -42.5q-5 -26 -25 -43t-45 -17z" />
    <glyph glyph-name="ring" unicode="&#x2da;" horiz-adv-x="238" 
d="M84 714q9 51 46.5 80.5t82.5 29.5q46 0 72 -29.5t17 -80.5t-45.5 -80t-82.5 -29q-45 0 -72 29t-18 80zM245 715q5 23 -8 37t-35 14q-21 0 -38 -14t-22 -37q-4 -23 8.5 -37t33.5 -14q22 0 39.5 14t21.5 37z" />
    <glyph glyph-name="ogonek" unicode="&#x2db;" horiz-adv-x="234" 
d="M138 58l19 -58l-53 -25q-35 -17 -50 -32.5t-19 -33.5q-4 -21 8.5 -33.5t38.5 -12.5q29 0 69 14l-13 -73q-19 -7 -40.5 -11t-43.5 -4q-24 0 -46.5 5.5t-39 18.5t-25 33.5t-3.5 50.5q7 38 41.5 74t110.5 68z" />
    <glyph glyph-name="tilde" unicode="&#x2dc;" horiz-adv-x="356" 
d="M66 608q18 60 53 88.5t80 28.5q20 0 34 -7t25.5 -15t22.5 -15t26 -7q17 0 30.5 10t20.5 32h64q-19 -60 -54 -88.5t-80 -28.5q-20 0 -34 7t-25.5 15.5t-22.5 15.5t-26 7q-37 0 -50 -43h-64z" />
    <glyph glyph-name="hungarumlaut" unicode="&#x2dd;" horiz-adv-x="365" 
d="M439 771l-138 -170h-74l114 170h98zM262 771l-124 -170h-74l99 170h99z" />
    <glyph glyph-name="gravecomb" unicode="&#x300;" horiz-adv-x="5" 
d="M-141 1006l84 -109l-65 -45l-88 103z" />
    <glyph glyph-name="acutecomb" unicode="&#x301;" horiz-adv-x="6" 
d="M-12 955l-110 -101l-62 46l107 108z" />
    <glyph glyph-name="tildecomb" unicode="&#x303;" horiz-adv-x="5" 
d="M-387 907q8 48 36.5 75t68.5 27q19 0 33.5 -6t28.5 -14q7 -5 16.5 -9t20.5 -4q22 0 28 31h70q-8 -51 -35.5 -76.5t-69.5 -25.5q-20 0 -34.5 6.5t-26.5 14.5q-9 4 -18.5 8.5t-19.5 4.5q-22 0 -28 -32h-70z" />
    <glyph glyph-name="hookabovecomb" unicode="&#x309;" horiz-adv-x="5" 
d="M-205 945q11 38 44.5 56.5t75.5 18.5q40 0 63.5 -20.5t16.5 -53.5q-4 -18 -13 -31.5t-20.5 -22t-24.5 -13t-25 -5.5l-5 -17h-59l9 56q35 0 52 9.5t20 23.5q5 25 -25 25q-31 0 -43 -26h-66z" />
    <glyph glyph-name="dotbelowcomb" unicode="&#x323;" horiz-adv-x="5" 
d="M-442 -226q-29 0 -48.5 19t-19.5 48q0 28 19.5 46.5t48.5 18.5q28 0 47 -18.5t19 -46.5q0 -29 -19 -48t-47 -19z" />
    <glyph glyph-name="pi" unicode="&#x3c0;" horiz-adv-x="706" 
d="M76 551h639l-15 -89h-77l-82 -462h-113l82 462h-259l-82 -462h-114l82 462h-76z" />
    <glyph glyph-name="dvCandrabindu" unicode="&#x901;" horiz-adv-x="0" 
d="M-67 816q-50 0 -88.5 14.5t-62.5 39.5t-33.5 59t-2.5 73h84q-3 -21 1.5 -40.5t17.5 -35t35.5 -25t55.5 -9.5t59 9.5t44.5 25t30 35t15.5 40.5h85q-7 -39 -25.5 -73t-48.5 -59t-72 -39.5t-95 -14.5zM-44 983q-20 0 -31 13.5t-7 33.5q3 20 19 33.5t36 13.5q21 0 32 -13.5
t7 -33.5t-19.5 -33.5t-36.5 -13.5z" />
    <glyph glyph-name="dvAnusvara" unicode="&#x902;" horiz-adv-x="0" 
d="M-71 829q-28 0 -44 19t-11 47t27 47t50 19q29 0 45 -19t11 -47t-27.5 -47t-50.5 -19z" />
    <glyph glyph-name="dvVisarga" unicode="&#x903;" horiz-adv-x="246" 
d="M138 419q-28 0 -44 19t-11 47t27.5 47t50.5 19t44 -19t11 -47t-27.5 -47t-50.5 -19zM85 119q-28 0 -44 19t-11 47t27.5 47t50.5 19t44 -19t11 -47t-27.5 -47t-50.5 -19z" />
    <glyph glyph-name="dvA" unicode="&#x905;" horiz-adv-x="830" 
d="M292 456q29 0 52.5 8.5t40.5 22.5t27.5 32t14.5 37q8 49 -18.5 76.5t-71.5 27.5q-48 0 -85 -26.5t-45 -74.5h-97q7 43 29 78.5t54 60t73 38t87 13.5q45 0 79.5 -12.5t57 -36t31.5 -56.5t2 -74q-10 -57 -47 -97t-97 -56l-1 -2q25 -6 49 -20h205l60 345h226l-14 -88h-122
l-116 -652h-104l54 308l-138 1q3 -15 2.5 -30t-2.5 -31q-8 -44 -29 -79.5t-52.5 -61t-71.5 -39t-86 -13.5q-50 0 -89 15t-64 42t-35 64.5t-2 83.5h99q-9 -51 18.5 -83t81.5 -32t90.5 31t44.5 82q2 13 2 26t-4 25h-1v3q-8 25 -32.5 42t-70.5 17h-41l15 85h41z" />
    <glyph glyph-name="dvAA" unicode="&#x906;" horiz-adv-x="1130" 
d="M292 456q29 0 52.5 8.5t40.5 22.5t27.5 32t14.5 37q8 49 -18.5 76.5t-71.5 27.5q-48 0 -85 -26.5t-45 -74.5h-97q7 43 29 78.5t54 60t73 38t87 13.5q45 0 79.5 -12.5t57 -36t31.5 -56.5t2 -74q-10 -57 -47 -97t-97 -56l-1 -2q25 -6 49 -20h205l60 345h527l-16 -88h-121
l-115 -652h-105l115 652h-195l-116 -652h-104l54 308l-138 1q3 -15 2.5 -30t-2.5 -31q-8 -44 -29 -79.5t-52.5 -61t-71.5 -39t-86 -13.5q-50 0 -89 15t-64 42t-35 64.5t-2 83.5h99q-9 -51 18.5 -83t81.5 -32t90.5 31t44.5 82q2 13 2 26t-4 25h-1v3q-8 25 -32.5 42t-70.5 17
h-41l15 85h41z" />
    <glyph glyph-name="dvI" unicode="&#x907;" horiz-adv-x="584" 
d="M40 740h644l-15 -88h-146l-19 -106l-14 -76h-179q-18 0 -37.5 -3t-36 -11t-28.5 -22.5t-16 -36.5q-4 -20 1 -33.5t16.5 -21.5t28 -12t36.5 -4h44q38 0 73.5 -9.5t61 -30.5t37.5 -55.5t3 -83.5q-6 -35 -22.5 -65t-43 -51.5t-62 -33.5t-79.5 -12q-36 0 -61.5 9t-42.5 21.5
t-26.5 26.5t-13.5 24l-25 -145h-99l45 256h94q-4 -51 24.5 -82t89.5 -31q54 0 85 27t38 64q5 28 -2.5 46.5t-23 29.5t-37.5 15.5t-46 4.5h-55q-32 1 -60.5 10.5t-49 28t-30 46t-2.5 65.5q7 40 27 68t48.5 45t63 24.5t69.5 7.5h106l18 106h-396z" />
    <glyph glyph-name="dvII" unicode="&#x908;" horiz-adv-x="580" 
d="M118 -79h-99l45 256h94q-4 -51 24.5 -82t89.5 -31q54 0 85.5 27t37.5 64q4 28 -3 46.5t-22.5 29.5t-37 15.5t-46.5 4.5h-55q-32 1 -60.5 10.5t-49 28t-30 46t-2.5 65.5q7 40 27 68t48.5 45t63 24.5t69.5 7.5h106l19 106h-396l15 88h398l13 71q7 41 22.5 77.5t41 63.5
t62 43t85.5 16q85 0 120 -49t18 -130h-92q8 42 -8 66.5t-52 24.5q-82 0 -101 -111l-12 -72h149l-15 -88h-146l-24 -132h-1l-9 -50h-179q-18 0 -37.5 -3t-36 -11t-28.5 -22.5t-16 -36.5q-4 -20 1 -33.5t16.5 -21.5t28 -12t36.5 -4h44q38 0 73.5 -9.5t61 -30.5t37.5 -55.5
t3 -83.5q-6 -35 -22.5 -65t-43 -51.5t-62 -33.5t-79.5 -12q-36 0 -61.5 9t-42.5 21.5t-26.5 26.5t-13.5 24z" />
    <glyph glyph-name="dvU" unicode="&#x909;" horiz-adv-x="572" 
d="M41 740h620l-16 -88h-111l-16 -91q-11 -63 -47.5 -102.5t-84.5 -48.5l-1 -2q29 -7 51 -24.5t35.5 -42.5t17.5 -56.5t-2 -65.5q-9 -47 -31 -87t-55.5 -68.5t-77.5 -44.5t-97 -16t-95 16.5t-69 46t-37.5 71.5t-1.5 93h100q-5 -29 1 -53t21.5 -42t39 -28t53.5 -10
q60 0 100 36.5t51 93.5q4 24 1 47.5t-16 42.5t-36.5 31t-60.5 12h-50l16 92h36q58 0 94 31.5t45 83.5l15 85h-407z" />
    <glyph glyph-name="dvUU" unicode="&#x90a;" horiz-adv-x="860" 
d="M41 740h908l-15 -88h-400l-16 -91q-11 -63 -47.5 -102.5t-84.5 -48.5l-1 -2h199q49 0 89.5 -11t67.5 -35t38.5 -61.5t2.5 -89.5q-9 -46 -29.5 -81t-50 -58t-67 -35t-79.5 -12q-12 0 -24.5 1t-25.5 3l15 80q8 -1 16 -1h16q45 0 81.5 24t47.5 83q5 30 -1.5 50.5t-22 33.5
t-38 19t-49.5 6h-96q20 -47 9 -110q-8 -45 -30 -84t-55 -67t-77 -44t-96 -16q-53 0 -95 16.5t-69 46t-37.5 71.5t-1.5 93h100q-5 -29 1 -53t21.5 -42t39 -28t53.5 -10q60 0 100 36.5t51 93.5q4 24 1 47.5t-16 42.5t-36.5 31t-60.5 12h-50l16 92h36q58 0 94 31.5t45 83.5
l15 85h-407z" />
    <glyph glyph-name="dvvR" unicode="&#x90b;" horiz-adv-x="1030" 
d="M470 244l-291 -244h-132l1 6l440 344q-2 51 -35.5 84t-93.5 33q-38 0 -71 -12.5t-59 -35t-43.5 -54.5t-24.5 -72h-105q10 59 36 107.5t64 83t86 53.5t103 19q63 0 103.5 -23.5t60.5 -65.5l33 185h-516l15 88h1078l-15 -88h-465l-37 -210h169q39 0 60.5 16.5t28.5 45.5
l6 39l1 3l3 17h91l-62 -353h-21q-54 0 -85.5 -27.5t-38.5 -67.5q-5 -26 0.5 -43.5t19 -28.5t32.5 -16t42 -5q15 0 30.5 2.5t27.5 5.5l-15 -84q-14 -3 -34 -5.5t-37 -2.5q-41 0 -75.5 10.5t-57.5 31.5t-33 52.5t-2 73.5q12 66 56.5 108t110.5 56l19 108q-46 -20 -97 -20h-154
l-63 -358h-97z" />
    <glyph glyph-name="dvvL" unicode="&#x90c;" horiz-adv-x="902" 
d="M38 740h949l-16 -88h-238l-21 -118q63 -17 94.5 -74.5t15.5 -151.5q-5 -27 -13 -52t-21 -48h-7q-63 0 -96 -27t-40 -69q-5 -25 1 -42.5t19.5 -28.5t33 -16t42.5 -5q30 0 59 8l-15 -84q-37 -8 -72 -8q-42 0 -76.5 10.5t-57.5 32t-33 53.5t-2 75q10 61 55.5 103.5
t107.5 54.5q4 11 6.5 21.5t4.5 22.5q5 29 2.5 54.5t-13.5 44t-30.5 29.5t-48.5 11q-31 0 -56.5 -12.5t-44.5 -34t-31.5 -51.5t-17.5 -66l-4 -21h-87l3 21q5 35 3 65t-12 52t-29 34.5t-49 12.5q-61 0 -98.5 -40t-48.5 -101q-13 -72 17 -113.5t99 -41.5q6 0 13.5 0.5t16.5 1.5
l-17 -92q-11 -1 -19 -1h-16q-60 0 -102.5 18t-67 51t-32 78.5t1.5 99.5q10 56 33.5 99.5t57 73t75 45t87.5 15.5q38 0 65 -12t44.5 -31t26.5 -44t12 -50h3q20 45 58 82t98 50l21 116h-609z" />
    <glyph glyph-name="dvEcandra" unicode="&#x90d;" horiz-adv-x="652" 
d="M384 832q-56 0 -93.5 15t-59.5 40.5t-28.5 59.5t0.5 72h90q-4 -20 -0.5 -39.5t16 -34.5t34.5 -24.5t55 -9.5q32 0 57 9.5t42.5 24.5t28 34.5t14.5 39.5h90q-6 -38 -24.5 -72t-49.5 -59.5t-74 -40.5t-98 -15zM15 740h700l-16 -88h-105l-18 -105q-20 -112 -78 -165
t-173 -39l16 94q60 -6 91 20.5t43 92.5l18 102h-269l-67 -383q-14 -76 16.5 -118t99.5 -42q63 0 101.5 36t49.5 102h102q-18 -109 -85.5 -168.5t-176.5 -59.5q-62 0 -106.5 18.5t-71 52t-35 80t1.5 102.5l66 380h-119z" />
    <glyph glyph-name="dvE" unicode="&#x90f;" horiz-adv-x="651" 
d="M40 740h700l-16 -88h-105l-18 -105q-20 -112 -78 -165t-173 -39l16 94q60 -6 91 20.5t43 92.5l18 102h-269l-67 -383q-14 -76 16.5 -118t99.5 -42q63 0 101.5 36t49.5 102h102q-18 -109 -85.5 -168.5t-176.5 -59.5q-62 0 -106.5 18.5t-71 52t-35 80t1.5 102.5l66 380
h-119z" />
    <glyph glyph-name="dvAI" unicode="&#x910;" horiz-adv-x="651" 
d="M289 19q-62 0 -106.5 18.5t-71 52t-35 80t1.5 102.5l66 380h-119l15 88h490q-26 55 -46 87t-40.5 48.5t-45 21t-60.5 4.5h-44l15 86h43q52 0 89 -7t67.5 -32t58.5 -74t62 -134h111l-16 -88h-105l-18 -105q-20 -112 -78 -165t-173 -39l16 94q60 -6 91 20.5t43 92.5l18 102
h-269l-67 -383q-14 -76 16.5 -118t99.5 -42q63 0 101.5 36t49.5 102h102q-18 -109 -85.5 -168.5t-176.5 -59.5z" />
    <glyph glyph-name="dvOcandra" unicode="&#x911;" horiz-adv-x="1130" 
d="M292 456q29 0 52.5 8.5t40.5 22.5t27.5 32t14.5 37q8 49 -18.5 76.5t-71.5 27.5q-48 0 -85 -26.5t-45 -74.5h-97q7 43 29 78.5t54 60t73 38t87 13.5q45 0 79.5 -12.5t57 -36t31.5 -56.5t2 -74q-10 -57 -47 -97t-97 -56l-1 -2q25 -6 49 -20h205l60 345h527l-16 -88h-121
l-115 -652h-105l115 652h-195l-116 -652h-104l54 308l-138 1q3 -15 2.5 -30t-2.5 -31q-8 -44 -29 -79.5t-52.5 -61t-71.5 -39t-86 -13.5q-50 0 -89 15t-64 42t-35 64.5t-2 83.5h99q-9 -51 18.5 -83t81.5 -32t90.5 31t44.5 82q2 13 2 26t-4 25h-1v3q-8 25 -32.5 42t-70.5 17
h-41l15 85h41zM967 832q-56 0 -94.5 15t-61.5 40.5t-30.5 59t-0.5 71.5h91q-4 -20 -0.5 -39.5t15.5 -34.5t34 -24t55 -9q32 0 57 9t42.5 24t28.5 34.5t15 39.5h90q-7 -38 -24.5 -71.5t-47 -59t-71.5 -40.5t-98 -15z" />
    <glyph glyph-name="dvO" unicode="&#x913;" horiz-adv-x="1130" 
d="M562 0l54 308l-138 1q3 -15 2.5 -30t-2.5 -31q-8 -44 -29 -79.5t-52.5 -61t-71.5 -39t-86 -13.5q-50 0 -89 15t-64 42t-35 64.5t-2 83.5h99q-9 -51 18.5 -83t81.5 -32t90.5 31t44.5 82q2 13 2 26t-4 25h-1v3q-8 25 -32.5 42t-70.5 17h-41l15 85h41q29 0 52.5 8.5
t40.5 22.5t27.5 32t14.5 37q8 49 -18.5 76.5t-71.5 27.5q-48 0 -85 -26.5t-45 -74.5h-97q7 43 29 78.5t54 60t73 38t87 13.5q45 0 79.5 -12.5t57 -36t31.5 -56.5t2 -74q-10 -57 -47 -97t-97 -56l-1 -2q25 -6 49 -20h205l60 345h345q-26 55 -46 87t-40.5 48.5t-45 21
t-59.5 4.5h-45l15 86h43q52 0 89 -7t67.5 -32t58.5 -74t62 -134h83l-16 -88h-121l-115 -652h-105l115 652h-195l-116 -652h-104z" />
    <glyph glyph-name="dvAU" unicode="&#x914;" horiz-adv-x="1130" 
d="M562 0l54 308l-138 1q3 -15 2.5 -30t-2.5 -31q-8 -44 -29 -79.5t-52.5 -61t-71.5 -39t-86 -13.5q-50 0 -89 15t-64 42t-35 64.5t-2 83.5h99q-9 -51 18.5 -83t81.5 -32t90.5 31t44.5 82q2 13 2 26t-4 25h-1v3q-8 25 -32.5 42t-70.5 17h-41l15 85h41q29 0 52.5 8.5
t40.5 22.5t27.5 32t14.5 37q8 49 -18.5 76.5t-71.5 27.5q-48 0 -85 -26.5t-45 -74.5h-97q7 43 29 78.5t54 60t73 38t87 13.5q45 0 79.5 -12.5t57 -36t31.5 -56.5t2 -74q-10 -57 -47 -97t-97 -56l-1 -2q25 -6 49 -20h205l60 345h350q-36 31 -59.5 48.5t-45.5 26t-47.5 10.5
t-65.5 2h-46l12 67h44q37 0 62.5 -1.5t47.5 -8.5t44 -22.5t51 -42.5q-23 59 -43 92t-41.5 48.5t-45.5 19t-55 3.5h-48l12 68h45q51 0 86 -6.5t63.5 -37t56.5 -93t66 -173.5h84l-16 -88h-121l-115 -652h-105l115 652h-195l-116 -652h-104z" />
    <glyph glyph-name="dvKA" unicode="&#x915;" horiz-adv-x="986" 
d="M416 181q-29 -42 -75 -67.5t-109 -25.5q-45 0 -82 16.5t-61 47.5t-33 74.5t1 96.5q9 52 32 94t56 72t75 46t90 16q66 0 103 -25.5t52 -67.5l34 194h-473l15 88h1033l-15 -88h-460l-34 -193q28 40 72.5 66t104.5 26q46 0 81.5 -17.5t58 -48.5t31 -73.5t-0.5 -92.5
q-10 -55 -33 -97t-56 -70.5t-73.5 -43t-85.5 -14.5q-37 0 -62 7l14 83q15 -4 37 -4q27 0 52 9.5t46 27.5t35.5 44t20.5 60q11 63 -20 101.5t-88 38.5q-34 0 -60.5 -12t-46 -31.5t-32.5 -44.5t-19 -52l-56 -321h-101zM277 176q36 0 63.5 12.5t48 32.5t33 44.5t17.5 47.5l1 6
q4 25 0.5 50.5t-17 46t-37.5 33t-60 12.5q-29 0 -55.5 -10t-48.5 -28t-37.5 -44t-21.5 -59q-6 -34 0 -60.5t21.5 -45t39 -28.5t53.5 -10z" />
    <glyph glyph-name="dvKHA" unicode="&#x916;" horiz-adv-x="941" 
d="M709 200q-25 -31 -63 -51t-90 -20q-19 0 -35 3q-40 -57 -103 -96.5t-147 -39.5q-59 0 -103.5 17t-72.5 50t-38 80.5t1 109.5l26 147h32q30 0 57 7t49 23.5t37.5 44t22.5 69.5l18 108h-274l16 88h988l-16 -88h-121l-114 -652h-105zM591 210q31 0 55.5 11t42 29t28.5 40
t15 44t1 44t-14.5 40t-33 29t-53.5 11q-51 0 -91 -32t-51 -90q-10 -60 20 -93t81 -33zM290 87q57 0 95.5 25t61.5 58q-31 29 -44 74t-3 102q7 45 28 81t51 61.5t67.5 38.5t77.5 12q54 -1 85.5 -21t46.5 -50l32 184h-383l-20 -121q-10 -54 -30 -92.5t-48 -63.5t-62 -37.5
t-71 -13.5l-14 -83q-12 -69 21.5 -111.5t108.5 -42.5z" />
    <glyph glyph-name="dvGA" unicode="&#x917;" horiz-adv-x="766" 
d="M612 652h-163l-45 -257q-6 -39 -21.5 -73t-40.5 -59.5t-60.5 -40t-81.5 -14.5q-85 0 -126 49.5t-26 131.5q2 8 3 15.5t3 15.5h102l-6 -31q-3 -17 -2 -33.5t7 -29.5t19 -20.5t34 -7.5q22 0 38 8t26.5 21.5t16.5 30t9 33.5l47 261h-319l15 88h813l-15 -88h-122l-115 -652
h-104z" />
    <glyph glyph-name="dvGHA" unicode="&#x918;" horiz-adv-x="707" 
d="M291 188q38 0 73 12.5t63.5 34.5t48 53t26.5 69l51 295h-305l-12 -63q-8 -52 15 -80.5t89 -28.5h45l-15 -85h-53q-69 0 -104 -29t-42 -71q-5 -27 2 -47t23.5 -33.5t40.5 -20t54 -6.5zM41 740h755l-16 -88h-121l-114 -652h-106l36 205q-40 -49 -97 -76t-126 -27
q-45 0 -83.5 12t-65 35t-38 57.5t-3.5 78.5q6 32 21 57.5t36 44.5t45.5 31t50.5 17v2q-45 8 -70.5 43t-13.5 104l12 68h-117z" />
    <glyph glyph-name="dvNGA" unicode="&#x919;" horiz-adv-x="673" 
d="M587 326q-26 0 -40.5 17.5t-9.5 42.5q5 26 25.5 43.5t46.5 17.5t40.5 -17.5t9.5 -43.5q-5 -25 -25.5 -42.5t-46.5 -17.5zM43 740h719l-15 -88h-227l-20 -107h1l-13 -75h-179q-18 0 -37.5 -3t-36 -11t-28.5 -22t-16 -36q-3 -20 2 -34t16.5 -22.5t27.5 -12t35 -3.5h44
q40 0 75.5 -10t60.5 -31t36.5 -54t3.5 -79q-14 -75 -74.5 -121.5t-166.5 -46.5q-56 0 -99.5 14t-72.5 39t-41.5 60.5t-5.5 79.5h104q-8 -51 23.5 -82t98.5 -31q57 0 92 26t42 66q5 27 -2 45t-22 29.5t-37 16t-46 4.5h-39q-29 0 -60.5 7.5t-56 24.5t-37.5 46t-5 72
q7 39 27 66.5t48 45t62 25t69 7.5h106l19 107h-390z" />
    <glyph glyph-name="dvCA" unicode="&#x91a;" horiz-adv-x="740" 
d="M41 740h788l-16 -88h-121l-115 -652h-105l34 191q-36 -45 -89 -70.5t-116 -25.5q-44 0 -79.5 13.5t-59.5 38.5t-34 61.5t-2 83.5q8 48 34 86t68 62h-166l15 83h365l-15 -83h-37q-32 0 -59 -10t-48 -27t-35.5 -41.5t-19.5 -52.5q-6 -31 1 -54.5t23.5 -39.5t41 -24.5
t53.5 -8.5q36 0 67 13.5t55.5 36.5t41 54t23.5 67l53 299h-561z" />
    <glyph glyph-name="dvCHA" unicode="&#x91b;" horiz-adv-x="817" 
d="M39 740h867l-16 -88h-209l-19 -110q60 -15 89.5 -66t14.5 -139q-13 -72 -49.5 -130t-92.5 -98.5t-129 -62t-159 -21.5q-70 0 -128 15t-97.5 44t-57 71t-6.5 96q12 66 56 105t102 51v3q-22 4 -40 14.5t-30 28.5t-16 43.5t2 60.5l17 95h-114zM352 115q64 0 118.5 15
t96.5 44t69.5 71t37.5 96q6 31 2 55t-14.5 40t-27 24.5t-35.5 8.5q-17 0 -34.5 -6t-33 -18.5t-27 -32.5t-16.5 -48q-4 -20 -3.5 -42.5t3.5 -45.5h-87q-8 48 1 99q7 39 22.5 67.5t37 48.5t47.5 32.5t55 18.5l20 110h-341l-16 -91q-9 -52 12.5 -80.5t84.5 -28.5h22l-15 -85
h-20q-71 0 -110 -33t-47 -79q-12 -69 40.5 -104.5t157.5 -35.5z" />
    <glyph glyph-name="dvJA" unicode="&#x91c;" horiz-adv-x="846" 
d="M41 740h894l-16 -88h-121l-115 -652h-105l72 406h-168l-14 -76q-8 -46 -28 -84t-50.5 -65.5t-70.5 -43t-88 -15.5q-47 0 -82 15.5t-57 43.5t-30 66.5t0 85.5l29 163h105l-29 -164q-10 -54 10 -86t68 -32t79.5 32t41.5 86l29 164h270l28 156h-667z" />
    <glyph glyph-name="dvJHA" unicode="&#x91d;" horiz-adv-x="862" 
d="M653 326l57 326h-187l-19 -106l-14 -76h-179q-18 0 -37 -3t-35.5 -11t-29 -22.5t-16.5 -36.5q-4 -20 1 -33.5t16.5 -21.5t28 -12t36.5 -4h378zM639 246l-169 1q14 -19 19.5 -45t-0.5 -60q-6 -32 -21.5 -59.5t-40 -48t-58.5 -32t-76 -11.5q-35 0 -60.5 8.5t-43 20
t-27.5 24t-14 20.5l-25 -143h-100l45 250h94q-2 -42 25 -72t89 -30q54 0 83.5 25.5t35.5 60.5q8 45 -19.5 70.5t-88.5 25.5h-56q-31 1 -60 10t-50 27.5t-30.5 47t-2.5 68.5t27.5 67.5t49 44t63 23.5t69.5 7h106l18 106h-388l16 88h902l-16 -88h-122l-114 -652h-103z" />
    <glyph glyph-name="dvNYA" unicode="&#x91e;" horiz-adv-x="817" 
d="M41 740h865l-16 -88h-121l-115 -652h-105l49 276h-99q-13 -43 -37 -79t-57.5 -62.5t-75 -41t-90.5 -14.5q-50 0 -87 14t-61.5 38.5t-36 57t-9.5 70.5h99q4 -36 30 -63.5t80 -27.5q33 0 60.5 12t48 32t33.5 47t18 57q5 29 1.5 55.5t-16.5 47t-36 32.5t-56 12q-27 0 -50 -8
t-41 -20.5t-31.5 -29t-20.5 -33.5h-99q11 38 33.5 71t55.5 57t75.5 38t92.5 14q48 0 84 -14t60.5 -38.5t36.5 -59t11 -75.5h99l51 287h-638z" />
    <glyph glyph-name="dvTTA" unicode="&#x91f;" horiz-adv-x="646" 
d="M39 740h696l-16 -88h-201l-34 -193h-111q-40 0 -76.5 -10.5t-66 -31.5t-50 -53t-28.5 -75q-6 -36 1.5 -65.5t26.5 -51t48 -33.5t67 -12t71.5 12.5t59.5 35t43 53.5t23 69h100q-10 -59 -36.5 -107t-66 -82t-92 -53t-113.5 -19q-60 0 -108 18.5t-80 52.5t-45.5 81.5
t-3.5 104.5q11 63 40.5 111t73.5 80t100 48t121 16h15l18 104h-392z" />
    <glyph glyph-name="dvTTHA" unicode="&#x920;" horiz-adv-x="671" 
d="M291 130q36 0 69 12t59.5 33.5t44.5 51t24 65.5t-1 66.5t-25 52.5t-46.5 34.5t-66.5 12.5q-36 0 -68.5 -11.5t-59 -33t-44.5 -51t-24 -65.5t1 -66.5t25 -53t46.5 -35t65.5 -12.5zM280 42q-56 0 -103.5 18.5t-79.5 52.5t-45.5 81.5t-2.5 105.5q9 53 33.5 95.5t59.5 73.5
t78.5 50t91.5 25l19 108h-309l16 88h722l-16 -88h-310l-20 -110q45 -8 82 -29t61.5 -53t34 -75.5t0.5 -95.5q-10 -58 -38.5 -103.5t-70 -77.5t-94 -49t-109.5 -17z" />
    <glyph glyph-name="dvDDA" unicode="&#x921;" horiz-adv-x="573" 
d="M43 740h619l-15 -88h-131l-33 -182h-174q-18 0 -37.5 -3t-36 -11t-28.5 -22t-16 -36q-3 -20 2 -34t16.5 -22.5t27.5 -12t35 -3.5h44q40 0 75.5 -10t60.5 -31t36.5 -54t3.5 -79q-14 -75 -74.5 -121.5t-166.5 -46.5q-56 0 -99.5 14t-72.5 39t-41.5 60.5t-5.5 79.5h104
q-8 -51 23.5 -82t98.5 -31q57 0 92 26t42 66q5 27 -2 45t-22 29.5t-37 16t-46 4.5h-39q-29 0 -60.5 7.5t-56 24.5t-37.5 46t-5 72q7 39 27 66.5t48 45t62 25t69 7.5h101l20 107h-386z" />
    <glyph glyph-name="dvDDHA" unicode="&#x922;" horiz-adv-x="645" 
d="M41 740h693l-16 -88h-178l-30 -173h-101q-47 0 -90 -12.5t-77.5 -38t-58.5 -63t-33 -88.5q-8 -43 0 -79t30 -62.5t58 -41t85 -14.5q33 0 63 8.5t53.5 24t39.5 38t21 50.5q7 39 -13 64t-58 25q-34 0 -60 -20t-32 -55q-1 -5 -1.5 -10t-0.5 -10h-76q0 18 3 33
q12 66 62.5 102t121.5 36q37 0 66.5 -12.5t48.5 -34.5t26.5 -53t1.5 -68q-8 -44 -31 -80t-58.5 -61.5t-83 -39.5t-104.5 -14q-66 0 -119 20.5t-88.5 57.5t-50.5 89t-4 115q12 67 43.5 117.5t77 84t101.5 50t118 16.5h34l17 99h-416z" />
    <glyph glyph-name="dvNNA" unicode="&#x923;" horiz-adv-x="867" 
d="M269 261q46 0 76.5 29.5t38.5 77.5l50 284h-193l-50 -284q-9 -48 12 -77.5t66 -29.5zM41 740h915l-15 -88h-122l-115 -652h-105l115 652h-177l-49 -274q-8 -44 -26 -82t-46 -65.5t-66.5 -43t-86.5 -15.5q-47 0 -83 15t-59 42t-31.5 65t-0.5 84l49 274h-112z" />
    <glyph glyph-name="dvTA" unicode="&#x924;" horiz-adv-x="698" 
d="M41 740h746l-16 -88h-122l-114 -652h-105l71 406h-140q-83 0 -140.5 -40t-71.5 -120q-14 -75 21 -118t120 -43h20l-14 -83h-27q-54 0 -100 15.5t-77.5 46.5t-45.5 77.5t-3 109.5q11 65 41 111.5t73.5 76t98.5 43.5t116 14h145l27 156h-518z" />
    <glyph glyph-name="dvTHA" unicode="&#x925;" horiz-adv-x="773" 
d="M544 217q-13 -22 -36 -44t-53.5 -39.5t-69 -28.5t-82.5 -11q-63 0 -111.5 19.5t-79 55.5t-42 87t0.5 114q2 14 5.5 28.5t8.5 29.5h95q39 0 76 5.5t67 20.5t51.5 40.5t28.5 66.5q8 42 -12 70t-65 28q-29 0 -51 -11.5t-37 -31t-22.5 -45.5t-7.5 -55h-95q1 48 17.5 90.5
t46 74t71.5 50t94 18.5q43 0 76.5 -14t54.5 -39t28.5 -60.5t0.5 -77.5q-9 -51 -34 -89.5t-63.5 -64.5t-89 -39t-109.5 -13h-36q-6 -36 1 -67.5t27 -54t54 -35.5t81 -13q42 0 81.5 14t72 41t55.5 65.5t32 87.5l61 350h227l-15 -88h-122l-115 -652h-105z" />
    <glyph glyph-name="dvDA" unicode="&#x926;" horiz-adv-x="612" 
d="M43 740h657l-16 -88h-134l-34 -191h-157q-36 0 -68.5 -9t-58.5 -27.5t-44 -46t-24 -63.5q-11 -64 20.5 -103t94.5 -39q23 0 47 7.5t44.5 22.5t36 38t21.5 55h96l-55 -317h-103l32 179q-27 -32 -69 -50.5t-93 -18.5q-45 0 -82 16t-61.5 46t-34.5 73t0 98q10 59 38.5 102.5
t69.5 71.5t92 41.5t107 13.5h62l18 101h-418z" />
    <glyph glyph-name="dvDHA" unicode="&#x927;" horiz-adv-x="721" 
d="M252 92q-44 0 -82 11.5t-64 34t-38 55.5t-4 77q6 34 21.5 59t36 42t43.5 27.5t45 14.5v3q-23 6 -43.5 19.5t-34.5 34.5t-19.5 49.5t0.5 64.5q6 37 23.5 67.5t43.5 52.5t59.5 33.5t72.5 11.5q88 0 126.5 -53.5t12.5 -143.5h-79q13 48 -3.5 78.5t-64.5 30.5
q-39 0 -67.5 -26.5t-35.5 -64.5q-11 -55 20 -83t91 -28h72l-15 -85h-53q-63 0 -99.5 -25.5t-43.5 -67.5q-5 -25 2.5 -44t24 -32t40.5 -19.5t53 -6.5q42 0 80 14t68 39.5t51 61t29 79.5v-1l50 281l14 87h225l-15 -88h-120l-115 -652h-105l36 204q-40 -54 -101.5 -83
t-137.5 -29z" />
    <glyph glyph-name="dvNA" unicode="&#x928;" horiz-adv-x="799" 
d="M239 192q24 0 46 8.5t39.5 23.5t29.5 35t17 44q9 48 -16.5 79.5t-76.5 31.5t-89 -30.5t-47 -81.5q-8 -49 18.5 -79.5t78.5 -30.5zM41 740h847l-15 -88h-122l-115 -652h-105l73 414h-174q16 -23 23.5 -53t-0.5 -72q-8 -44 -29 -78.5t-51.5 -58.5t-68 -36.5t-77.5 -12.5
q-46 0 -82.5 15.5t-61 42.5t-34.5 64.5t-2 82.5q9 48 31.5 84t55.5 60.5t75 37t90 12.5h320l27 150h-620z" />
    <glyph glyph-name="dvPA" unicode="&#x92a;" horiz-adv-x="661" 
d="M309 275q63 0 102.5 38t53.5 93l43 246h-274l-38 -215q-13 -75 14 -118.5t99 -43.5zM41 740h709l-16 -88h-121l-115 -652h-104l45 259q-29 -34 -71 -53.5t-96 -19.5q-53 0 -91.5 18.5t-62 51.5t-30.5 79t3 102l39 215h-104z" />
    <glyph glyph-name="dvPHA" unicode="&#x92b;" horiz-adv-x="985" 
d="M299 275q28 0 52.5 10t43 27t31.5 39.5t19 48.5l45 252h-256l-38 -220q-14 -72 10 -114.5t93 -42.5zM41 740h1033l-16 -88h-463l-35 -195q29 42 76 68t111 26q46 0 81 -16.5t57 -46.5t30 -71.5t-1 -90.5q-10 -55 -33.5 -98t-56.5 -73t-74 -45.5t-86 -15.5q-35 0 -65 8
l14 82q22 -5 40 -5q56 0 99 38t54 104q11 63 -19.5 101.5t-87.5 38.5q-35 0 -62.5 -12.5t-47.5 -33t-33.5 -47.5t-20.5 -55l-55 -313h-105l45 257q-29 -33 -68.5 -52t-90.5 -19t-88 18t-58.5 50.5t-27.5 77.5t4 100l39 220h-104z" />
    <glyph glyph-name="dvBA" unicode="&#x92c;" horiz-adv-x="689" 
d="M456 177q-30 -42 -81 -68.5t-117 -26.5q-51 0 -92 18t-68.5 50t-38.5 77.5t-1 99.5q9 54 34.5 97.5t62.5 73.5t84 46.5t99 16.5q67 0 108 -27t61 -67l32 185h-513l15 88h736l-15 -88h-122l-114 -652h-101zM348 491q-68 0 -121 -41l219 -216q34 41 41 90q6 31 0.5 61
t-23 53.5t-46.5 38t-70 14.5zM291 158q36 0 66.5 11t53.5 29l-221 217q-15 -20 -25.5 -43t-15.5 -50q-7 -39 1 -69.5t28 -51.5t49 -32t64 -11z" />
    <glyph glyph-name="dvBHA" unicode="&#x92d;" horiz-adv-x="811" 
d="M229 178q46 0 75.5 31t39.5 88l13 74h-81q-48 0 -83 -25.5t-43 -71.5q-8 -45 14.5 -70.5t64.5 -25.5zM217 89q-44 0 -78 13.5t-56 37.5t-30 58t-1 76q8 45 30 79t53.5 57.5t70.5 35t82 11.5h84l16 89q9 51 -4.5 82t-56.5 31q-36 0 -62.5 -24t-34.5 -69q-3 -20 -2 -36
h-105q-1 9 -0.5 19t2.5 21q7 39 25 72t45 57t62.5 37t79.5 13q49 0 81.5 -16.5t50 -46t20.5 -70t-6 -88.5l-12 -71h151l50 283h228l-15 -88h-122l-116 -652h-105l65 371h-151l-12 -69q-18 -103 -75.5 -158t-151.5 -55z" />
    <glyph glyph-name="dvMA" unicode="&#x92e;" horiz-adv-x="803" 
d="M206 178q46 0 75 31t40 88l13 74h-83q-48 0 -82 -25.5t-42 -71.5q-8 -45 15.5 -70.5t63.5 -25.5zM649 652h-167l-35 -195h168zM41 740h850l-15 -88h-122l-115 -652h-105l66 371h-168l-12 -69q-18 -103 -75.5 -158t-151.5 -55q-44 0 -78 13.5t-55.5 38t-30 58.5t-0.5 75
q7 45 29 79t53.5 57.5t71 35t81.5 11.5h85l35 195h-358z" />
    <glyph glyph-name="dvYA" unicode="&#x92f;" horiz-adv-x="743" 
d="M325 191q41 0 77 13t64.5 37t47.5 57t26 74l49 280h-184l-15 -80q-32 -182 -220 -193l-1 -4q-15 -85 26.5 -134.5t129.5 -49.5zM41 740h791l-16 -88h-122l-114 -652h-105l34 197q-35 -42 -89 -68t-126 -26q-62 0 -109.5 20t-77 57t-40.5 89t0 116q2 12 5.5 25t7.5 26h13
q85 0 133.5 35t63.5 119l11 62h-275z" />
    <glyph glyph-name="dvRA" unicode="&#x930;" horiz-adv-x="535" 
d="M42 740h582l-16 -88h-109l-14 -83q-20 -111 -86 -176.5t-188 -65.5h-37l-22 -125q-11 -54 9.5 -87.5t71.5 -33.5q46 0 75.5 30.5t38.5 81.5l3 22h101q-1 -6 -1.5 -11t-0.5 -8q-16 -93 -73.5 -149t-150.5 -56q-51 0 -88 16.5t-59.5 45t-30 68t1.5 86.5l36 206h104
q85 0 131 39t60 117l14 83h-367z" />
    <glyph glyph-name="dvRxA" unicode="&#x931;" horiz-adv-x="535" 
d="M42 740h582l-16 -88h-109l-14 -83q-20 -111 -86 -176.5t-188 -65.5h-37l-22 -125q-11 -54 9.5 -87.5t71.5 -33.5q46 0 75.5 30.5t38.5 81.5l3 22h101q-1 -6 -1.5 -11t-0.5 -8q-16 -93 -73.5 -149t-150.5 -56q-51 0 -88 16.5t-59.5 45t-30 68t1.5 86.5l36 206h104
q85 0 131 39t60 117l14 83h-367zM23 -175q-28 0 -44 18.5t-11 46.5q5 29 27 48t51 19q28 0 44 -19t11 -48q-5 -28 -27.5 -46.5t-50.5 -18.5z" />
    <glyph glyph-name="dvLA" unicode="&#x932;" horiz-adv-x="902" 
d="M825 299q-9 -53 -32.5 -98t-60 -77.5t-85 -50t-108.5 -16.5q-7 0 -17.5 0.5t-18.5 1.5l17 92q6 -1 13.5 -1.5t14.5 -0.5q69 0 114 42.5t57 111.5q5 30 2 56t-14.5 45t-31 30t-48.5 11q-31 0 -56 -12.5t-44 -34t-32 -51.5t-19 -66l-3 -18h-87l2 18q7 35 5.5 65t-12 52
t-30.5 34.5t-51 12.5q-61 0 -98 -39.5t-48 -102.5q-12 -69 17.5 -111.5t101.5 -42.5q6 0 12.5 0.5t14.5 1.5l-17 -92q-9 -1 -15.5 -1.5t-14.5 -0.5q-60 0 -103.5 19.5t-69 53.5t-33.5 80t2 99q10 56 33 99t56 71.5t74 43t86 14.5q39 0 67 -12t46 -31t28 -43t13 -49h2
q21 46 61.5 84t105.5 48l20 118h-620l16 88h954l-16 -88h-231l-21 -126q60 -20 89 -79.5t13 -147.5z" />
    <glyph glyph-name="dvLLA" unicode="&#x933;" horiz-adv-x="980" 
d="M263 173q61 0 105 38t56 99q11 63 -20 101.5t-92 38.5q-30 0 -57 -10t-49 -28.5t-36.5 -44.5t-19.5 -58q-11 -63 21 -99.5t92 -36.5zM639 173q61 0 106 37t57 99q11 64 -21 102.5t-92 38.5q-63 0 -106.5 -39t-55.5 -101q-11 -61 20 -99t92 -38zM641 83q-75 0 -122 36.5
t-58 96.5h-4q-30 -60 -88.5 -96.5t-133.5 -36.5q-48 0 -86.5 16t-64 46t-36 72t-1.5 93q9 52 33.5 94.5t60 72.5t79.5 46.5t91 16.5q73 0 118.5 -35.5t62.5 -95.5h3q32 52 79 86.5t108 42.5l20 114h-683l16 88h1034l-16 -88h-250l-22 -121q69 -19 103.5 -76t19.5 -145
q-9 -51 -33.5 -93t-59.5 -72t-78.5 -46t-91.5 -16z" />
    <glyph glyph-name="dvVA" unicode="&#x935;" horiz-adv-x="672" 
d="M285 170q38 0 68 13t52.5 33t36.5 45.5t20 51.5l2 15q3 27 -2 52.5t-20 45.5t-41 32t-64 12q-32 0 -61.5 -10.5t-53.5 -30t-40.5 -47t-22.5 -61.5q-12 -70 24 -110.5t102 -40.5zM624 652l-115 -652h-102l31 178q-32 -42 -80 -67t-111 -25q-50 0 -89.5 17t-65 49t-35 77
t1.5 102q9 51 32 92.5t57.5 71t77.5 45t93 15.5q66 0 107.5 -25.5t61.5 -64.5l33 187h-495l15 88h720l-16 -88h-121z" />
    <glyph glyph-name="dvSHA" unicode="&#x936;" horiz-adv-x="826" 
d="M244 -8q-53 0 -92.5 16t-63.5 46t-32.5 72t0.5 93l32 180h144q37 0 72.5 8t64 25t48.5 44t27 65q9 54 -15.5 85.5t-72.5 31.5q-31 0 -55.5 -12.5t-42 -34t-26.5 -50t-9 -61.5h-104q3 57 22 103t51.5 78.5t77 50t97.5 17.5q46 0 84 -15t62.5 -42.5t34.5 -68t1 -91.5
q-11 -57 -38 -98.5t-66.5 -69t-88.5 -41t-103 -13.5h-75l-17 -98q-10 -55 10.5 -92t79.5 -37q52 0 85 35.5t44 96.5h102q-7 -50 -25.5 -91t-48 -70t-71 -45.5t-93.5 -16.5zM687 740h228l-16 -88h-121l-115 -652h-106z" />
    <glyph glyph-name="dvSSA" unicode="&#x937;" horiz-adv-x="670" 
d="M308 268q52 0 90 25.5t59 65.5l-240 215l-25 -140q-14 -75 16.5 -120.5t99.5 -45.5zM519 652h-287l248 -222zM41 740h718l-16 -88h-121l-115 -652h-103l45 257q-30 -36 -74 -57t-101 -21q-53 0 -91.5 19t-62.5 53t-31.5 81.5t2.5 104.5l39 215h-104z" />
    <glyph glyph-name="dvSA" unicode="&#x938;" horiz-adv-x="822" 
d="M466 568q-8 -48 -28 -84.5t-46 -62.5h236l41 231h-187zM42 740h869l-16 -88h-121l-115 -652h-105l59 335h-438l-24 -132q-9 -54 11 -88t74 -34q50 0 79.5 35.5t37.5 88.5h101q-6 -48 -24 -87t-47 -67.5t-68.5 -44t-88.5 -15.5q-51 0 -88 17t-59.5 46.5t-30 70t0.5 88.5
l35 198h88q84 0 130.5 43t59.5 114l15 84h-351z" />
    <glyph glyph-name="dvHA" unicode="&#x939;" horiz-adv-x="595" 
d="M488 66q-10 -35 -31.5 -66t-54 -54.5t-74 -37.5t-90.5 -14q-56 0 -97.5 18t-67.5 48.5t-35.5 72.5t-0.5 90q11 61 45.5 107.5t86.5 72.5q-30 17 -47 46t-9 74q11 63 61.5 94.5t122.5 31.5h115l19 103h-395l15 88h633l-15 -88h-138l-18 -103l-14 -76h-180q-37 0 -68 -15.5
t-38 -55.5q-5 -26 7 -43.5t36 -26.5q23 4 53 4q53 0 91 -15.5t62 -40t34.5 -55t9.5 -60.5h-101q-1 15 -7.5 30.5t-20 28t-34 20.5t-49.5 8q-31 0 -57.5 -10.5t-46.5 -29t-33.5 -43.5t-18.5 -53q-11 -60 17.5 -97.5t91.5 -37.5q27 0 49.5 7.5t40.5 19.5t31 27.5t20 30.5h100z
" />
    <glyph glyph-name="dvNukta" unicode="&#x93c;" horiz-adv-x="0" 
d="M-348 -181q-28 0 -44 18.5t-11 46.5q5 29 27 48t51 19q28 0 44 -19t11 -48q-5 -28 -27.5 -46.5t-50.5 -18.5z" />
    <glyph glyph-name="dvAvagraha" unicode="&#x93d;" horiz-adv-x="582" 
d="M32 146h239q35 0 55 16t24 40q5 25 -9 48.5t-38 47.5t-51.5 50t-50.5 56t-35 64.5t-4 76.5q6 34 22.5 58t40 39.5t53 22.5t62.5 7h211l-16 -89h-184q-14 0 -27.5 -2t-25.5 -8t-20.5 -16.5t-11.5 -26.5q-5 -25 9.5 -49t37.5 -48.5t51 -50.5t50.5 -55.5t34.5 -64t5 -75.5
q-10 -57 -54 -93.5t-119 -36.5h-265z" />
    <glyph glyph-name="dvmAA" unicode="&#x93e;" 
d="M148 652h-122l15 88h349l-16 -88h-121l-115 -652h-105z" />
    <glyph glyph-name="dvmI" unicode="&#x93f;" 
d="M137 0h-105l116 652h-122l15 88h122q14 68 54.5 118t99.5 83t133 49t154 16q81 0 149.5 -17.5t116 -52t69.5 -85.5t10 -118l-3 -17h-104l2 15q9 52 -11 88.5t-57.5 58.5t-87 32t-99.5 10t-103 -8.5t-98.5 -29t-78.5 -55.5t-43 -87h124l-16 -88h-121z" />
    <glyph glyph-name="dvmII" unicode="&#x940;" 
d="M-132 776q9 49 27.5 91t48 73t71.5 48.5t98 17.5q57 0 93 -18t54 -49t21 -73t-6 -90l-7 -36h122l-15 -88h-122l-115 -652h-105l115 652h-122l15 88h125l8 41q4 24 4 48.5t-7.5 44t-24.5 32t-48 12.5q-32 0 -53.5 -12.5t-36.5 -32t-23.5 -44t-13.5 -48.5l-12 -65h-102z
" />
    <glyph glyph-name="dvmU" unicode="&#x941;" horiz-adv-x="0" 
d="M-317 -311q-46 0 -88 12t-72 38t-43 67t-1 99h94q-8 -35 -2 -60.5t22.5 -42t42 -24t55.5 -7.5q54 0 90 24.5t44 70.5q6 34 -11.5 59.5t-62.5 25.5h-28l15 82h28q40 0 70.5 -12.5t50 -35t27 -53.5t2.5 -68q-12 -84 -74 -129.5t-159 -45.5z" />
    <glyph glyph-name="dvmUU" unicode="&#x942;" horiz-adv-x="0" 
d="M-286 -301q-34 0 -65 10.5t-53 31t-32.5 51t-2.5 71.5q14 81 73 124t147 43q63 0 107.5 -22t71 -60.5t34 -90.5t-3.5 -112q-2 -11 -4.5 -20.5t-4.5 -19.5h-86l9 47q9 45 4 81.5t-22 63t-45.5 40.5t-67.5 14q-48 0 -84 -23.5t-43 -68.5q-8 -40 17 -62t64 -22q7 0 14.5 0.5
t15.5 1.5l-14 -77q-7 -1 -14 -1h-15z" />
    <glyph glyph-name="dvmvR" unicode="&#x943;" horiz-adv-x="0" 
d="M-258 -318q-35 0 -68.5 11.5t-58.5 34.5t-37 57.5t-4 81.5q14 75 73 119.5t155 44.5h20.5t19.5 -1l-12 -72h-33q-51 0 -82.5 -24t-38.5 -66q-5 -25 1.5 -44t20.5 -31.5t33.5 -19t41.5 -6.5q23 0 44 3.5t35 7.5l-15 -82q-21 -7 -46 -10.5t-49 -3.5z" />
    <glyph glyph-name="dvmvRR" unicode="&#x944;" horiz-adv-x="0" 
d="M-278 -457q-35 0 -67 8t-54.5 25t-33.5 43.5t-4 64.5q8 46 40 75t74 38v3q-38 9 -60 35t-13 75q6 34 24 57t42 37.5t51.5 20.5t53.5 6h67l-10 -59h-29q-34 0 -63 -14.5t-36 -52.5q-6 -36 18 -51t61 -15h50l-14 -78h-47q-18 0 -35.5 -3t-32 -11t-25 -21t-13.5 -32
q-4 -19 2 -32t18.5 -21.5t29.5 -12t36 -3.5q30 0 58.5 5t42.5 10l-14 -79q-21 -8 -53.5 -13t-63.5 -5z" />
    <glyph glyph-name="dvmEcandra" unicode="&#x945;" horiz-adv-x="0" 
d="M-67 816q-56 0 -94.5 15t-61.5 40.5t-30.5 59t-0.5 71.5h91q-4 -20 -0.5 -39.5t15.5 -34.5t34 -24t55 -9q32 0 57 9t42.5 24t28.5 34.5t15 39.5h90q-7 -38 -24.5 -71.5t-47 -59t-71.5 -40.5t-98 -15z" />
    <glyph glyph-name="dvmE" unicode="&#x947;" horiz-adv-x="0" 
d="M-133 736q-26 57 -46 89.5t-41 49.5t-45.5 21.5t-60.5 4.5h-45l15 86h43q52 0 89 -7t67.5 -32.5t59 -75.5t63.5 -136h-99z" />
    <glyph glyph-name="dvmAI" unicode="&#x948;" horiz-adv-x="0" 
d="M-128 737q-38 32 -62.5 50t-46.5 27t-47.5 11t-65.5 2h-46l12 67h44q37 0 62.5 -1.5t47.5 -8.5t44 -22.5t51 -42.5q-23 59 -43 92t-41.5 48.5t-45.5 19t-55 3.5h-48l12 68h45q34 0 60.5 -2.5t48.5 -12t40.5 -29.5t37 -54.5t39.5 -87t47 -127.5h-90z" />
    <glyph glyph-name="dvmOcandra" unicode="&#x949;" horiz-adv-x="302" 
d="M235 816q-56 0 -94.5 15t-61.5 40.5t-30.5 59t-0.5 71.5h91q-4 -20 -0.5 -39.5t15.5 -34.5t34 -24t55 -9q32 0 57 9t42.5 24t28.5 34.5t15 39.5h90q-7 -38 -24.5 -71.5t-47 -59t-71.5 -40.5t-98 -15zM148 652h-122l15 88h349l-16 -88h-121l-115 -652h-105z" />
    <glyph glyph-name="dvmO" unicode="&#x94b;" horiz-adv-x="302" 
d="M33 0l115 652h-122l16 88h124q-26 55 -45.5 87t-40 48.5t-45 21t-60.5 4.5h-45l15 86h43q52 0 89 -7t67.5 -32t58.5 -74t62 -134h125l-15 -88h-122l-115 -652h-105z" />
    <glyph glyph-name="dvmAU" unicode="&#x94c;" 
d="M6 0l114 652h-122l16 88h129q-36 31 -60 48.5t-46 26t-47.5 10.5t-65.5 2h-45l12 67h43q37 0 62.5 -1.5t47.5 -8.5t44 -22.5t51 -42.5q-23 59 -43 92t-41 48.5t-45.5 19t-55.5 3.5h-47l11 68h45q34 0 60.5 -2.5t48.5 -12t41 -29t38 -54t39.5 -86.5t45.5 -126h127l-16 -88
h-122l-114 -652h-105z" />
    <glyph glyph-name="dvVirama" unicode="&#x94d;" horiz-adv-x="0" 
d="M-274 -59h104l90 -206h-107z" />
    <glyph glyph-name="dvOm" unicode="&#x950;" horiz-adv-x="1061" 
d="M214 12q-50 0 -88.5 14.5t-63.5 41.5t-35 64.5t-2 84.5h99q-9 -51 18.5 -83t81.5 -32t90.5 32t46.5 86q3 21 -0.5 41.5t-15.5 37t-34.5 27t-56.5 10.5h-41l16 89h41q29 0 52.5 9t41 23.5t28 33.5t13.5 39q9 51 -18 80t-72 29q-23 0 -44.5 -7t-38.5 -20t-29 -32t-16 -42
h-98q8 43 30 78.5t54 60t72.5 38t87.5 13.5q91 0 138 -49.5t33 -134.5q-11 -60 -48 -102t-98 -57v-3q17 -4 32 -11h59q50 0 83.5 23t45.5 88q8 46 24.5 83.5t44 64t67.5 41t95 14.5t90.5 -17.5t54 -49.5t21 -77.5t-7.5 -102.5l-23 -132q-25 -141 -99.5 -212.5t-209.5 -71.5
q-48 0 -98 10l15 88q23 -4 43.5 -6t37.5 -2q51 0 87 14t60.5 39.5t39 62t22.5 81.5l26 142q6 33 5.5 59.5t-9 45.5t-26 29.5t-45.5 10.5q-27 0 -47.5 -9t-34.5 -24.5t-22.5 -36.5t-12.5 -45q-18 -105 -71 -148.5t-151 -43.5q10 -36 2 -79q-8 -45 -29.5 -82t-53.5 -62.5
t-72.5 -39.5t-86.5 -14zM623 739q-56 0 -95 15t-62.5 40.5t-32 59t-1.5 71.5h84q-4 -21 1 -40.5t19 -35t37 -25t56 -9.5q34 0 59.5 9.5t43.5 25t28.5 35t14.5 40.5h85q-6 -40 -23.5 -74t-47 -59t-71 -39t-95.5 -14zM642 906q-20 0 -31 13.5t-8 33.5t19 34t36 14t31.5 -14
t7.5 -34q-3 -20 -19 -33.5t-36 -13.5z" />
    <glyph glyph-name="dvKxA" unicode="&#x958;" horiz-adv-x="986" 
d="M416 181q-29 -42 -75 -67.5t-109 -25.5q-45 0 -82 16.5t-61 47.5t-33 74.5t1 96.5q9 52 32 94t56 72t75 46t90 16q66 0 103 -25.5t52 -67.5l34 194h-473l15 88h1033l-15 -88h-460l-34 -193q28 40 72.5 66t104.5 26q46 0 81.5 -17.5t58 -48.5t31 -73.5t-0.5 -92.5
q-10 -55 -33 -97t-56 -70.5t-73.5 -43t-85.5 -14.5q-37 0 -62 7l14 83q15 -4 37 -4q27 0 52 9.5t46 27.5t35.5 44t20.5 60q11 63 -20 101.5t-88 38.5q-34 0 -60.5 -12t-46 -31.5t-32.5 -44.5t-19 -52l-56 -321h-101zM277 176q36 0 63.5 12.5t48 32.5t33 44.5t17.5 47.5l1 6
q4 25 0.5 50.5t-17 46t-37.5 33t-60 12.5q-29 0 -55.5 -10t-48.5 -28t-37.5 -44t-21.5 -59q-6 -34 0 -60.5t21.5 -45t39 -28.5t53.5 -10zM174 -118q-28 0 -44 18.5t-11 46.5q5 29 27 48t51 19q28 0 44 -19t11 -48q-5 -28 -27.5 -46.5t-50.5 -18.5z" />
    <glyph glyph-name="dvKHxA" unicode="&#x959;" horiz-adv-x="941" 
d="M709 200q-25 -31 -63 -51t-90 -20q-19 0 -35 3q-40 -57 -103 -96.5t-147 -39.5q-59 0 -103.5 17t-72.5 50t-38 80.5t1 109.5l26 147h32q30 0 57 7t49 23.5t37.5 44t22.5 69.5l18 108h-274l16 88h988l-16 -88h-121l-114 -652h-105zM217 -207q-28 0 -44 18.5t-11 46.5
q5 29 27 48t51 19q28 0 44 -19t11 -48q-5 -28 -27.5 -46.5t-50.5 -18.5zM591 210q31 0 55.5 11t42 29t28.5 40t15 44t1 44t-14.5 40t-33 29t-53.5 11q-51 0 -91 -32t-51 -90q-10 -60 20 -93t81 -33zM290 87q57 0 95.5 25t61.5 58q-31 29 -44 74t-3 102q7 45 28 81t51 61.5
t67.5 38.5t77.5 12q54 -1 85.5 -21t46.5 -50l32 184h-383l-20 -121q-10 -54 -30 -92.5t-48 -63.5t-62 -37.5t-71 -13.5l-14 -83q-12 -69 21.5 -111.5t108.5 -42.5z" />
    <glyph glyph-name="dvGxA" unicode="&#x95a;" horiz-adv-x="766" 
d="M612 652h-163l-45 -257q-6 -39 -21.5 -73t-40.5 -59.5t-60.5 -40t-81.5 -14.5q-85 0 -126 49.5t-26 131.5q2 8 3 15.5t3 15.5h102l-6 -31q-3 -17 -2 -33.5t7 -29.5t19 -20.5t34 -7.5q22 0 38 8t26.5 21.5t16.5 30t9 33.5l47 261h-319l15 88h813l-15 -88h-122l-115 -652
h-104zM163 -1q-28 0 -44 18.5t-11 46.5q5 29 27 48t51 19q28 0 44 -19t11 -48q-5 -28 -27.5 -46.5t-50.5 -18.5z" />
    <glyph glyph-name="dvJxA" unicode="&#x95b;" horiz-adv-x="846" 
d="M41 740h894l-16 -88h-121l-115 -652h-105l72 406h-168l-14 -76q-8 -46 -28 -84t-50.5 -65.5t-70.5 -43t-88 -15.5q-47 0 -82 15.5t-57 43.5t-30 66.5t0 85.5l29 163h105l-29 -164q-10 -54 10 -86t68 -32t79.5 32t41.5 86l29 164h270l28 156h-667zM196 -83q-28 0 -44 18.5
t-11 46.5q5 29 27 48t51 19q28 0 44 -19t11 -48q-5 -28 -27.5 -46.5t-50.5 -18.5z" />
    <glyph glyph-name="dvDDxA" unicode="&#x95c;" horiz-adv-x="573" 
d="M43 740h619l-15 -88h-131l-33 -182h-174q-18 0 -37.5 -3t-36 -11t-28.5 -22t-16 -36q-3 -20 2 -34t16.5 -22.5t27.5 -12t35 -3.5h44q40 0 75.5 -10t60.5 -31t36.5 -54t3.5 -79q-14 -75 -74.5 -121.5t-166.5 -46.5q-56 0 -99.5 14t-72.5 39t-41.5 60.5t-5.5 79.5h104
q-8 -51 23.5 -82t98.5 -31q57 0 92 26t42 66q5 27 -2 45t-22 29.5t-37 16t-46 4.5h-39q-29 0 -60.5 7.5t-56 24.5t-37.5 46t-5 72q7 39 27 66.5t48 45t62 25t69 7.5h101l20 107h-386zM207 -221q-28 0 -44 18.5t-11 46.5q5 29 27 48t51 19q28 0 44 -19t11 -48
q-5 -28 -27.5 -46.5t-50.5 -18.5z" />
    <glyph glyph-name="dvDDHxA" unicode="&#x95d;" horiz-adv-x="645" 
d="M41 740h693l-16 -88h-178l-30 -173h-101q-47 0 -90 -12.5t-77.5 -38t-58.5 -63t-33 -88.5q-8 -43 0 -79t30 -62.5t58 -41t85 -14.5q33 0 63 8.5t53.5 24t39.5 38t21 50.5q7 39 -13 64t-58 25q-34 0 -60 -20t-32 -55q-1 -5 -1.5 -10t-0.5 -10h-76q0 18 3 33
q12 66 62.5 102t121.5 36q37 0 66.5 -12.5t48.5 -34.5t26.5 -53t1.5 -68q-8 -44 -31 -80t-58.5 -61.5t-83 -39.5t-104.5 -14q-66 0 -119 20.5t-88.5 57.5t-50.5 89t-4 115q12 67 43.5 117.5t77 84t101.5 50t118 16.5h34l17 99h-416zM248 -201q-28 0 -44 18.5t-11 46.5
q5 29 27 48t51 19q28 0 44 -19t11 -48q-5 -28 -27.5 -46.5t-50.5 -18.5z" />
    <glyph glyph-name="dvPHxA" unicode="&#x95e;" horiz-adv-x="985" 
d="M299 275q28 0 52.5 10t43 27t31.5 39.5t19 48.5l45 252h-256l-38 -220q-14 -72 10 -114.5t93 -42.5zM41 740h1033l-16 -88h-463l-35 -195q29 42 76 68t111 26q46 0 81 -16.5t57 -46.5t30 -71.5t-1 -90.5q-10 -55 -33.5 -98t-56.5 -73t-74 -45.5t-86 -15.5q-35 0 -65 8
l14 82q22 -5 40 -5q56 0 99 38t54 104q11 63 -19.5 101.5t-87.5 38.5q-35 0 -62.5 -12.5t-47.5 -33t-33.5 -47.5t-20.5 -55l-55 -313h-105l45 257q-29 -33 -68.5 -52t-90.5 -19t-88 18t-58.5 50.5t-27.5 77.5t4 100l39 220h-104zM183 -15q-28 0 -44 18.5t-11 46.5
q5 29 27 48t51 19q28 0 44 -19t11 -48q-5 -28 -27.5 -46.5t-50.5 -18.5z" />
    <glyph glyph-name="dvvRR" unicode="&#x960;" horiz-adv-x="1032" 
d="M470 244l-291 -244h-133l1 6l441 345q-2 51 -35.5 83.5t-93.5 32.5q-38 0 -71 -12.5t-59 -35t-44 -54.5t-25 -72h-105q10 59 36 107.5t64 83t86 53.5t103 19q63 0 103.5 -23.5t61.5 -65.5l32 185h-515l15 88h1079l-15 -88h-467l-37 -210h169q40 0 61.5 17t28.5 46l5 31
l2 10l3 17h91l-63 -355h-38q-35 0 -63.5 -14t-36.5 -53q-6 -36 18 -50.5t62 -14.5h49l-14 -79h-47q-17 0 -34.5 -3t-32 -11t-25 -21.5t-13.5 -33.5q-4 -19 1.5 -32t18 -20.5t29.5 -11t36 -3.5q30 0 58.5 5.5t42.5 10.5l-13 -79q-22 -8 -54.5 -13.5t-63.5 -5.5
q-35 0 -66.5 7.5t-54 24.5t-33.5 43t-4 64q8 48 39.5 77.5t73.5 37.5l1 3q-38 9 -60 35.5t-13 74.5q6 32 22 54.5t38 36.5t47.5 21t49.5 9l20 111q-48 -20 -98 -20h-153l-63 -358h-97z" />
    <glyph glyph-name="dvvLL" unicode="&#x961;" horiz-adv-x="911" 
d="M41 740h955l-16 -88h-247l-21 -118q63 -17 95 -75.5t15 -150.5q-10 -53 -33 -100h-35q-17 0 -33 -3t-29.5 -11t-23.5 -21t-14 -32q-6 -36 18.5 -50.5t61.5 -14.5h50l-14 -79h-48q-37 0 -67.5 -14.5t-38.5 -54.5q-3 -19 3 -32t18 -20.5t29 -11t36 -3.5q30 0 59 5.5
t43 10.5l-14 -79q-21 -8 -53.5 -13.5t-63.5 -5.5q-36 0 -67.5 7.5t-54 24.5t-33 43.5t-4.5 64.5q8 46 40.5 76t72.5 38l1 3q-38 9 -59.5 35.5t-13.5 74.5q6 31 21 53t36 36t45.5 21.5t48.5 9.5q8 23 12 43q5 29 2.5 54.5t-13.5 44t-30.5 29.5t-48.5 11q-31 0 -56.5 -12.5
t-44.5 -34t-31.5 -51.5t-17.5 -66l-4 -21h-87l3 21q4 35 2.5 65t-11.5 52t-29 34.5t-49 12.5q-61 0 -98.5 -40t-48.5 -101q-13 -72 17 -113.5t99 -41.5q6 0 13.5 0.5t15.5 1.5l-16 -92q-11 -1 -19 -1h-16q-60 0 -102.5 18t-67 51t-32 78.5t1.5 99.5q10 56 33.5 99.5t57 73
t75 45t87.5 15.5q38 0 64.5 -12t44 -31t27 -44t12.5 -50h3q20 44 58.5 82t98.5 50l20 116h-605z" />
    <glyph glyph-name="dvmvL" unicode="&#x962;" horiz-adv-x="0" 
d="M-45 -467q-31 0 -57 8t-43.5 23.5t-25 39.5t-1.5 56q8 46 41 77.5t79 40.5q2 7 3 14t3 14q8 43 -6.5 71.5t-56.5 28.5q-45 0 -70.5 -33t-35.5 -84l-3 -15h-69l3 15q10 51 -5 84t-57 33q-45 0 -71 -28t-34 -73q-9 -51 12.5 -80t70.5 -29h10t11 2l-14 -72q-6 -1 -12.5 -1
h-11.5q-45 0 -76.5 13.5t-50 37.5t-24.5 57t1 73q7 42 25 74.5t43.5 54t56.5 33t65 11.5q28 0 47.5 -8.5t32.5 -22.5t19.5 -32t8.5 -36h3q9 18 22.5 36t32 32t42 22.5t53.5 8.5q66 0 101 -44.5t21 -128.5q-8 -39 -24 -73h-6q-48 0 -72 -19.5t-29 -48.5q-6 -35 16 -50.5
t54 -15.5q24 0 44 6l-12 -67q-12 -2 -26 -3.5t-28 -1.5z" />
    <glyph glyph-name="dvmvLL" unicode="&#x963;" horiz-adv-x="0" 
d="M12 -570q-15 -5 -39 -8.5t-47 -3.5q-26 0 -49.5 5.5t-40 17.5t-24.5 31.5t-3 47.5q6 35 29.5 57t53.5 28v2q-28 7 -43.5 27.5t-9.5 55.5q4 23 15 39t26 27t33 16.5t36 7.5q2 7 3 13t3 13q8 43 -7 71.5t-57 28.5q-45 0 -70 -33t-35 -84l-3 -15h-70l3 15q10 51 -5 84
t-57 33q-45 0 -71 -28t-34 -73q-9 -51 13 -80t70 -29h10t11 2l-13 -72q-6 -1 -13 -1h-12q-44 0 -75.5 13.5t-50.5 37.5t-24.5 57t1.5 73q7 42 25 74.5t43 54t56 33t65 11.5q28 0 47.5 -8.5t32.5 -22.5t20 -32t9 -36h2q9 18 22.5 36t32 32t42 22.5t53.5 8.5q67 0 101.5 -45
t20.5 -128q-3 -20 -9.5 -38t-14.5 -35h-28q-24 0 -44.5 -10t-25.5 -37q-5 -26 12.5 -36.5t44.5 -10.5h36l-11 -62h-33q-26 0 -49.5 -9.5t-28.5 -39.5q-4 -28 15 -37.5t47 -9.5q23 0 43.5 4t30.5 7z" />
    <glyph glyph-name="danda" unicode="&#x964;" horiz-adv-x="300" 
d="M193 0h-104l130 741h104z" />
    <glyph glyph-name="doubledanda" unicode="&#x965;" horiz-adv-x="529" 
d="M193 0h-104l130 741h104zM421 0h-104l130 741h104z" />
    <glyph glyph-name="dvZero" unicode="&#x966;" horiz-adv-x="641" 
d="M73 366q13 76 36.5 142.5t62 115.5t93.5 77t132 28q76 0 121.5 -28t66.5 -77t21 -115.5t-13 -142.5q-14 -77 -37.5 -143t-61.5 -115.5t-93 -77.5t-132 -28t-122 28t-66 77.5t-21.5 115.5t13.5 143zM481 366q9 50 12.5 97t-5.5 83t-34.5 57.5t-74.5 21.5
q-50 0 -83.5 -21.5t-55 -57.5t-34 -83t-21.5 -97q-9 -51 -13 -98t5 -83t34.5 -57.5t75.5 -21.5t83 21.5t55 57.5t34.5 83t21.5 98z" />
    <glyph glyph-name="dvOne" unicode="&#x967;" horiz-adv-x="350" 
d="M193 606h-93l19 104h208l-126 -710h-115z" />
    <glyph glyph-name="dvTwo" unicode="&#x968;" horiz-adv-x="577" 
d="M16 93q74 57 146.5 110.5t132 105t99.5 102t49 102.5q4 27 1.5 49.5t-13.5 39t-32 25.5t-53 9q-60 0 -98 -37.5t-52 -100.5h-110q12 59 38.5 103t63.5 73.5t82 44t93 14.5q55 0 95.5 -16t65 -44.5t33 -68t0.5 -86.5q-11 -64 -51 -121.5t-94 -109t-114 -97t-111 -85.5h317
l-17 -95h-486z" />
    <glyph glyph-name="dvThree" unicode="&#x969;" horiz-adv-x="594" 
d="M103 549q11 47 36.5 84t61.5 62t81 38t95 13q54 0 93.5 -15t63 -40.5t32 -60t1.5 -74.5q-6 -33 -20 -60t-33.5 -48t-42 -35.5t-45.5 -21.5v-4q54 -17 79.5 -64t12.5 -123q-8 -44 -29.5 -81t-56 -64.5t-81 -43t-103.5 -15.5q-52 0 -94.5 13.5t-71.5 40.5t-42 67t-6 94h110
q-5 -51 24 -85.5t95 -34.5q64 0 102 34.5t47 85.5q12 72 -28 100.5t-131 28.5h-26l17 94h27q78 1 126 25t59 84q8 48 -16 76.5t-84 28.5q-30 0 -53.5 -8.5t-41.5 -22t-29.5 -31.5t-17.5 -37h-111z" />
    <glyph glyph-name="dvFour" unicode="&#x96a;" horiz-adv-x="647" 
d="M383 152h-362l15 86l421 482h138l-82 -469h93l-18 -99h-93l-27 -152h-112zM406 251l62 353l-298 -353h236z" />
    <glyph glyph-name="dvFive" unicode="&#x96b;" horiz-adv-x="639" 
d="M607 731l-17 -100h-335l-35 -199q25 27 69 46.5t93 19.5q67 0 108 -22.5t62 -58t24.5 -78.5t-3.5 -84q-9 -54 -33 -101t-61.5 -81t-88.5 -53.5t-114 -19.5q-56 0 -98 14.5t-69 41t-40 62.5t-12 79h111q3 -48 35.5 -75t90.5 -27q37 0 66 12t50 33t34.5 49.5t19.5 62.5
q13 72 -15.5 110.5t-100.5 38.5q-51 0 -88 -24.5t-59 -66.5h-108l74 421h440z" />
    <glyph glyph-name="dvSix" unicode="&#x96c;" horiz-adv-x="642" 
d="M499 560q-3 45 -27 68.5t-78 23.5q-39 0 -70.5 -14t-57 -45t-44.5 -80.5t-33 -121.5q35 45 89.5 68.5t111.5 23.5q49 0 87.5 -16t62.5 -47t32.5 -75.5t-1.5 -101.5q-9 -52 -32.5 -96.5t-59.5 -77t-84 -51t-106 -18.5q-80 0 -126.5 27t-67.5 76.5t-20.5 120t15.5 157.5
q15 85 41.5 153t66 115.5t93 72.5t121.5 25q53 0 90 -15.5t60.5 -41.5t33.5 -60t8 -70h-105zM348 387q-28 0 -56 -8.5t-51.5 -26t-40.5 -44.5t-23 -63q-12 -69 19 -109.5t104 -40.5q63 0 106.5 38.5t54.5 104.5q12 66 -14.5 107.5t-98.5 41.5z" />
    <glyph glyph-name="dvSeven" unicode="&#x96d;" horiz-adv-x="560" 
d="M598 726l-15 -85l-391 -641h-125l403 631h-370l16 95h482z" />
    <glyph glyph-name="dvEight" unicode="&#x96e;" horiz-adv-x="638" 
d="M200 391q-42 23 -64 63t-11 101q7 40 28.5 75.5t56 62.5t82.5 43t108 16t102.5 -16t67.5 -43t33.5 -63t1.5 -75q-11 -60 -48 -101t-85 -63q52 -21 77.5 -68.5t13.5 -116.5q-9 -52 -36 -93.5t-66.5 -70.5t-90 -44.5t-106.5 -15.5t-100.5 15.5t-73.5 44.5t-41 70.5t-3 93.5
q12 70 54 117.5t100 67.5zM383 657q-60 0 -100 -29.5t-50 -87.5q-9 -51 22 -82t88 -31t99 32t52 82q10 57 -20.5 86.5t-90.5 29.5zM327 341q-32 0 -60.5 -8t-51 -24t-38.5 -40.5t-22 -58.5q-11 -60 22.5 -96.5t103.5 -36.5q69 0 114.5 36.5t55.5 96.5q12 66 -23.5 98.5
t-100.5 32.5z" />
    <glyph glyph-name="dvNine" unicode="&#x96f;" horiz-adv-x="635" 
d="M185 198q2 -49 29.5 -75.5t84.5 -26.5q34 0 62 12.5t50.5 41.5t39.5 76t29 117q-31 -35 -77.5 -53t-97.5 -18q-48 0 -87.5 14.5t-66 44t-37 73t-0.5 101.5q10 54 34.5 98.5t61 76t84.5 49t105 17.5q70 0 114 -24t65 -70.5t22 -115t-15 -158.5q-16 -92 -39.5 -162.5
t-59.5 -118t-87 -72t-123 -24.5q-57 0 -96 16t-62 43.5t-32 63t-6 74.5h105zM342 368q61 0 101.5 37t51.5 100q13 70 -17 108t-93 38q-65 0 -107 -40t-54 -103q-5 -28 -1.5 -53.5t17.5 -44.5t39 -30.5t63 -11.5z" />
    <glyph glyph-name="dvAbbreviationsign" unicode="&#x970;" horiz-adv-x="488" 
d="M274 508q36 0 64.5 -12t47 -33.5t25.5 -52t1 -66.5t-23.5 -65.5t-43 -51t-58 -33.5t-68.5 -12q-38 0 -67 12t-47.5 34t-26 51.5t-1.5 65.5t23.5 66t43.5 51.5t59 33.5t71 12zM264 444q-46 0 -80 -27t-42 -72t16.5 -72t70.5 -27q45 0 76.5 26.5t39.5 71.5t-14 72.5
t-67 27.5z" />
    <glyph glyph-name="dvAcandra" unicode="&#x972;" horiz-adv-x="830" 
d="M292 456q29 0 52.5 8.5t40.5 22.5t27.5 32t14.5 37q8 49 -18.5 76.5t-71.5 27.5q-48 0 -85 -26.5t-45 -74.5h-97q7 43 29 78.5t54 60t73 38t87 13.5q45 0 79.5 -12.5t57 -36t31.5 -56.5t2 -74q-10 -57 -47 -97t-97 -56l-1 -2q25 -6 49 -20h205l60 345h226l-14 -88h-122
l-116 -652h-104l54 308l-138 1q3 -15 2.5 -30t-2.5 -31q-8 -44 -29 -79.5t-52.5 -61t-71.5 -39t-86 -13.5q-50 0 -89 15t-64 42t-35 64.5t-2 83.5h99q-9 -51 18.5 -83t81.5 -32t90.5 31t44.5 82q2 13 2 26t-4 25h-1v3q-8 25 -32.5 42t-70.5 17h-41l15 85h41zM824 835
q-56 0 -94.5 15t-61.5 40.5t-30.5 59t-0.5 71.5h91q-4 -20 -0.5 -39.5t15.5 -34.5t34 -24t55 -9q32 0 57 9t42.5 24t28.5 34.5t15 39.5h90q-7 -38 -24.5 -71.5t-47 -59t-71.5 -40.5t-98 -15z" />
    <glyph glyph-name="Wgrave" unicode="&#x1e80;" horiz-adv-x="999" 
d="M90 695h121l44 -566l256 566h128l46 -563l244 563h122l-329 -695h-129l-54 526l-247 -526l-128 -1zM438 941l199 -122l-15 -84l-201 109z" />
    <glyph glyph-name="wgrave" unicode="&#x1e81;" horiz-adv-x="825" 
d="M55 551h116l38 -443l194 443h119l35 -441l191 441h112l-268 -551h-120l-38 407l-184 -407h-120zM342 796l199 -122l-15 -84l-201 109z" />
    <glyph glyph-name="Wacute" unicode="&#x1e82;" horiz-adv-x="999" 
d="M90 695h121l44 -566l256 566h128l46 -563l244 563h122l-329 -695h-129l-54 526l-247 -526l-128 -1zM750 946l-17 -97l-241 -109l15 84z" />
    <glyph glyph-name="wacute" unicode="&#x1e83;" horiz-adv-x="825" 
d="M55 551h116l38 -443l194 443h119l35 -441l191 441h112l-268 -551h-120l-38 407l-184 -407h-120zM666 796l-17 -97l-241 -109l15 84z" />
    <glyph glyph-name="Wdieresis" unicode="&#x1e84;" horiz-adv-x="999" 
d="M90 695h121l44 -566l256 566h128l46 -563l244 563h122l-329 -695h-129l-54 526l-247 -526l-128 -1zM467 767q-23 0 -37 14t-14 35q0 29 21.5 50t50.5 21q22 0 36 -14t14 -35q0 -15 -6 -27.5t-16 -22.5t-23 -15.5t-26 -5.5zM639 767q-23 0 -37 14t-14 35q0 29 21.5 50
t50.5 21q22 0 36 -14t14 -35q0 -15 -6 -27.5t-16 -22.5t-23 -15.5t-26 -5.5z" />
    <glyph glyph-name="wdieresis" unicode="&#x1e85;" horiz-adv-x="825" 
d="M55 551h116l38 -443l194 443h119l35 -441l191 441h112l-268 -551h-120l-38 407l-184 -407h-120zM385 620q-23 0 -37 14t-14 35q0 29 21.5 50t50.5 21q22 0 36 -14t14 -35q0 -15 -6 -27.5t-16 -22.5t-23 -15.5t-26 -5.5zM557 620q-23 0 -37 14t-14 35q0 29 21.5 50
t50.5 21q22 0 36 -14t14 -35q0 -15 -6 -27.5t-16 -22.5t-23 -15.5t-26 -5.5z" />
    <glyph glyph-name="uni1EA0" unicode="&#x1ea0;" horiz-adv-x="697" 
d="M266 -226q-29 0 -48.5 19t-19.5 48q0 28 19.5 46.5t48.5 18.5q28 0 47 -18.5t19 -46.5q0 -29 -19 -48t-47 -19zM467 142h-291l-75 -142h-119l372 696h132l126 -696h-120zM395 558l-172 -327h229z" />
    <glyph glyph-name="uni1EA1" unicode="&#x1ea1;" horiz-adv-x="678" 
d="M249 -226q-29 0 -48.5 19t-19.5 48q0 28 19.5 46.5t48.5 18.5q28 0 47 -18.5t19 -46.5q0 -29 -19 -48t-47 -19zM34 278q11 64 40.5 116t71.5 89t93 57t105 20q35 0 63 -7.5t49.5 -20t37 -28.5t25.5 -33l14 80h115l-97 -551h-115l15 82q-16 -18 -38 -34t-48.5 -29
t-57.5 -20.5t-65 -7.5q-54 0 -97 21t-71.5 59t-39.5 90.5t0 116.5zM485 276q8 44 0 78.5t-27 58t-47 36t-60 12.5t-64 -12t-60 -35t-48 -57t-28 -79t0 -80t27 -59t47 -36.5t60 -12.5t64.5 12.5t60 36t47.5 58t28 79.5z" />
    <glyph glyph-name="uni1EA2" unicode="&#x1ea2;" horiz-adv-x="697" 
d="M342 854q12 45 48.5 66t79.5 21q42 0 65.5 -24t16.5 -61q-4 -21 -14 -36.5t-22.5 -26t-26.5 -16t-26 -6.5l-5 -19h-61l11 65q38 0 55.5 11t20.5 28q2 11 -5 19.5t-21 8.5q-37 0 -48 -30h-68zM467 142h-291l-75 -142h-119l372 696h132l126 -696h-120zM395 558l-172 -327
h229z" />
    <glyph glyph-name="uni1EA3" unicode="&#x1ea3;" horiz-adv-x="678" 
d="M313 726q12 45 48.5 66t79.5 21q42 0 65.5 -24t16.5 -61q-4 -21 -14 -36.5t-22.5 -26t-26.5 -16t-26 -6.5l-5 -19h-61l11 65q38 0 55.5 11t20.5 28q2 11 -5 19.5t-21 8.5q-37 0 -48 -30h-68zM34 278q11 64 40.5 116t71.5 89t93 57t105 20q35 0 63 -7.5t49.5 -20t37 -28.5
t25.5 -33l14 80h115l-97 -551h-115l15 82q-16 -18 -38 -34t-48.5 -29t-57.5 -20.5t-65 -7.5q-54 0 -97 21t-71.5 59t-39.5 90.5t0 116.5zM485 276q8 44 0 78.5t-27 58t-47 36t-60 12.5t-64 -12t-60 -35t-48 -57t-28 -79t0 -80t27 -59t47 -36.5t60 -12.5t64.5 12.5t60 36
t47.5 58t28 79.5z" />
    <glyph glyph-name="uni1EA4" unicode="&#x1ea4;" horiz-adv-x="697" 
d="M685 955l-110 -101l-62 46l107 108zM467 142h-291l-75 -142h-119l372 696h132l126 -696h-120zM395 558l-172 -327h229zM581 801l-55 -59l-85 63l-117 -63l-43 59l172 98z" />
    <glyph glyph-name="uni1EA5" unicode="&#x1ea5;" horiz-adv-x="678" 
d="M657 826l-110 -101l-62 46l107 108zM34 278q11 64 40.5 116t71.5 89t93 57t105 20q35 0 63 -7.5t49.5 -20t37 -28.5t25.5 -33l14 80h115l-97 -551h-115l15 82q-16 -18 -38 -34t-48.5 -29t-57.5 -20.5t-65 -7.5q-54 0 -97 21t-71.5 59t-39.5 90.5t0 116.5zM485 276
q8 44 0 78.5t-27 58t-47 36t-60 12.5t-64 -12t-60 -35t-48 -57t-28 -79t0 -80t27 -59t47 -36.5t60 -12.5t64.5 12.5t60 36t47.5 58t28 79.5zM553 672l-55 -59l-85 63l-117 -63l-43 59l172 98z" />
    <glyph glyph-name="uni1EA6" unicode="&#x1ea6;" horiz-adv-x="697" 
d="M549 1006l84 -109l-65 -45l-88 103zM467 142h-291l-75 -142h-119l372 696h132l126 -696h-120zM395 558l-172 -327h229zM581 801l-55 -59l-85 63l-117 -63l-43 59l172 98z" />
    <glyph glyph-name="uni1EA7" unicode="&#x1ea7;" horiz-adv-x="678" 
d="M521 877l84 -109l-65 -45l-88 103zM34 278q11 64 40.5 116t71.5 89t93 57t105 20q35 0 63 -7.5t49.5 -20t37 -28.5t25.5 -33l14 80h115l-97 -551h-115l15 82q-16 -18 -38 -34t-48.5 -29t-57.5 -20.5t-65 -7.5q-54 0 -97 21t-71.5 59t-39.5 90.5t0 116.5zM485 276
q8 44 0 78.5t-27 58t-47 36t-60 12.5t-64 -12t-60 -35t-48 -57t-28 -79t0 -80t27 -59t47 -36.5t60 -12.5t64.5 12.5t60 36t47.5 58t28 79.5zM553 672l-55 -59l-85 63l-117 -63l-43 59l172 98z" />
    <glyph glyph-name="uni1EA8" unicode="&#x1ea8;" horiz-adv-x="697" 
d="M493 945q11 38 44.5 56.5t75.5 18.5q40 0 63.5 -20.5t16.5 -53.5q-4 -18 -13 -31.5t-20.5 -22t-24.5 -13t-25 -5.5l-5 -17h-59l9 56q35 0 52 9.5t20 23.5q5 25 -25 25q-31 0 -43 -26h-66zM467 142h-291l-75 -142h-119l372 696h132l126 -696h-120zM395 558l-172 -327h229z
M581 801l-55 -59l-85 63l-117 -63l-43 59l172 98z" />
    <glyph glyph-name="uni1EA9" unicode="&#x1ea9;" horiz-adv-x="678" 
d="M465 816q11 38 44.5 56.5t75.5 18.5q40 0 63.5 -20.5t16.5 -53.5q-4 -18 -13 -31.5t-20.5 -22t-24.5 -13t-25 -5.5l-5 -17h-59l9 56q35 0 52 9.5t20 23.5q5 25 -25 25q-31 0 -43 -26h-66zM34 278q11 64 40.5 116t71.5 89t93 57t105 20q35 0 63 -7.5t49.5 -20t37 -28.5
t25.5 -33l14 80h115l-97 -551h-115l15 82q-16 -18 -38 -34t-48.5 -29t-57.5 -20.5t-65 -7.5q-54 0 -97 21t-71.5 59t-39.5 90.5t0 116.5zM485 276q8 44 0 78.5t-27 58t-47 36t-60 12.5t-64 -12t-60 -35t-48 -57t-28 -79t0 -80t27 -59t47 -36.5t60 -12.5t64.5 12.5t60 36
t47.5 58t28 79.5zM553 672l-55 -59l-85 63l-117 -63l-43 59l172 98z" />
    <glyph glyph-name="uni1EAA" unicode="&#x1eaa;" horiz-adv-x="697" 
d="M467 142h-291l-75 -142h-119l372 696h132l126 -696h-120zM395 558l-172 -327h229zM580 795l-55 -53l-85 57l-117 -57l-43 53l172 88zM307 897q8 48 36.5 75t68.5 27q19 0 33.5 -6t28.5 -14q7 -5 16.5 -9t20.5 -4q22 0 28 31h70q-8 -51 -35.5 -76.5t-69.5 -25.5
q-20 0 -34.5 6.5t-26.5 14.5q-9 4 -18.5 8.5t-19.5 4.5q-22 0 -28 -32h-70z" />
    <glyph glyph-name="uni1EAB" unicode="&#x1eab;" horiz-adv-x="678" 
d="M553 666l-55 -53l-85 57l-117 -57l-43 53l172 88zM280 768q8 48 36.5 75t68.5 27q19 0 33.5 -6t28.5 -14q7 -5 16.5 -9t20.5 -4q22 0 28 31h70q-8 -51 -35.5 -76.5t-69.5 -25.5q-20 0 -34.5 6.5t-26.5 14.5q-9 4 -18.5 8.5t-19.5 4.5q-22 0 -28 -32h-70zM34 278
q11 64 40.5 116t71.5 89t93 57t105 20q35 0 63 -7.5t49.5 -20t37 -28.5t25.5 -33l14 80h115l-97 -551h-115l15 82q-16 -18 -38 -34t-48.5 -29t-57.5 -20.5t-65 -7.5q-54 0 -97 21t-71.5 59t-39.5 90.5t0 116.5zM485 276q8 44 0 78.5t-27 58t-47 36t-60 12.5t-64 -12t-60 -35
t-48 -57t-28 -79t0 -80t27 -59t47 -36.5t60 -12.5t64.5 12.5t60 36t47.5 58t28 79.5z" />
    <glyph glyph-name="uni1EAC" unicode="&#x1eac;" horiz-adv-x="697" 
d="M266 -226q-29 0 -48.5 19t-19.5 48q0 28 19.5 46.5t48.5 18.5q28 0 47 -18.5t19 -46.5q0 -29 -19 -48t-47 -19zM467 142h-291l-75 -142h-119l372 696h132l126 -696h-120zM395 558l-172 -327h229zM581 801l-55 -59l-85 63l-117 -63l-43 59l172 98z" />
    <glyph glyph-name="uni1EAD" unicode="&#x1ead;" horiz-adv-x="678" 
d="M249 -226q-29 0 -48.5 19t-19.5 48q0 28 19.5 46.5t48.5 18.5q28 0 47 -18.5t19 -46.5q0 -29 -19 -48t-47 -19zM34 278q11 64 40.5 116t71.5 89t93 57t105 20q35 0 63 -7.5t49.5 -20t37 -28.5t25.5 -33l14 80h115l-97 -551h-115l15 82q-16 -18 -38 -34t-48.5 -29
t-57.5 -20.5t-65 -7.5q-54 0 -97 21t-71.5 59t-39.5 90.5t0 116.5zM485 276q8 44 0 78.5t-27 58t-47 36t-60 12.5t-64 -12t-60 -35t-48 -57t-28 -79t0 -80t27 -59t47 -36.5t60 -12.5t64.5 12.5t60 36t47.5 58t28 79.5zM553 672l-55 -59l-85 63l-117 -63l-43 59l172 98z" />
    <glyph glyph-name="uni1EAE" unicode="&#x1eae;" horiz-adv-x="697" 
d="M565 978l-110 -101l-62 46l107 108zM467 142h-291l-75 -142h-119l372 696h132l126 -696h-120zM395 558l-172 -327h229zM393 869q-2 -11 -2.5 -21t4 -17.5t15 -12t31.5 -4.5q37 0 54 16.5t22 38.5h82q-12 -57 -56 -94.5t-116 -37.5q-71 0 -97.5 37.5t-14.5 94.5h78z" />
    <glyph glyph-name="uni1EAF" unicode="&#x1eaf;" horiz-adv-x="678" 
d="M537 853l-110 -101l-62 46l107 108zM34 278q11 64 40.5 116t71.5 89t93 57t105 20q35 0 63 -7.5t49.5 -20t37 -28.5t25.5 -33l14 80h115l-97 -551h-115l15 82q-16 -18 -38 -34t-48.5 -29t-57.5 -20.5t-65 -7.5q-54 0 -97 21t-71.5 59t-39.5 90.5t0 116.5zM485 276
q8 44 0 78.5t-27 58t-47 36t-60 12.5t-64 -12t-60 -35t-48 -57t-28 -79t0 -80t27 -59t47 -36.5t60 -12.5t64.5 12.5t60 36t47.5 58t28 79.5zM365 744q-2 -11 -2.5 -21t4 -17.5t15 -12t31.5 -4.5q37 0 54 16.5t22 38.5h82q-12 -57 -56 -94.5t-116 -37.5q-71 0 -97.5 37.5
t-14.5 94.5h78z" />
    <glyph glyph-name="uni1EB0" unicode="&#x1eb0;" horiz-adv-x="697" 
d="M436 1031l84 -109l-65 -45l-88 103zM467 142h-291l-75 -142h-119l372 696h132l126 -696h-120zM395 558l-172 -327h229zM393 869q-2 -11 -2.5 -21t4 -17.5t15 -12t31.5 -4.5q37 0 54 16.5t22 38.5h82q-12 -57 -56 -94.5t-116 -37.5q-71 0 -97.5 37.5t-14.5 94.5h78z" />
    <glyph glyph-name="uni1EB1" unicode="&#x1eb1;" horiz-adv-x="678" 
d="M408 906l84 -109l-65 -45l-88 103zM34 278q11 64 40.5 116t71.5 89t93 57t105 20q35 0 63 -7.5t49.5 -20t37 -28.5t25.5 -33l14 80h115l-97 -551h-115l15 82q-16 -18 -38 -34t-48.5 -29t-57.5 -20.5t-65 -7.5q-54 0 -97 21t-71.5 59t-39.5 90.5t0 116.5zM485 276
q8 44 0 78.5t-27 58t-47 36t-60 12.5t-64 -12t-60 -35t-48 -57t-28 -79t0 -80t27 -59t47 -36.5t60 -12.5t64.5 12.5t60 36t47.5 58t28 79.5zM365 744q-2 -11 -2.5 -21t4 -17.5t15 -12t31.5 -4.5q37 0 54 16.5t22 38.5h82q-12 -57 -56 -94.5t-116 -37.5q-71 0 -97.5 37.5
t-14.5 94.5h78z" />
    <glyph glyph-name="uni1EB2" unicode="&#x1eb2;" horiz-adv-x="697" 
d="M371 946q11 38 44.5 56.5t75.5 18.5q40 0 63.5 -20.5t16.5 -53.5q-4 -18 -13 -31.5t-20.5 -22t-24.5 -13t-25 -5.5l-5 -17h-59l9 56q35 0 52 9.5t20 23.5q5 25 -25 25q-31 0 -43 -26h-66zM467 142h-291l-75 -142h-119l372 696h132l126 -696h-120zM395 558l-172 -327h229z
M392 853q-2 -9 -2.5 -18t4 -15.5t15 -10.5t31.5 -4q37 0 54 14.5t22 33.5h82q-12 -51 -56 -83.5t-116 -32.5t-98 32.5t-14 83.5h78z" />
    <glyph glyph-name="uni1EB3" unicode="&#x1eb3;" horiz-adv-x="678" 
d="M344 822q11 38 44.5 56.5t75.5 18.5q40 0 63.5 -20.5t16.5 -53.5q-4 -18 -13 -31.5t-20.5 -22t-24.5 -13t-25 -5.5l-5 -17h-59l9 56q35 0 52 9.5t20 23.5q5 25 -25 25q-31 0 -43 -26h-66zM365 728q-2 -9 -2.5 -18t4 -15.5t15 -10.5t31.5 -4q37 0 54 14.5t22 33.5h82
q-12 -51 -56 -83.5t-116 -32.5t-98 32.5t-14 83.5h78zM34 278q11 64 40.5 116t71.5 89t93 57t105 20q35 0 63 -7.5t49.5 -20t37 -28.5t25.5 -33l14 80h115l-97 -551h-115l15 82q-16 -18 -38 -34t-48.5 -29t-57.5 -20.5t-65 -7.5q-54 0 -97 21t-71.5 59t-39.5 90.5t0 116.5z
M485 276q8 44 0 78.5t-27 58t-47 36t-60 12.5t-64 -12t-60 -35t-48 -57t-28 -79t0 -80t27 -59t47 -36.5t60 -12.5t64.5 12.5t60 36t47.5 58t28 79.5z" />
    <glyph glyph-name="uni1EB4" unicode="&#x1eb4;" horiz-adv-x="697" 
d="M392 853q-2 -9 -2.5 -18t4 -15.5t15 -10.5t31.5 -4q37 0 54 14.5t22 33.5h82q-12 -51 -56 -83.5t-116 -32.5t-98 32.5t-14 83.5h78zM467 142h-291l-75 -142h-119l372 696h132l126 -696h-120zM395 558l-172 -327h229zM318 881q10 48 39.5 74.5t69.5 26.5q19 0 33.5 -6
t27.5 -13q7 -5 16.5 -9.5t20.5 -4.5q23 0 29 31h70q-9 -51 -38 -76t-71 -25q-20 0 -34.5 6.5t-26.5 13.5l-17 8.5t-19 4.5q-24 0 -30 -31h-70z" />
    <glyph glyph-name="uni1EB5" unicode="&#x1eb5;" horiz-adv-x="678" 
d="M365 728q-2 -9 -2.5 -18t4 -15.5t15 -10.5t31.5 -4q37 0 54 14.5t22 33.5h82q-12 -51 -56 -83.5t-116 -32.5t-98 32.5t-14 83.5h78zM291 756q10 48 39.5 74.5t69.5 26.5q19 0 33.5 -6t27.5 -13q7 -5 16.5 -9.5t20.5 -4.5q23 0 29 31h70q-9 -51 -38 -76t-71 -25
q-20 0 -34.5 6.5t-26.5 13.5l-17 8.5t-19 4.5q-24 0 -30 -31h-70zM34 278q11 64 40.5 116t71.5 89t93 57t105 20q35 0 63 -7.5t49.5 -20t37 -28.5t25.5 -33l14 80h115l-97 -551h-115l15 82q-16 -18 -38 -34t-48.5 -29t-57.5 -20.5t-65 -7.5q-54 0 -97 21t-71.5 59
t-39.5 90.5t0 116.5zM485 276q8 44 0 78.5t-27 58t-47 36t-60 12.5t-64 -12t-60 -35t-48 -57t-28 -79t0 -80t27 -59t47 -36.5t60 -12.5t64.5 12.5t60 36t47.5 58t28 79.5z" />
    <glyph glyph-name="uni1EB6" unicode="&#x1eb6;" horiz-adv-x="697" 
d="M266 -226q-29 0 -48.5 19t-19.5 48q0 28 19.5 46.5t48.5 18.5q28 0 47 -18.5t19 -46.5q0 -29 -19 -48t-47 -19zM467 142h-291l-75 -142h-119l372 696h132l126 -696h-120zM395 558l-172 -327h229zM393 869q-2 -11 -2.5 -21t4 -17.5t15 -12t31.5 -4.5q37 0 54 16.5t22 38.5
h82q-12 -57 -56 -94.5t-116 -37.5q-71 0 -97.5 37.5t-14.5 94.5h78z" />
    <glyph glyph-name="uni1EB7" unicode="&#x1eb7;" horiz-adv-x="678" 
d="M249 -226q-29 0 -48.5 19t-19.5 48q0 28 19.5 46.5t48.5 18.5q28 0 47 -18.5t19 -46.5q0 -29 -19 -48t-47 -19zM34 278q11 64 40.5 116t71.5 89t93 57t105 20q35 0 63 -7.5t49.5 -20t37 -28.5t25.5 -33l14 80h115l-97 -551h-115l15 82q-16 -18 -38 -34t-48.5 -29
t-57.5 -20.5t-65 -7.5q-54 0 -97 21t-71.5 59t-39.5 90.5t0 116.5zM485 276q8 44 0 78.5t-27 58t-47 36t-60 12.5t-64 -12t-60 -35t-48 -57t-28 -79t0 -80t27 -59t47 -36.5t60 -12.5t64.5 12.5t60 36t47.5 58t28 79.5zM365 744q-2 -11 -2.5 -21t4 -17.5t15 -12t31.5 -4.5
q37 0 54 16.5t22 38.5h82q-12 -57 -56 -94.5t-116 -37.5q-71 0 -97.5 37.5t-14.5 94.5h78z" />
    <glyph glyph-name="uni1EB8" unicode="&#x1eb8;" horiz-adv-x="524" 
d="M184 -226q-29 0 -48.5 19t-19.5 48q0 28 19.5 46.5t48.5 18.5q28 0 47 -18.5t19 -46.5q0 -29 -19 -48t-47 -19zM514 607h-270l-37 -211h240l-15 -88h-240l-39 -219h270l-16 -89h-384l123 696h384z" />
    <glyph glyph-name="uni1EB9" unicode="&#x1eb9;" horiz-adv-x="617" 
d="M210 -226q-29 0 -48.5 19t-19.5 48q0 28 19.5 46.5t48.5 18.5q28 0 47 -18.5t19 -46.5q0 -29 -19 -48t-47 -19zM337 464q-60 0 -109 -38t-68 -107h306q5 34 -2.5 61t-25 45.5t-43.5 28.5t-58 10zM542 164q-18 -36 -45.5 -67.5t-63.5 -55t-79.5 -37t-94.5 -13.5
q-59 0 -106 20t-77.5 57.5t-42 90t0.5 117.5t41.5 117.5t72 89.5t96.5 57t115 20q59 0 105 -19.5t75 -55t40 -85t1 -109.5q-2 -13 -5.5 -26.5t-8.5 -27.5h-421q-8 -70 29.5 -110t101.5 -40q54 0 88 22.5t55 54.5h123z" />
    <glyph glyph-name="uni1EBA" unicode="&#x1eba;" horiz-adv-x="524" 
d="M261 854q12 45 48.5 66t79.5 21q42 0 65.5 -24t16.5 -61q-4 -21 -14 -36.5t-22.5 -26t-26.5 -16t-26 -6.5l-5 -19h-61l11 65q38 0 55.5 11t20.5 28q2 11 -5 19.5t-21 8.5q-37 0 -48 -30h-68zM514 607h-270l-37 -211h240l-15 -88h-240l-39 -219h270l-16 -89h-384l123 696
h384z" />
    <glyph glyph-name="uni1EBB" unicode="&#x1ebb;" horiz-adv-x="617" 
d="M300 726q12 45 48.5 66t79.5 21q42 0 65.5 -24t16.5 -61q-4 -21 -14 -36.5t-22.5 -26t-26.5 -16t-26 -6.5l-5 -19h-61l11 65q38 0 55.5 11t20.5 28q2 11 -5 19.5t-21 8.5q-37 0 -48 -30h-68zM337 464q-60 0 -109 -38t-68 -107h306q5 34 -2.5 61t-25 45.5t-43.5 28.5
t-58 10zM542 164q-18 -36 -45.5 -67.5t-63.5 -55t-79.5 -37t-94.5 -13.5q-59 0 -106 20t-77.5 57.5t-42 90t0.5 117.5t41.5 117.5t72 89.5t96.5 57t115 20q59 0 105 -19.5t75 -55t40 -85t1 -109.5q-2 -13 -5.5 -26.5t-8.5 -27.5h-421q-8 -70 29.5 -110t101.5 -40
q54 0 88 22.5t55 54.5h123z" />
    <glyph glyph-name="uni1EBC" unicode="&#x1ebc;" horiz-adv-x="524" 
d="M205 764q10 54 40 83.5t70 29.5q19 0 33.5 -7t26.5 -15q8 -5 17 -9.5t20 -4.5q23 0 30 34h70q-11 -57 -40 -85t-71 -28q-20 0 -34 7.5t-26 15.5q-9 5 -18 9.5t-19 4.5q-23 0 -29 -35h-70zM514 607h-270l-37 -211h240l-15 -88h-240l-39 -219h270l-16 -89h-384l123 696h384
z" />
    <glyph glyph-name="uni1EBD" unicode="&#x1ebd;" horiz-adv-x="617" 
d="M235 635q10 54 40 83.5t70 29.5q19 0 33.5 -7t26.5 -15q8 -5 17 -9.5t20 -4.5q23 0 30 34h70q-11 -57 -40 -85t-71 -28q-20 0 -34 7.5t-26 15.5q-9 5 -18 9.5t-19 4.5q-23 0 -29 -35h-70zM337 464q-60 0 -109 -38t-68 -107h306q5 34 -2.5 61t-25 45.5t-43.5 28.5t-58 10z
M542 164q-18 -36 -45.5 -67.5t-63.5 -55t-79.5 -37t-94.5 -13.5q-59 0 -106 20t-77.5 57.5t-42 90t0.5 117.5t41.5 117.5t72 89.5t96.5 57t115 20q59 0 105 -19.5t75 -55t40 -85t1 -109.5q-2 -13 -5.5 -26.5t-8.5 -27.5h-421q-8 -70 29.5 -110t101.5 -40q54 0 88 22.5
t55 54.5h123z" />
    <glyph glyph-name="uni1EBE" unicode="&#x1ebe;" horiz-adv-x="524" 
d="M602 955l-110 -101l-62 46l107 108zM514 607h-270l-37 -211h240l-15 -88h-240l-39 -219h270l-16 -89h-384l123 696h384zM498 801l-55 -59l-85 63l-117 -63l-43 59l172 98z" />
    <glyph glyph-name="uni1EBF" unicode="&#x1ebf;" horiz-adv-x="617" 
d="M633 826l-110 -101l-62 46l107 108zM337 464q-60 0 -109 -38t-68 -107h306q5 34 -2.5 61t-25 45.5t-43.5 28.5t-58 10zM542 164q-18 -36 -45.5 -67.5t-63.5 -55t-79.5 -37t-94.5 -13.5q-59 0 -106 20t-77.5 57.5t-42 90t0.5 117.5t41.5 117.5t72 89.5t96.5 57t115 20
q59 0 105 -19.5t75 -55t40 -85t1 -109.5q-2 -13 -5.5 -26.5t-8.5 -27.5h-421q-8 -70 29.5 -110t101.5 -40q54 0 88 22.5t55 54.5h123zM529 672l-55 -59l-85 63l-117 -63l-43 59l172 98z" />
    <glyph glyph-name="uni1EC0" unicode="&#x1ec0;" horiz-adv-x="524" 
d="M466 1006l84 -109l-65 -45l-88 103zM514 607h-270l-37 -211h240l-15 -88h-240l-39 -219h270l-16 -89h-384l123 696h384zM498 801l-55 -59l-85 63l-117 -63l-43 59l172 98z" />
    <glyph glyph-name="uni1EC1" unicode="&#x1ec1;" horiz-adv-x="617" 
d="M497 877l84 -109l-65 -45l-88 103zM337 464q-60 0 -109 -38t-68 -107h306q5 34 -2.5 61t-25 45.5t-43.5 28.5t-58 10zM542 164q-18 -36 -45.5 -67.5t-63.5 -55t-79.5 -37t-94.5 -13.5q-59 0 -106 20t-77.5 57.5t-42 90t0.5 117.5t41.5 117.5t72 89.5t96.5 57t115 20
q59 0 105 -19.5t75 -55t40 -85t1 -109.5q-2 -13 -5.5 -26.5t-8.5 -27.5h-421q-8 -70 29.5 -110t101.5 -40q54 0 88 22.5t55 54.5h123zM529 672l-55 -59l-85 63l-117 -63l-43 59l172 98z" />
    <glyph glyph-name="uni1EC2" unicode="&#x1ec2;" horiz-adv-x="524" 
d="M410 945q11 38 44.5 56.5t75.5 18.5q40 0 63.5 -20.5t16.5 -53.5q-4 -18 -13 -31.5t-20.5 -22t-24.5 -13t-25 -5.5l-5 -17h-59l9 56q35 0 52 9.5t20 23.5q5 25 -25 25q-31 0 -43 -26h-66zM514 607h-270l-37 -211h240l-15 -88h-240l-39 -219h270l-16 -89h-384l123 696h384
zM498 801l-55 -59l-85 63l-117 -63l-43 59l172 98z" />
    <glyph glyph-name="uni1EC3" unicode="&#x1ec3;" horiz-adv-x="617" 
d="M441 816q11 38 44.5 56.5t75.5 18.5q40 0 63.5 -20.5t16.5 -53.5q-4 -18 -13 -31.5t-20.5 -22t-24.5 -13t-25 -5.5l-5 -17h-59l9 56q35 0 52 9.5t20 23.5q5 25 -25 25q-31 0 -43 -26h-66zM337 464q-60 0 -109 -38t-68 -107h306q5 34 -2.5 61t-25 45.5t-43.5 28.5t-58 10z
M542 164q-18 -36 -45.5 -67.5t-63.5 -55t-79.5 -37t-94.5 -13.5q-59 0 -106 20t-77.5 57.5t-42 90t0.5 117.5t41.5 117.5t72 89.5t96.5 57t115 20q59 0 105 -19.5t75 -55t40 -85t1 -109.5q-2 -13 -5.5 -26.5t-8.5 -27.5h-421q-8 -70 29.5 -110t101.5 -40q54 0 88 22.5
t55 54.5h123zM529 672l-55 -59l-85 63l-117 -63l-43 59l172 98z" />
    <glyph glyph-name="uni1EC4" unicode="&#x1ec4;" horiz-adv-x="524" 
d="M498 795l-55 -53l-85 57l-117 -57l-43 53l172 88zM225 897q8 48 36.5 75t68.5 27q19 0 33.5 -6t28.5 -14q7 -5 16.5 -9t20.5 -4q22 0 28 31h70q-8 -51 -35.5 -76.5t-69.5 -25.5q-20 0 -34.5 6.5t-26.5 14.5q-9 4 -18.5 8.5t-19.5 4.5q-22 0 -28 -32h-70zM514 607h-270
l-37 -211h240l-15 -88h-240l-39 -219h270l-16 -89h-384l123 696h384z" />
    <glyph glyph-name="uni1EC5" unicode="&#x1ec5;" horiz-adv-x="617" 
d="M529 666l-55 -53l-85 57l-117 -57l-43 53l172 88zM256 768q8 48 36.5 75t68.5 27q19 0 33.5 -6t28.5 -14q7 -5 16.5 -9t20.5 -4q22 0 28 31h70q-8 -51 -35.5 -76.5t-69.5 -25.5q-20 0 -34.5 6.5t-26.5 14.5q-9 4 -18.5 8.5t-19.5 4.5q-22 0 -28 -32h-70zM337 464
q-60 0 -109 -38t-68 -107h306q5 34 -2.5 61t-25 45.5t-43.5 28.5t-58 10zM542 164q-18 -36 -45.5 -67.5t-63.5 -55t-79.5 -37t-94.5 -13.5q-59 0 -106 20t-77.5 57.5t-42 90t0.5 117.5t41.5 117.5t72 89.5t96.5 57t115 20q59 0 105 -19.5t75 -55t40 -85t1 -109.5
q-2 -13 -5.5 -26.5t-8.5 -27.5h-421q-8 -70 29.5 -110t101.5 -40q54 0 88 22.5t55 54.5h123z" />
    <glyph glyph-name="uni1EC6" unicode="&#x1ec6;" horiz-adv-x="524" 
d="M184 -226q-29 0 -48.5 19t-19.5 48q0 28 19.5 46.5t48.5 18.5q28 0 47 -18.5t19 -46.5q0 -29 -19 -48t-47 -19zM514 607h-270l-37 -211h240l-15 -88h-240l-39 -219h270l-16 -89h-384l123 696h384zM498 801l-55 -59l-85 63l-117 -63l-43 59l172 98z" />
    <glyph glyph-name="uni1EC7" unicode="&#x1ec7;" horiz-adv-x="617" 
d="M210 -226q-29 0 -48.5 19t-19.5 48q0 28 19.5 46.5t48.5 18.5q28 0 47 -18.5t19 -46.5q0 -29 -19 -48t-47 -19zM337 464q-60 0 -109 -38t-68 -107h306q5 34 -2.5 61t-25 45.5t-43.5 28.5t-58 10zM542 164q-18 -36 -45.5 -67.5t-63.5 -55t-79.5 -37t-94.5 -13.5
q-59 0 -106 20t-77.5 57.5t-42 90t0.5 117.5t41.5 117.5t72 89.5t96.5 57t115 20q59 0 105 -19.5t75 -55t40 -85t1 -109.5q-2 -13 -5.5 -26.5t-8.5 -27.5h-421q-8 -70 29.5 -110t101.5 -40q54 0 88 22.5t55 54.5h123zM529 672l-55 -59l-85 63l-117 -63l-43 59l172 98z" />
    <glyph glyph-name="uni1EC8" unicode="&#x1ec8;" horiz-adv-x="264" 
d="M124 854q12 45 48.5 66t79.5 21q42 0 65.5 -24t16.5 -61q-4 -21 -14 -36.5t-22.5 -26t-26.5 -16t-26 -6.5l-5 -19h-61l11 65q38 0 55.5 11t20.5 28q2 11 -5 19.5t-21 8.5q-37 0 -48 -30h-68zM146 695h114l-123 -695h-114z" />
    <glyph glyph-name="uni1EC9" unicode="&#x1ec9;" horiz-adv-x="264" 
d="M120 551h114l-97 -551h-114zM101 726q12 45 48.5 66t79.5 21q42 0 65.5 -24t16.5 -61q-4 -21 -14 -36.5t-22.5 -26t-26.5 -16t-26 -6.5l-5 -19h-61l11 65q38 0 55.5 11t20.5 28q2 11 -5 19.5t-21 8.5q-37 0 -48 -30h-68z" />
    <glyph glyph-name="uni1ECA" unicode="&#x1eca;" horiz-adv-x="264" 
d="M64 -226q-29 0 -48.5 19t-19.5 48q0 28 19.5 46.5t48.5 18.5q28 0 47 -18.5t19 -46.5q0 -29 -19 -48t-47 -19zM146 695h114l-123 -695h-114z" />
    <glyph glyph-name="uni1ECB" unicode="&#x1ecb;" horiz-adv-x="264" 
d="M64 -226q-29 0 -48.5 19t-19.5 48q0 28 19.5 46.5t48.5 18.5q28 0 47 -18.5t19 -46.5q0 -29 -19 -48t-47 -19zM120 551h114l-97 -551h-114zM204 637q-29 0 -48.5 19t-19.5 48q0 28 19.5 46.5t48.5 18.5q28 0 47 -18.5t19 -46.5q0 -29 -19 -48t-47 -19z" />
    <glyph glyph-name="uni1ECC" unicode="&#x1ecc;" horiz-adv-x="784" 
d="M289 -226q-29 0 -48.5 19t-19.5 48q0 28 19.5 46.5t48.5 18.5q28 0 47 -18.5t19 -46.5q0 -29 -19 -48t-47 -19zM757 412q0 -91 -31 -167.5t-86.5 -132.5t-131 -87.5t-165.5 -31.5q-67 0 -121.5 21.5t-93.5 60.5t-60 92.5t-21 118.5q0 90 31 167t86.5 132.5t131 87
t164.5 31.5q67 0 122 -21.5t94 -60.5t60 -92.5t21 -117.5zM165 293q0 -91 50.5 -144t143.5 -53q63 0 114.5 25t88.5 67t57 98t20 118q0 91 -50.5 143.5t-144.5 52.5q-63 0 -114.5 -24.5t-88 -66.5t-56.5 -97.5t-20 -118.5z" />
    <glyph glyph-name="uni1ECD" unicode="&#x1ecd;" horiz-adv-x="638" 
d="M215 -226q-29 0 -48.5 19t-19.5 48q0 28 19.5 46.5t48.5 18.5q28 0 47 -18.5t19 -46.5q0 -29 -19 -48t-47 -19zM602 327q0 -71 -26 -132.5t-71.5 -106.5t-107.5 -71t-133 -26q-53 0 -96.5 17t-74 47.5t-47.5 73t-17 94.5q0 70 25 131.5t70 107t106 72t133 26.5
q53 0 97 -17t75.5 -47.5t49 -73.5t17.5 -95zM147 228q0 -70 37 -105.5t94 -35.5q44 0 82 19t65.5 51.5t43 74.5t15.5 88q0 36 -11 63t-30 45t-43.5 27t-52.5 9q-45 0 -82 -19.5t-63 -52t-40.5 -75.5t-14.5 -89z" />
    <glyph glyph-name="uni1ECE" unicode="&#x1ece;" horiz-adv-x="784" 
d="M393 854q12 45 48.5 66t79.5 21q42 0 65.5 -24t16.5 -61q-4 -21 -14 -36.5t-22.5 -26t-26.5 -16t-26 -6.5l-5 -19h-61l11 65q38 0 55.5 11t20.5 28q2 11 -5 19.5t-21 8.5q-37 0 -48 -30h-68zM757 412q0 -91 -31 -167.5t-86.5 -132.5t-131 -87.5t-165.5 -31.5
q-67 0 -121.5 21.5t-93.5 60.5t-60 92.5t-21 118.5q0 90 31 167t86.5 132.5t131 87t164.5 31.5q67 0 122 -21.5t94 -60.5t60 -92.5t21 -117.5zM165 293q0 -91 50.5 -144t143.5 -53q63 0 114.5 25t88.5 67t57 98t20 118q0 91 -50.5 143.5t-144.5 52.5q-63 0 -114.5 -24.5
t-88 -66.5t-56.5 -97.5t-20 -118.5z" />
    <glyph glyph-name="uni1ECF" unicode="&#x1ecf;" horiz-adv-x="638" 
d="M304 726q12 45 48.5 66t79.5 21q42 0 65.5 -24t16.5 -61q-4 -21 -14 -36.5t-22.5 -26t-26.5 -16t-26 -6.5l-5 -19h-61l11 65q38 0 55.5 11t20.5 28q2 11 -5 19.5t-21 8.5q-37 0 -48 -30h-68zM602 327q0 -71 -26 -132.5t-71.5 -106.5t-107.5 -71t-133 -26q-53 0 -96.5 17
t-74 47.5t-47.5 73t-17 94.5q0 70 25 131.5t70 107t106 72t133 26.5q53 0 97 -17t75.5 -47.5t49 -73.5t17.5 -95zM147 228q0 -70 37 -105.5t94 -35.5q44 0 82 19t65.5 51.5t43 74.5t15.5 88q0 36 -11 63t-30 45t-43.5 27t-52.5 9q-45 0 -82 -19.5t-63 -52t-40.5 -75.5
t-14.5 -89z" />
    <glyph glyph-name="uni1ED0" unicode="&#x1ed0;" horiz-adv-x="784" 
d="M738 955l-110 -101l-62 46l107 108zM757 412q0 -91 -31 -167.5t-86.5 -132.5t-131 -87.5t-165.5 -31.5q-67 0 -121.5 21.5t-93.5 60.5t-60 92.5t-21 118.5q0 90 31 167t86.5 132.5t131 87t164.5 31.5q67 0 122 -21.5t94 -60.5t60 -92.5t21 -117.5zM165 293
q0 -91 50.5 -144t143.5 -53q63 0 114.5 25t88.5 67t57 98t20 118q0 91 -50.5 143.5t-144.5 52.5q-63 0 -114.5 -24.5t-88 -66.5t-56.5 -97.5t-20 -118.5zM634 801l-55 -59l-85 63l-117 -63l-43 59l172 98z" />
    <glyph glyph-name="uni1ED1" unicode="&#x1ed1;" horiz-adv-x="638" 
d="M648 826l-110 -101l-62 46l107 108zM602 327q0 -71 -26 -132.5t-71.5 -106.5t-107.5 -71t-133 -26q-53 0 -96.5 17t-74 47.5t-47.5 73t-17 94.5q0 70 25 131.5t70 107t106 72t133 26.5q53 0 97 -17t75.5 -47.5t49 -73.5t17.5 -95zM147 228q0 -70 37 -105.5t94 -35.5
q44 0 82 19t65.5 51.5t43 74.5t15.5 88q0 36 -11 63t-30 45t-43.5 27t-52.5 9q-45 0 -82 -19.5t-63 -52t-40.5 -75.5t-14.5 -89zM544 672l-55 -59l-85 63l-117 -63l-43 59l172 98z" />
    <glyph glyph-name="uni1ED2" unicode="&#x1ed2;" horiz-adv-x="784" 
d="M602 1006l84 -109l-65 -45l-88 103zM757 412q0 -91 -31 -167.5t-86.5 -132.5t-131 -87.5t-165.5 -31.5q-67 0 -121.5 21.5t-93.5 60.5t-60 92.5t-21 118.5q0 90 31 167t86.5 132.5t131 87t164.5 31.5q67 0 122 -21.5t94 -60.5t60 -92.5t21 -117.5zM165 293
q0 -91 50.5 -144t143.5 -53q63 0 114.5 25t88.5 67t57 98t20 118q0 91 -50.5 143.5t-144.5 52.5q-63 0 -114.5 -24.5t-88 -66.5t-56.5 -97.5t-20 -118.5zM634 801l-55 -59l-85 63l-117 -63l-43 59l172 98z" />
    <glyph glyph-name="uni1ED3" unicode="&#x1ed3;" horiz-adv-x="638" 
d="M512 877l84 -109l-65 -45l-88 103zM602 327q0 -71 -26 -132.5t-71.5 -106.5t-107.5 -71t-133 -26q-53 0 -96.5 17t-74 47.5t-47.5 73t-17 94.5q0 70 25 131.5t70 107t106 72t133 26.5q53 0 97 -17t75.5 -47.5t49 -73.5t17.5 -95zM147 228q0 -70 37 -105.5t94 -35.5
q44 0 82 19t65.5 51.5t43 74.5t15.5 88q0 36 -11 63t-30 45t-43.5 27t-52.5 9q-45 0 -82 -19.5t-63 -52t-40.5 -75.5t-14.5 -89zM544 672l-55 -59l-85 63l-117 -63l-43 59l172 98z" />
    <glyph glyph-name="uni1ED4" unicode="&#x1ed4;" horiz-adv-x="784" 
d="M546 945q11 38 44.5 56.5t75.5 18.5q40 0 63.5 -20.5t16.5 -53.5q-4 -18 -13 -31.5t-20.5 -22t-24.5 -13t-25 -5.5l-5 -17h-59l9 56q35 0 52 9.5t20 23.5q5 25 -25 25q-31 0 -43 -26h-66zM757 412q0 -91 -31 -167.5t-86.5 -132.5t-131 -87.5t-165.5 -31.5
q-67 0 -121.5 21.5t-93.5 60.5t-60 92.5t-21 118.5q0 90 31 167t86.5 132.5t131 87t164.5 31.5q67 0 122 -21.5t94 -60.5t60 -92.5t21 -117.5zM165 293q0 -91 50.5 -144t143.5 -53q63 0 114.5 25t88.5 67t57 98t20 118q0 91 -50.5 143.5t-144.5 52.5q-63 0 -114.5 -24.5
t-88 -66.5t-56.5 -97.5t-20 -118.5zM634 801l-55 -59l-85 63l-117 -63l-43 59l172 98z" />
    <glyph glyph-name="uni1ED5" unicode="&#x1ed5;" horiz-adv-x="638" 
d="M456 816q11 38 44.5 56.5t75.5 18.5q40 0 63.5 -20.5t16.5 -53.5q-4 -18 -13 -31.5t-20.5 -22t-24.5 -13t-25 -5.5l-5 -17h-59l9 56q35 0 52 9.5t20 23.5q5 25 -25 25q-31 0 -43 -26h-66zM602 327q0 -71 -26 -132.5t-71.5 -106.5t-107.5 -71t-133 -26q-53 0 -96.5 17
t-74 47.5t-47.5 73t-17 94.5q0 70 25 131.5t70 107t106 72t133 26.5q53 0 97 -17t75.5 -47.5t49 -73.5t17.5 -95zM147 228q0 -70 37 -105.5t94 -35.5q44 0 82 19t65.5 51.5t43 74.5t15.5 88q0 36 -11 63t-30 45t-43.5 27t-52.5 9q-45 0 -82 -19.5t-63 -52t-40.5 -75.5
t-14.5 -89zM544 672l-55 -59l-85 63l-117 -63l-43 59l172 98z" />
    <glyph glyph-name="uni1ED6" unicode="&#x1ed6;" horiz-adv-x="784" 
d="M634 795l-55 -53l-85 57l-117 -57l-43 53l172 88zM361 897q8 48 36.5 75t68.5 27q19 0 33.5 -6t28.5 -14q7 -5 16.5 -9t20.5 -4q22 0 28 31h70q-8 -51 -35.5 -76.5t-69.5 -25.5q-20 0 -34.5 6.5t-26.5 14.5q-9 4 -18.5 8.5t-19.5 4.5q-22 0 -28 -32h-70zM757 412
q0 -91 -31 -167.5t-86.5 -132.5t-131 -87.5t-165.5 -31.5q-67 0 -121.5 21.5t-93.5 60.5t-60 92.5t-21 118.5q0 90 31 167t86.5 132.5t131 87t164.5 31.5q67 0 122 -21.5t94 -60.5t60 -92.5t21 -117.5zM165 293q0 -91 50.5 -144t143.5 -53q63 0 114.5 25t88.5 67t57 98
t20 118q0 91 -50.5 143.5t-144.5 52.5q-63 0 -114.5 -24.5t-88 -66.5t-56.5 -97.5t-20 -118.5z" />
    <glyph glyph-name="uni1ED7" unicode="&#x1ed7;" horiz-adv-x="638" 
d="M543 666l-55 -53l-85 57l-117 -57l-43 53l172 88zM270 768q8 48 36.5 75t68.5 27q19 0 33.5 -6t28.5 -14q7 -5 16.5 -9t20.5 -4q22 0 28 31h70q-8 -51 -35.5 -76.5t-69.5 -25.5q-20 0 -34.5 6.5t-26.5 14.5q-9 4 -18.5 8.5t-19.5 4.5q-22 0 -28 -32h-70zM602 327
q0 -71 -26 -132.5t-71.5 -106.5t-107.5 -71t-133 -26q-53 0 -96.5 17t-74 47.5t-47.5 73t-17 94.5q0 70 25 131.5t70 107t106 72t133 26.5q53 0 97 -17t75.5 -47.5t49 -73.5t17.5 -95zM147 228q0 -70 37 -105.5t94 -35.5q44 0 82 19t65.5 51.5t43 74.5t15.5 88q0 36 -11 63
t-30 45t-43.5 27t-52.5 9q-45 0 -82 -19.5t-63 -52t-40.5 -75.5t-14.5 -89z" />
    <glyph glyph-name="uni1ED8" unicode="&#x1ed8;" horiz-adv-x="784" 
d="M289 -226q-29 0 -48.5 19t-19.5 48q0 28 19.5 46.5t48.5 18.5q28 0 47 -18.5t19 -46.5q0 -29 -19 -48t-47 -19zM757 412q0 -91 -31 -167.5t-86.5 -132.5t-131 -87.5t-165.5 -31.5q-67 0 -121.5 21.5t-93.5 60.5t-60 92.5t-21 118.5q0 90 31 167t86.5 132.5t131 87
t164.5 31.5q67 0 122 -21.5t94 -60.5t60 -92.5t21 -117.5zM165 293q0 -91 50.5 -144t143.5 -53q63 0 114.5 25t88.5 67t57 98t20 118q0 91 -50.5 143.5t-144.5 52.5q-63 0 -114.5 -24.5t-88 -66.5t-56.5 -97.5t-20 -118.5zM634 801l-55 -59l-85 63l-117 -63l-43 59l172 98z
" />
    <glyph glyph-name="uni1ED9" unicode="&#x1ed9;" horiz-adv-x="638" 
d="M215 -226q-29 0 -48.5 19t-19.5 48q0 28 19.5 46.5t48.5 18.5q28 0 47 -18.5t19 -46.5q0 -29 -19 -48t-47 -19zM602 327q0 -71 -26 -132.5t-71.5 -106.5t-107.5 -71t-133 -26q-53 0 -96.5 17t-74 47.5t-47.5 73t-17 94.5q0 70 25 131.5t70 107t106 72t133 26.5
q53 0 97 -17t75.5 -47.5t49 -73.5t17.5 -95zM147 228q0 -70 37 -105.5t94 -35.5q44 0 82 19t65.5 51.5t43 74.5t15.5 88q0 36 -11 63t-30 45t-43.5 27t-52.5 9q-45 0 -82 -19.5t-63 -52t-40.5 -75.5t-14.5 -89zM544 672l-55 -59l-85 63l-117 -63l-43 59l172 98z" />
    <glyph glyph-name="uni1EDA" unicode="&#x1eda;" horiz-adv-x="784" 
d="M638 854l-178 -102l-42 70l178 105zM757 412q0 -91 -31 -167.5t-86.5 -132.5t-131 -87.5t-165.5 -31.5q-67 0 -121.5 21.5t-93.5 60.5t-60 92.5t-21 118.5q0 90 31 167t86.5 132.5t131 87t164.5 31.5q19 0 36.5 -2t34.5 -5q8 -1 17.5 -2t18 -1.5t14.5 -0.5h7
q58 2 81.5 25t31.5 63h90q-22 -121 -124 -151q43 -39 66.5 -94t23.5 -124zM165 293q0 -91 50.5 -144t143.5 -53q63 0 114.5 25t88.5 67t57 98t20 118q0 91 -50.5 143.5t-144.5 52.5q-63 0 -114.5 -24.5t-88 -66.5t-56.5 -97.5t-20 -118.5z" />
    <glyph glyph-name="uni1EDB" unicode="&#x1edb;" horiz-adv-x="638" 
d="M539 725l-178 -102l-42 70l178 105zM602 327q0 -71 -26 -132.5t-71.5 -106.5t-107.5 -71t-133 -26q-53 0 -96.5 17t-74 47.5t-47.5 73t-17 94.5q0 70 25 131.5t70 107t106 72t133 26.5q29 0 66 -8q11 -1 19.5 -1.5t10.5 -0.5q29 1 48.5 7.5t32 17.5t19.5 27t11 36h90
q-22 -118 -118 -149q60 -63 60 -162zM147 228q0 -70 37 -105.5t94 -35.5q44 0 82 19t65.5 51.5t43 74.5t15.5 88q0 36 -11 63t-30 45t-43.5 27t-52.5 9q-45 0 -82 -19.5t-63 -52t-40.5 -75.5t-14.5 -89z" />
    <glyph glyph-name="uni1EDC" unicode="&#x1edc;" horiz-adv-x="784" 
d="M407 928l145 -112l-55 -64l-150 106zM757 412q0 -91 -31 -167.5t-86.5 -132.5t-131 -87.5t-165.5 -31.5q-67 0 -121.5 21.5t-93.5 60.5t-60 92.5t-21 118.5q0 90 31 167t86.5 132.5t131 87t164.5 31.5q19 0 36.5 -2t34.5 -5q8 -1 17.5 -2t18 -1.5t14.5 -0.5h7
q58 2 81.5 25t31.5 63h90q-22 -121 -124 -151q43 -39 66.5 -94t23.5 -124zM165 293q0 -91 50.5 -144t143.5 -53q63 0 114.5 25t88.5 67t57 98t20 118q0 91 -50.5 143.5t-144.5 52.5q-63 0 -114.5 -24.5t-88 -66.5t-56.5 -97.5t-20 -118.5z" />
    <glyph glyph-name="uni1EDD" unicode="&#x1edd;" horiz-adv-x="638" 
d="M330 799l145 -112l-55 -64l-150 106zM602 327q0 -71 -26 -132.5t-71.5 -106.5t-107.5 -71t-133 -26q-53 0 -96.5 17t-74 47.5t-47.5 73t-17 94.5q0 70 25 131.5t70 107t106 72t133 26.5q29 0 66 -8q11 -1 19.5 -1.5t10.5 -0.5q29 1 48.5 7.5t32 17.5t19.5 27t11 36h90
q-22 -118 -118 -149q60 -63 60 -162zM147 228q0 -70 37 -105.5t94 -35.5q44 0 82 19t65.5 51.5t43 74.5t15.5 88q0 36 -11 63t-30 45t-43.5 27t-52.5 9q-45 0 -82 -19.5t-63 -52t-40.5 -75.5t-14.5 -89z" />
    <glyph glyph-name="uni1EDE" unicode="&#x1ede;" horiz-adv-x="784" 
d="M393 854q12 45 48.5 66t79.5 21q42 0 65.5 -24t16.5 -61q-4 -21 -14 -36.5t-22.5 -26t-26.5 -16t-26 -6.5l-5 -19h-61l11 65q38 0 55.5 11t20.5 28q2 11 -5 19.5t-21 8.5q-37 0 -48 -30h-68zM757 412q0 -91 -31 -167.5t-86.5 -132.5t-131 -87.5t-165.5 -31.5
q-67 0 -121.5 21.5t-93.5 60.5t-60 92.5t-21 118.5q0 90 31 167t86.5 132.5t131 87t164.5 31.5q19 0 36.5 -2t34.5 -5q8 -1 17.5 -2t18 -1.5t14.5 -0.5h7q58 2 81.5 25t31.5 63h90q-22 -121 -124 -151q43 -39 66.5 -94t23.5 -124zM165 293q0 -91 50.5 -144t143.5 -53
q63 0 114.5 25t88.5 67t57 98t20 118q0 91 -50.5 143.5t-144.5 52.5q-63 0 -114.5 -24.5t-88 -66.5t-56.5 -97.5t-20 -118.5z" />
    <glyph glyph-name="uni1EDF" unicode="&#x1edf;" horiz-adv-x="638" 
d="M304 726q12 45 48.5 66t79.5 21q42 0 65.5 -24t16.5 -61q-4 -21 -14 -36.5t-22.5 -26t-26.5 -16t-26 -6.5l-5 -19h-61l11 65q38 0 55.5 11t20.5 28q2 11 -5 19.5t-21 8.5q-37 0 -48 -30h-68zM602 327q0 -71 -26 -132.5t-71.5 -106.5t-107.5 -71t-133 -26q-53 0 -96.5 17
t-74 47.5t-47.5 73t-17 94.5q0 70 25 131.5t70 107t106 72t133 26.5q29 0 66 -8q11 -1 19.5 -1.5t10.5 -0.5q29 1 48.5 7.5t32 17.5t19.5 27t11 36h90q-22 -118 -118 -149q60 -63 60 -162zM147 228q0 -70 37 -105.5t94 -35.5q44 0 82 19t65.5 51.5t43 74.5t15.5 88
q0 36 -11 63t-30 45t-43.5 27t-52.5 9q-45 0 -82 -19.5t-63 -52t-40.5 -75.5t-14.5 -89z" />
    <glyph glyph-name="uni1EE0" unicode="&#x1ee0;" horiz-adv-x="784" 
d="M333 764q10 54 40 83.5t70 29.5q19 0 33.5 -7t26.5 -15q8 -5 17 -9.5t20 -4.5q23 0 30 34h70q-11 -57 -40 -85t-71 -28q-20 0 -34 7.5t-26 15.5q-9 5 -18 9.5t-19 4.5q-23 0 -29 -35h-70zM757 412q0 -91 -31 -167.5t-86.5 -132.5t-131 -87.5t-165.5 -31.5
q-67 0 -121.5 21.5t-93.5 60.5t-60 92.5t-21 118.5q0 90 31 167t86.5 132.5t131 87t164.5 31.5q19 0 36.5 -2t34.5 -5q8 -1 17.5 -2t18 -1.5t14.5 -0.5h7q58 2 81.5 25t31.5 63h90q-22 -121 -124 -151q43 -39 66.5 -94t23.5 -124zM165 293q0 -91 50.5 -144t143.5 -53
q63 0 114.5 25t88.5 67t57 98t20 118q0 91 -50.5 143.5t-144.5 52.5q-63 0 -114.5 -24.5t-88 -66.5t-56.5 -97.5t-20 -118.5z" />
    <glyph glyph-name="uni1EE1" unicode="&#x1ee1;" horiz-adv-x="638" 
d="M252 635q10 54 40 83.5t70 29.5q19 0 33.5 -7t26.5 -15q8 -5 17 -9.5t20 -4.5q23 0 30 34h70q-11 -57 -40 -85t-71 -28q-20 0 -34 7.5t-26 15.5q-9 5 -18 9.5t-19 4.5q-23 0 -29 -35h-70zM602 327q0 -71 -26 -132.5t-71.5 -106.5t-107.5 -71t-133 -26q-53 0 -96.5 17
t-74 47.5t-47.5 73t-17 94.5q0 70 25 131.5t70 107t106 72t133 26.5q29 0 66 -8q11 -1 19.5 -1.5t10.5 -0.5q29 1 48.5 7.5t32 17.5t19.5 27t11 36h90q-22 -118 -118 -149q60 -63 60 -162zM147 228q0 -70 37 -105.5t94 -35.5q44 0 82 19t65.5 51.5t43 74.5t15.5 88
q0 36 -11 63t-30 45t-43.5 27t-52.5 9q-45 0 -82 -19.5t-63 -52t-40.5 -75.5t-14.5 -89z" />
    <glyph glyph-name="uni1EE2" unicode="&#x1ee2;" horiz-adv-x="784" 
d="M289 -226q-29 0 -48.5 19t-19.5 48q0 28 19.5 46.5t48.5 18.5q28 0 47 -18.5t19 -46.5q0 -29 -19 -48t-47 -19zM757 412q0 -91 -31 -167.5t-86.5 -132.5t-131 -87.5t-165.5 -31.5q-67 0 -121.5 21.5t-93.5 60.5t-60 92.5t-21 118.5q0 90 31 167t86.5 132.5t131 87
t164.5 31.5q19 0 36.5 -2t34.5 -5q8 -1 17.5 -2t18 -1.5t14.5 -0.5h7q58 2 81.5 25t31.5 63h90q-22 -121 -124 -151q43 -39 66.5 -94t23.5 -124zM165 293q0 -91 50.5 -144t143.5 -53q63 0 114.5 25t88.5 67t57 98t20 118q0 91 -50.5 143.5t-144.5 52.5q-63 0 -114.5 -24.5
t-88 -66.5t-56.5 -97.5t-20 -118.5z" />
    <glyph glyph-name="uni1EE3" unicode="&#x1ee3;" horiz-adv-x="638" 
d="M215 -226q-29 0 -48.5 19t-19.5 48q0 28 19.5 46.5t48.5 18.5q28 0 47 -18.5t19 -46.5q0 -29 -19 -48t-47 -19zM602 327q0 -71 -26 -132.5t-71.5 -106.5t-107.5 -71t-133 -26q-53 0 -96.5 17t-74 47.5t-47.5 73t-17 94.5q0 70 25 131.5t70 107t106 72t133 26.5
q29 0 66 -8q11 -1 19.5 -1.5t10.5 -0.5q29 1 48.5 7.5t32 17.5t19.5 27t11 36h90q-22 -118 -118 -149q60 -63 60 -162zM147 228q0 -70 37 -105.5t94 -35.5q44 0 82 19t65.5 51.5t43 74.5t15.5 88q0 36 -11 63t-30 45t-43.5 27t-52.5 9q-45 0 -82 -19.5t-63 -52t-40.5 -75.5
t-14.5 -89z" />
    <glyph glyph-name="uni1EE4" unicode="&#x1ee4;" horiz-adv-x="690" 
d="M256 -226q-29 0 -48.5 19t-19.5 48q0 28 19.5 46.5t48.5 18.5q28 0 47 -18.5t19 -46.5q0 -29 -19 -48t-47 -19zM145 695h114l-78 -441q-14 -81 21.5 -120t107.5 -39q73 0 122.5 39t63.5 120l78 441h114l-78 -441q-12 -66 -43 -115.5t-74 -81.5t-95 -48t-107 -16
q-54 0 -100.5 16t-78 48t-44.5 81.5t-1 115.5z" />
    <glyph glyph-name="uni1EE5" unicode="&#x1ee5;" horiz-adv-x="649" 
d="M247 -226q-29 0 -48.5 19t-19.5 48q0 28 19.5 46.5t48.5 18.5q28 0 47 -18.5t19 -46.5q0 -29 -19 -48t-47 -19zM522 0h-114l11 65q-33 -35 -79.5 -54t-95.5 -19q-48 0 -87 15t-64.5 44.5t-35 73.5t0.5 102l57 324h113l-54 -307q-13 -76 17.5 -114.5t93.5 -38.5t107 37
t58 109l55 314h114z" />
    <glyph glyph-name="uni1EE6" unicode="&#x1ee6;" horiz-adv-x="690" 
d="M340 854q12 45 48.5 66t79.5 21q42 0 65.5 -24t16.5 -61q-4 -21 -14 -36.5t-22.5 -26t-26.5 -16t-26 -6.5l-5 -19h-61l11 65q38 0 55.5 11t20.5 28q2 11 -5 19.5t-21 8.5q-37 0 -48 -30h-68zM145 695h114l-78 -441q-14 -81 21.5 -120t107.5 -39q73 0 122.5 39t63.5 120
l78 441h114l-78 -441q-12 -66 -43 -115.5t-74 -81.5t-95 -48t-107 -16q-54 0 -100.5 16t-78 48t-44.5 81.5t-1 115.5z" />
    <glyph glyph-name="uni1EE7" unicode="&#x1ee7;" horiz-adv-x="649" 
d="M296 726q12 45 48.5 66t79.5 21q42 0 65.5 -24t16.5 -61q-4 -21 -14 -36.5t-22.5 -26t-26.5 -16t-26 -6.5l-5 -19h-61l11 65q38 0 55.5 11t20.5 28q2 11 -5 19.5t-21 8.5q-37 0 -48 -30h-68zM522 0h-114l11 65q-33 -35 -79.5 -54t-95.5 -19q-48 0 -87 15t-64.5 44.5
t-35 73.5t0.5 102l57 324h113l-54 -307q-13 -76 17.5 -114.5t93.5 -38.5t107 37t58 109l55 314h114z" />
    <glyph glyph-name="uni1EE8" unicode="&#x1ee8;" horiz-adv-x="690" 
d="M593 854l-178 -102l-42 70l178 105zM145 695h114l-78 -441q-14 -81 21.5 -120t107.5 -39q73 0 122.5 39t63.5 120l78 441h56q43 6 61 28.5t25 57.5h90q-23 -125 -130 -153l-66 -374q-12 -66 -43 -115.5t-74 -81.5t-95 -48t-107 -16q-54 0 -100.5 16t-78 48t-44.5 81.5
t-1 115.5z" />
    <glyph glyph-name="uni1EE9" unicode="&#x1ee9;" horiz-adv-x="649" 
d="M550 725l-178 -102l-42 70l178 105zM747 638q-12 -66 -47 -104t-93 -52l-85 -482h-114l11 65q-33 -35 -79.5 -54t-95.5 -19q-48 0 -87 15t-64.5 44.5t-35 73.5t0.5 102l57 324h113l-54 -307q-13 -76 17.5 -114.5t93.5 -38.5t107 37t58 109l55 314h55q50 5 70 27t27 60h90
z" />
    <glyph glyph-name="uni1EEA" unicode="&#x1eea;" horiz-adv-x="690" 
d="M407 928l145 -112l-55 -64l-150 106zM145 695h114l-78 -441q-14 -81 21.5 -120t107.5 -39q73 0 122.5 39t63.5 120l78 441h56q43 6 61 28.5t25 57.5h90q-23 -125 -130 -153l-66 -374q-12 -66 -43 -115.5t-74 -81.5t-95 -48t-107 -16q-54 0 -100.5 16t-78 48t-44.5 81.5
t-1 115.5z" />
    <glyph glyph-name="uni1EEB" unicode="&#x1eeb;" horiz-adv-x="649" 
d="M310 799l145 -112l-55 -64l-150 106zM747 638q-12 -66 -47 -104t-93 -52l-85 -482h-114l11 65q-33 -35 -79.5 -54t-95.5 -19q-48 0 -87 15t-64.5 44.5t-35 73.5t0.5 102l57 324h113l-54 -307q-13 -76 17.5 -114.5t93.5 -38.5t107 37t58 109l55 314h55q50 5 70 27t27 60
h90z" />
    <glyph glyph-name="uni1EEC" unicode="&#x1eec;" horiz-adv-x="690" 
d="M340 854q12 45 48.5 66t79.5 21q42 0 65.5 -24t16.5 -61q-4 -21 -14 -36.5t-22.5 -26t-26.5 -16t-26 -6.5l-5 -19h-61l11 65q38 0 55.5 11t20.5 28q2 11 -5 19.5t-21 8.5q-37 0 -48 -30h-68zM145 695h114l-78 -441q-14 -81 21.5 -120t107.5 -39q73 0 122.5 39t63.5 120
l78 441h56q43 6 61 28.5t25 57.5h90q-23 -125 -130 -153l-66 -374q-12 -66 -43 -115.5t-74 -81.5t-95 -48t-107 -16q-54 0 -100.5 16t-78 48t-44.5 81.5t-1 115.5z" />
    <glyph glyph-name="uni1EED" unicode="&#x1eed;" horiz-adv-x="649" 
d="M296 726q12 45 48.5 66t79.5 21q42 0 65.5 -24t16.5 -61q-4 -21 -14 -36.5t-22.5 -26t-26.5 -16t-26 -6.5l-5 -19h-61l11 65q38 0 55.5 11t20.5 28q2 11 -5 19.5t-21 8.5q-37 0 -48 -30h-68zM747 638q-12 -66 -47 -104t-93 -52l-85 -482h-114l11 65q-33 -35 -79.5 -54
t-95.5 -19q-48 0 -87 15t-64.5 44.5t-35 73.5t0.5 102l57 324h113l-54 -307q-13 -76 17.5 -114.5t93.5 -38.5t107 37t58 109l55 314h55q50 5 70 27t27 60h90z" />
    <glyph glyph-name="uni1EEE" unicode="&#x1eee;" horiz-adv-x="690" 
d="M287 764q10 54 40 83.5t70 29.5q19 0 33.5 -7t26.5 -15q8 -5 17 -9.5t20 -4.5q23 0 30 34h70q-11 -57 -40 -85t-71 -28q-20 0 -34 7.5t-26 15.5q-9 5 -18 9.5t-19 4.5q-23 0 -29 -35h-70zM145 695h114l-78 -441q-14 -81 21.5 -120t107.5 -39q73 0 122.5 39t63.5 120
l78 441h56q43 6 61 28.5t25 57.5h90q-23 -125 -130 -153l-66 -374q-12 -66 -43 -115.5t-74 -81.5t-95 -48t-107 -16q-54 0 -100.5 16t-78 48t-44.5 81.5t-1 115.5z" />
    <glyph glyph-name="uni1EEF" unicode="&#x1eef;" horiz-adv-x="649" 
d="M231 635q10 54 40 83.5t70 29.5q19 0 33.5 -7t26.5 -15q8 -5 17 -9.5t20 -4.5q23 0 30 34h70q-11 -57 -40 -85t-71 -28q-20 0 -34 7.5t-26 15.5q-9 5 -18 9.5t-19 4.5q-23 0 -29 -35h-70zM747 638q-12 -66 -47 -104t-93 -52l-85 -482h-114l11 65q-33 -35 -79.5 -54
t-95.5 -19q-48 0 -87 15t-64.5 44.5t-35 73.5t0.5 102l57 324h113l-54 -307q-13 -76 17.5 -114.5t93.5 -38.5t107 37t58 109l55 314h55q50 5 70 27t27 60h90z" />
    <glyph glyph-name="uni1EF0" unicode="&#x1ef0;" horiz-adv-x="690" 
d="M256 -226q-29 0 -48.5 19t-19.5 48q0 28 19.5 46.5t48.5 18.5q28 0 47 -18.5t19 -46.5q0 -29 -19 -48t-47 -19zM145 695h114l-78 -441q-14 -81 21.5 -120t107.5 -39q73 0 122.5 39t63.5 120l78 441h56q43 6 61 28.5t25 57.5h90q-23 -125 -130 -153l-66 -374
q-12 -66 -43 -115.5t-74 -81.5t-95 -48t-107 -16q-54 0 -100.5 16t-78 48t-44.5 81.5t-1 115.5z" />
    <glyph glyph-name="uni1EF1" unicode="&#x1ef1;" horiz-adv-x="649" 
d="M247 -226q-29 0 -48.5 19t-19.5 48q0 28 19.5 46.5t48.5 18.5q28 0 47 -18.5t19 -46.5q0 -29 -19 -48t-47 -19zM747 638q-12 -66 -47 -104t-93 -52l-85 -482h-114l11 65q-33 -35 -79.5 -54t-95.5 -19q-48 0 -87 15t-64.5 44.5t-35 73.5t0.5 102l57 324h113l-54 -307
q-13 -76 17.5 -114.5t93.5 -38.5t107 37t58 109l55 314h55q50 5 70 27t27 60h90z" />
    <glyph glyph-name="Ygrave" unicode="&#x1ef2;" horiz-adv-x="605" 
d="M312 928l145 -112l-55 -64l-150 106zM86 695h127l100 -339l220 339h128l-308 -443l-45 -252h-114l45 252z" />
    <glyph glyph-name="ygrave" unicode="&#x1ef3;" horiz-adv-x="582" 
d="M275 799l145 -112l-55 -64l-150 106zM55 551h127l81 -420l235 420h118l-480 -810h-118l159 268z" />
    <glyph glyph-name="uni1EF4" unicode="&#x1ef4;" horiz-adv-x="605" 
d="M233 -226q-29 0 -48.5 19t-19.5 48q0 28 19.5 46.5t48.5 18.5q28 0 47 -18.5t19 -46.5q0 -29 -19 -48t-47 -19zM86 695h127l100 -339l220 339h128l-308 -443l-45 -252h-114l45 252z" />
    <glyph glyph-name="uni1EF5" unicode="&#x1ef5;" horiz-adv-x="582" 
d="M388 -226q-29 0 -48.5 19t-19.5 48q0 28 19.5 46.5t48.5 18.5q28 0 47 -18.5t19 -46.5q0 -29 -19 -48t-47 -19zM55 551h127l81 -420l235 420h118l-480 -810h-118l159 268z" />
    <glyph glyph-name="uni1EF6" unicode="&#x1ef6;" horiz-adv-x="605" 
d="M292 854q12 45 48.5 66t79.5 21q42 0 65.5 -24t16.5 -61q-4 -21 -14 -36.5t-22.5 -26t-26.5 -16t-26 -6.5l-5 -19h-61l11 65q38 0 55.5 11t20.5 28q2 11 -5 19.5t-21 8.5q-37 0 -48 -30h-68zM86 695h127l100 -339l220 339h128l-308 -443l-45 -252h-114l45 252z" />
    <glyph glyph-name="uni1EF7" unicode="&#x1ef7;" horiz-adv-x="582" 
d="M259 726q12 45 48.5 66t79.5 21q42 0 65.5 -24t16.5 -61q-4 -21 -14 -36.5t-22.5 -26t-26.5 -16t-26 -6.5l-5 -19h-61l11 65q38 0 55.5 11t20.5 28q2 11 -5 19.5t-21 8.5q-37 0 -48 -30h-68zM55 551h127l81 -420l235 420h118l-480 -810h-118l159 268z" />
    <glyph glyph-name="uni1EF8" unicode="&#x1ef8;" horiz-adv-x="605" 
d="M234 764q10 54 40 83.5t70 29.5q19 0 33.5 -7t26.5 -15q8 -5 17 -9.5t20 -4.5q23 0 30 34h70q-11 -57 -40 -85t-71 -28q-20 0 -34 7.5t-26 15.5q-9 5 -18 9.5t-19 4.5q-23 0 -29 -35h-70zM86 695h127l100 -339l220 339h128l-308 -443l-45 -252h-114l45 252z" />
    <glyph glyph-name="uni1EF9" unicode="&#x1ef9;" horiz-adv-x="582" 
d="M196 635q10 54 40 83.5t70 29.5q19 0 33.5 -7t26.5 -15q8 -5 17 -9.5t20 -4.5q23 0 30 34h70q-11 -57 -40 -85t-71 -28q-20 0 -34 7.5t-26 15.5q-9 5 -18 9.5t-19 4.5q-23 0 -29 -35h-70zM55 551h127l81 -420l235 420h118l-480 -810h-118l159 268z" />
    <glyph glyph-name="zerowidthnonjoiner" unicode="&#x200c;" horiz-adv-x="0" 
d="M-23 -230v1041h47v-1041h-47z" />
    <glyph glyph-name="zerowidthjoiner" unicode="&#x200d;" horiz-adv-x="0" 
d="M95 560l-72 75v-865h-47v865l-69 -73l-33 33l93 93l-95 95l33 33l95 -95l96 95l32 -32l-96 -96l96 -95z" />
    <glyph glyph-name="endash" unicode="&#x2013;" horiz-adv-x="708" 
d="M108 410h535l-17 -96h-535z" />
    <glyph glyph-name="emdash" unicode="&#x2014;" horiz-adv-x="924" 
d="M108 410h750l-17 -96h-750z" />
    <glyph glyph-name="quoteleft" unicode="&#x2018;" horiz-adv-x="242" 
d="M261 695l-103 -238h-124l147 238h80z" />
    <glyph glyph-name="quoteright" unicode="&#x2019;" horiz-adv-x="242" 
d="M81 457l103 238h124l-147 -238h-80z" />
    <glyph glyph-name="quotesinglbase" unicode="&#x201a;" horiz-adv-x="202" 
d="M48 137h124l-169 -276h-74z" />
    <glyph glyph-name="quotedblleft" unicode="&#x201c;" horiz-adv-x="426" 
d="M261 695l-103 -238h-124l147 238h80zM441 695l-103 -238h-124l147 238h80z" />
    <glyph glyph-name="quotedblright" unicode="&#x201d;" horiz-adv-x="400" 
d="M212 457l103 238h124l-147 -238h-80zM32 457l103 238h124l-147 -238h-80z" />
    <glyph glyph-name="quotedblbase" unicode="&#x201e;" horiz-adv-x="202" 
d="M48 137h124l-169 -276h-74z" />
    <glyph glyph-name="dagger" unicode="&#x2020;" horiz-adv-x="584" 
d="M580 551l-15 -89l-196 10l-118 -734h-114l142 734l-200 -10l15 89l197 -10l30 242h114l-54 -242z" />
    <glyph glyph-name="daggerdbl" unicode="&#x2021;" horiz-adv-x="585" 
d="M565 462l-196 10l-75 -422l200 10l-16 -89l-196 10l-31 -243h-114l55 243l-199 -10l16 89l195 -10l75 422l-199 -10l15 89l196 -10l30 242h114l-54 -242l199 10z" />
    <glyph glyph-name="bullet" unicode="&#x2022;" horiz-adv-x="462" 
d="M214 203q-27 0 -49 10t-36.5 27.5t-20.5 41.5t-1 51q5 28 19.5 52t35 41.5t46 27.5t52.5 10q28 0 50 -10t37 -27.5t21 -41.5t1 -52q-5 -27 -19.5 -51t-35.5 -41.5t-46.5 -27.5t-53.5 -10z" />
    <glyph glyph-name="ellipsis" unicode="&#x2026;" horiz-adv-x="638" 
d="M354 66q-5 -31 -30 -52t-55 -21q-31 0 -48 21t-12 52t30 52t56 21q30 0 47 -21t12 -52zM556 66q-5 -31 -30 -52t-55 -21q-31 0 -48 21t-12 52t30 52t56 21q30 0 47 -21t12 -52zM153 66q-5 -31 -30 -52t-55 -21q-31 0 -48 21t-12 52t30 52t56 21q30 0 47 -21t12 -52z" />
    <glyph glyph-name="perthousand" unicode="&#x2030;" horiz-adv-x="1062" 
d="M87 553q6 36 22.5 64.5t40.5 48t53.5 30t62.5 10.5q66 0 101.5 -40.5t23.5 -112.5q-6 -36 -22.5 -65t-40.5 -48.5t-53.5 -30t-62.5 -10.5q-66 0 -101.5 40.5t-23.5 113.5zM254 637q-29 0 -49.5 -19.5t-28.5 -64.5t5.5 -65t42.5 -20t49.5 20t28.5 65t-5.5 64.5t-42.5 19.5
zM575 696h112l-522 -696h-112zM352 144q6 36 22.5 64.5t40.5 48t53.5 30t62.5 10.5q32 0 58 -10.5t42.5 -30t23 -48t0.5 -64.5t-22.5 -65t-40.5 -48.5t-53.5 -30t-61.5 -10.5q-66 0 -101.5 40.5t-23.5 113.5zM518 228q-29 0 -49.5 -19.5t-28.5 -64.5t5.5 -64.5t42.5 -19.5
t49.5 19.5t28.5 64.5t-5.5 64.5t-42.5 19.5zM691 144q6 36 23 64.5t41 48t53.5 30t61.5 10.5q66 0 101.5 -40.5t23.5 -112.5q-6 -36 -22.5 -65t-40.5 -48.5t-53.5 -30t-62.5 -10.5q-32 0 -58 10.5t-43 30t-23.5 48.5t-0.5 65zM858 228q-29 0 -49.5 -19.5t-28.5 -64.5
t5.5 -64.5t42.5 -19.5t49.5 19.5t28.5 64.5t-5.5 64.5t-42.5 19.5z" />
    <glyph glyph-name="guilsinglleft" unicode="&#x2039;" horiz-adv-x="297" 
d="M216 120h-110l-61 175l123 175h110l-127 -175z" />
    <glyph glyph-name="guilsinglright" unicode="&#x203a;" horiz-adv-x="297" 
d="M19 120l126 175l-64 175h109l62 -175l-124 -175h-109z" />
    <glyph glyph-name="fraction" unicode="&#x2044;" horiz-adv-x="587" 
d="M521 696h113l-522 -696h-113z" />
    <glyph glyph-name="rupee" unicode="&#x20a8;" horiz-adv-x="1147" 
d="M478 488q10 54 -15.5 86t-92.5 32h-126l-41 -235h126q67 0 103.5 31.5t45.5 85.5zM386 695q62 0 105 -16.5t68.5 -44.5t34 -66t1.5 -80q-5 -32 -20 -63.5t-40.5 -58.5t-62 -47.5t-85.5 -29.5l133 -289h-139l-124 282h-70l-50 -282h-114l123 695h240zM642 393q6 34 26 64
t52 53t75 36.5t94 13.5q93 0 140.5 -46.5t37.5 -130.5h-117q4 42 -16.5 64.5t-68.5 22.5t-76.5 -21t-34.5 -52q-6 -32 15.5 -48t55.5 -25.5t74 -18t73 -25t51.5 -46t9.5 -81.5q-6 -36 -27 -66t-53.5 -51t-74 -33t-88.5 -12q-96 0 -147 44.5t-42 132.5h118q-5 -42 18.5 -64.5
t68.5 -22.5q51 0 80.5 21t35.5 53q5 32 -16 48.5t-55 26.5t-74 18t-73 23.5t-52 43.5t-10 78z" />
    <glyph glyph-name="Euro" unicode="&#x20ac;" horiz-adv-x="802" 
d="M108 349q2 11 4.5 22t5.5 22h-74l13 78h92q27 53 67.5 96t89.5 73.5t105 47t114 16.5q54 0 101.5 -13.5t85 -40t63 -65.5t36.5 -90h-137q-19 54 -61.5 79.5t-105.5 25.5q-72 0 -134 -34t-101 -95h212l-13 -78h-235q-4 -11 -6.5 -22t-4.5 -22t-3 -22l-2 -22h235l-14 -78
h-212q17 -63 66.5 -96.5t122.5 -33.5q63 0 115 25.5t89 79.5h137q-29 -51 -68.5 -90t-86 -65t-98.5 -39.5t-106 -13.5q-59 0 -109 16.5t-88 47t-63 73.5t-34 96h-92l14 78h75l2 22t3 22z" />
    <glyph glyph-name="indianrupee" unicode="&#x20b9;" horiz-adv-x="622" 
d="M117 696h544l-15 -83h-116l-13 -75q-1 -4 -1.5 -7t-1.5 -7h117l-15 -82h-122q-17 -50 -42 -84.5t-61.5 -56t-86 -31t-115.5 -9.5l-11 -63q-5 -26 -4 -47.5t10 -37.5t27.5 -25t48.5 -9q57 0 85 31.5t38 83.5h105q-20 -103 -82.5 -153.5t-162.5 -50.5q-103 0 -145.5 55.5
t-25.5 157.5l24 137q75 0 125.5 2.5t83.5 13t52 31t31 55.5h-316l15 82h321q0 4 0.5 7t1.5 7l13 75h-321z" />
    <glyph glyph-name="uni20BA" unicode="&#x20ba;" horiz-adv-x="850" 
d="M320 512l170 38l-14 -80l-170 -37l-15 -85l165 36l-14 -80l-165 -36l-30 -169q20 -5 39 -6t38 -1q71 0 123 23t89.5 66.5t61 105.5t37.5 141h117q-20 -112 -55.5 -195t-89.5 -138t-129 -82.5t-173 -27.5q-45 0 -92.5 6.5t-98.5 18.5l41 231l-155 -34l14 81l155 34l15 85
l-159 -35l14 78l159 35l38 216h117z" />
    <glyph glyph-name="uni20BD" unicode="&#x20bd;" horiz-adv-x="635" 
d="M243 371h126q67 0 103.5 31.5t45.5 85.5q10 54 -15.5 86t-92.5 32h-126zM40 371h89l57 324h240q62 0 105 -16.5t68.5 -44.5t34 -66t1.5 -80q-6 -37 -25.5 -74t-54 -66t-85 -47.5t-117.5 -18.5h-126l-15 -82h200l-16 -91h-200l-19 -109h-114l19 109h-88l16 91h88l15 82
h-89z" />
    <glyph glyph-name="uni2113" unicode="&#x2113;" horiz-adv-x="264" 
d="M154 740h114l-131 -740h-114z" />
    <glyph glyph-name="trademark" unicode="&#x2122;" horiz-adv-x="811" 
d="M96 704h245l-12 -68h-79l-49 -284h-90l52 284h-79zM399 704h116l53 -247l144 247h110l-62 -352h-82l40 238l-141 -238h-61l-55 243l-43 -243h-81z" />
    <glyph glyph-name="uni2126" unicode="&#x2126;" horiz-adv-x="785" 
d="M48 349q14 78 53 143t95 112.5t125 73.5t143 26t134.5 -26t100 -73.5t56 -112.5t2.5 -143q-14 -81 -57.5 -148t-115.5 -112h116l-16 -89h-273l17 92q78 26 136 90t76 160q10 60 0.5 108t-35.5 81t-66.5 51t-92.5 18t-99 -18t-84.5 -51.5t-63.5 -81t-36 -107.5
q-9 -48 -3.5 -88t22.5 -71.5t43.5 -54.5t61.5 -36l-17 -92h-274l16 89h116q-57 45 -75.5 112t-4.5 148z" />
    <glyph glyph-name="estimated" unicode="&#x212e;" horiz-adv-x="757" 
d="M657 136q-75 -67 -155 -105t-168 -38q-74 0 -132.5 22.5t-97 65.5t-53.5 106.5t-1 144.5q14 78 48 146t85.5 118t118.5 79t148 29t139 -27.5t92.5 -72.5t46.5 -104t1 -122l-11 -62h-520l-30 -170q31 -40 73.5 -60.5t105.5 -20.5q75 0 140 32t133 90zM573 387l30 174
q-51 72 -165 72q-57 0 -107 -20t-92 -62l-28 -164h362z" />
    <glyph glyph-name="partialdiff" unicode="&#x2202;" horiz-adv-x="585" 
d="M425 321q13 72 -9 107.5t-70 35.5q-35 0 -68 -18t-60 -49.5t-46.5 -74t-28.5 -91.5q-13 -74 9.5 -109t66.5 -35q35 0 68.5 19t61.5 51t48 74.5t28 89.5zM27 231q12 67 44 126.5t77 104.5t99.5 71.5t111.5 26.5q39 0 64 -13.5t43 -39.5q3 36 -1.5 66.5t-18 52.5
t-36.5 34.5t-56 12.5q-35 0 -81 -12l11 64q27 8 51.5 11.5t47.5 3.5q58 0 99 -24t64.5 -67.5t29 -104.5t-7.5 -134q-17 -97 -55 -174.5t-89.5 -132t-112.5 -83.5t-122 -29q-42 0 -77 14.5t-57.5 44t-30.5 74.5t3 107z" />
    <glyph glyph-name="uni2206" unicode="&#x2206;" horiz-adv-x="696" 
d="M372 696h94l174 -608l-16 -88h-656l16 88zM396 566l-295 -478h422z" />
    <glyph glyph-name="product" unicode="&#x220f;" horiz-adv-x="741" 
d="M102 696h679l-16 -89h-77l-107 -607h-113l107 607h-299l-107 -607h-114l107 607h-76z" />
    <glyph glyph-name="summation" unicode="&#x2211;" horiz-adv-x="480" 
d="M111 696h400l-15 -88h-303l219 -241l-15 -88l-307 -247h304l-16 -88h-400l24 133l297 244l-211 243z" />
    <glyph glyph-name="minus" unicode="&#x2212;" horiz-adv-x="585" 
d="M108 410h411l-17 -96h-411z" />
    <glyph glyph-name="uni2215" unicode="&#x2215;" horiz-adv-x="514" 
d="M447 944h113l-470 -1119h-112z" />
    <glyph glyph-name="uni2219" unicode="&#x2219;" horiz-adv-x="244" 
d="M157 335q-5 -31 -30 -52t-55 -21q-31 0 -48 21t-12 52t30 52t56 21q30 0 47 -21t12 -52z" />
    <glyph glyph-name="radical" unicode="&#x221a;" horiz-adv-x="829" 
d="M197 -43l-91 233l-76 -41l-24 57l184 99l82 -211l567 785h82l-666 -922h-58z" />
    <glyph glyph-name="infinity" unicode="&#x221e;" horiz-adv-x="702" 
d="M191 274q30 0 62 18.5t57 48.5q-20 33 -41.5 56.5t-51.5 23.5q-32 0 -55.5 -19t-29.5 -55q-7 -36 10 -54.5t49 -18.5zM505 274q32 0 55 19t30 55q6 36 -10.5 54.5t-48.5 18.5t-64.5 -19.5t-57.5 -51.5q20 -32 41.5 -54t54.5 -22zM37 347q6 37 24 66t43.5 49t56.5 30.5
t64 10.5q28 0 50 -8t40 -21t32 -30t26 -36q33 42 80 69t102 26q33 0 59.5 -10.5t44 -30.5t25 -48.5t1.5 -65.5q-7 -37 -25 -66t-43.5 -49t-56.5 -30.5t-64 -10.5q-27 0 -48.5 7.5t-39.5 20t-33 29.5t-28 35q-33 -40 -80 -66.5t-101 -25.5q-33 0 -60 10.5t-44.5 30.5
t-24.5 48.5t0 65.5z" />
    <glyph glyph-name="integral" unicode="&#x222b;" horiz-adv-x="270" 
d="M210 771q24 85 73 119.5t124 34.5h22l-26 -95h-16q-24 0 -38.5 -13.5t-24.5 -45.5l-237 -835q-24 -85 -73.5 -119t-124.5 -34h-21l26 94h17q23 0 38 13.5t23 45.5z" />
    </font>
</defs>
</svg>
